AnekTamil-ExpandedExtraLight.ufo
<glyph name="exclam" format="2">
  <advance width="531.37"/>
  <unicode hex="0021"/>
  <outline>
    <contour>
      <point x="301.885" y="376.01000000000005" type="line"/>
      <point x="311.655" y="1278.0" type="line"/>
      <point x="218.98000000000002" y="1278.0" type="line"/>
      <point x="229.01500000000001" y="376.01000000000005" type="line"/>
    </contour>
    <contour>
      <point x="264.95" y="-16.65" type="curve" smooth="yes"/>
      <point x="318.055" y="-16.65"/>
      <point x="345.415" y="9.035"/>
      <point x="345.415" y="55.165000000000006" type="curve" smooth="yes"/>
      <point x="345.415" y="59.165000000000006" type="line" smooth="yes"/>
      <point x="345.415" y="104.56"/>
      <point x="318.055" y="129.51000000000002"/>
      <point x="264.95" y="129.51000000000002" type="curve" smooth="yes"/>
      <point x="214.58" y="129.51000000000002"/>
      <point x="186.22" y="104.56"/>
      <point x="186.22" y="59.165000000000006" type="curve" smooth="yes"/>
      <point x="186.22" y="55.165000000000006" type="line" smooth="yes"/>
      <point x="186.22" y="9.035"/>
      <point x="214.58" y="-16.65"/>
    </contour>
  </outline>
</glyph>
<glyph name="numbersign" format="2">
  <advance width="1552.6299999999999"/>
  <unicode hex="0023"/>
  <outline>
    <contour>
      <point x="338.15" y="0.0" type="line"/>
      <point x="413.31" y="0.0" type="line"/>
      <point x="623.31" y="1278.0" type="line"/>
      <point x="548.15" y="1278.0" type="line"/>
    </contour>
    <contour>
      <point x="95.375" y="351.715" type="line"/>
      <point x="1378.05" y="351.715" type="line"/>
      <point x="1378.05" y="416.575" type="line"/>
      <point x="95.375" y="416.575" type="line"/>
    </contour>
    <contour>
      <point x="933.645" y="0.0" type="line"/>
      <point x="1009.805" y="0.0" type="line"/>
      <point x="1215.0099999999998" y="1278.0" type="line"/>
      <point x="1139.585" y="1278.0" type="line"/>
    </contour>
    <contour>
      <point x="178.05" y="867.7750000000001" type="line"/>
      <point x="1457.2549999999999" y="867.7750000000001" type="line"/>
      <point x="1457.2549999999999" y="932.9" type="line"/>
      <point x="178.05" y="932.9" type="line"/>
    </contour>
  </outline>
</glyph>
<glyph name="dollar" format="2">
  <advance width="1454.1200000000001"/>
  <unicode hex="0024"/>
  <anchor x="723.795" y="0.0" name="bottom"/>
  <anchor x="723.795" y="1278.0" name="top"/>
  <outline>
    <contour>
      <point x="754.8499999999999" y="1254.4150000000002" type="line"/>
      <point x="754.8499999999999" y="1541.025" type="line"/>
      <point x="673.8000000000001" y="1541.025" type="line"/>
      <point x="673.8000000000001" y="1254.4150000000002" type="line"/>
    </contour>
    <contour>
      <point x="754.8499999999999" y="-265.49499999999995" type="line"/>
      <point x="754.8499999999999" y="26.500000000000007" type="line"/>
      <point x="673.8000000000001" y="26.500000000000007" type="line"/>
      <point x="673.8000000000001" y="-265.49499999999995" type="line"/>
    </contour>
    <component base="S"/>
  </outline>
</glyph>
<glyph name="percent" format="2">
  <advance width="1767.99"/>
  <unicode hex="0025"/>
  <outline>
    <contour>
      <point x="335.195" y="0.0" type="line"/>
      <point x="424.69" y="0.0" type="line"/>
      <point x="1433.59" y="1278.0" type="line"/>
      <point x="1344.36" y="1278.0" type="line"/>
    </contour>
    <contour>
      <point x="1334.895" y="-24.71" type="curve" smooth="yes"/>
      <point x="1529.7" y="-24.71"/>
      <point x="1647.94" y="92.145"/>
      <point x="1647.94" y="284.975" type="curve" smooth="yes"/>
      <point x="1647.94" y="289.77" type="line" smooth="yes"/>
      <point x="1647.94" y="482.33500000000004"/>
      <point x="1529.435" y="598.9250000000001"/>
      <point x="1334.895" y="598.9250000000001" type="curve" smooth="yes"/>
      <point x="1141.825" y="598.9250000000001"/>
      <point x="1022.38" y="481.53999999999996"/>
      <point x="1022.38" y="289.77" type="curve" smooth="yes"/>
      <point x="1022.38" y="284.975" type="line" smooth="yes"/>
      <point x="1022.38" y="92.145"/>
      <point x="1140.0900000000001" y="-24.71"/>
    </contour>
    <contour>
      <point x="1334.895" y="37.235" type="curve" smooth="yes"/>
      <point x="1187.615" y="37.235"/>
      <point x="1094.155" y="126.755"/>
      <point x="1094.155" y="284.975" type="curve" smooth="yes"/>
      <point x="1094.155" y="289.24" type="line" smooth="yes"/>
      <point x="1094.155" y="447.195"/>
      <point x="1185.8799999999999" y="537.245"/>
      <point x="1334.895" y="537.245" type="curve" smooth="yes"/>
      <point x="1482.44" y="537.245"/>
      <point x="1575.635" y="447.195"/>
      <point x="1575.635" y="289.24" type="curve" smooth="yes"/>
      <point x="1575.635" y="284.975" type="line" smooth="yes"/>
      <point x="1575.635" y="126.755"/>
      <point x="1484.175" y="37.235"/>
    </contour>
    <contour>
      <point x="432.565" y="679.3399999999999" type="curve" smooth="yes"/>
      <point x="625.635" y="679.3399999999999"/>
      <point x="745.61" y="796.725"/>
      <point x="745.61" y="988.76" type="curve" smooth="yes"/>
      <point x="745.61" y="993.555" type="line" smooth="yes"/>
      <point x="745.61" y="1186.1200000000001"/>
      <point x="627.37" y="1302.975"/>
      <point x="432.565" y="1302.975" type="curve" smooth="yes"/>
      <point x="237.025" y="1302.975"/>
      <point x="120.05" y="1186.1200000000001"/>
      <point x="120.05" y="993.555" type="curve" smooth="yes"/>
      <point x="120.05" y="988.76" type="line" smooth="yes"/>
      <point x="120.05" y="796.195"/>
      <point x="237.025" y="679.3399999999999"/>
    </contour>
    <contour>
      <point x="432.565" y="741.02" type="curve" smooth="yes"/>
      <point x="284.54999999999995" y="741.02"/>
      <point x="190.825" y="830.07"/>
      <point x="190.825" y="988.7600000000001" type="curve" smooth="yes"/>
      <point x="190.825" y="993.555" type="line" smooth="yes"/>
      <point x="190.825" y="1151.245"/>
      <point x="283.54999999999995" y="1241.2949999999998"/>
      <point x="432.565" y="1241.2949999999998" type="curve" smooth="yes"/>
      <point x="580.11" y="1241.2949999999998"/>
      <point x="673.305" y="1151.245"/>
      <point x="673.305" y="993.555" type="curve" smooth="yes"/>
      <point x="673.305" y="988.7600000000001" type="line" smooth="yes"/>
      <point x="673.305" y="830.07"/>
      <point x="581.845" y="741.02"/>
    </contour>
  </outline>
</glyph>
<glyph name="ampersand" format="2">
  <advance width="1652.975"/>
  <unicode hex="0026"/>
  <outline>
    <contour>
      <point x="1521.0449999999998" y="0.0" type="curve"/>
      <point x="1635.5749999999998" y="0.0" type="line"/>
      <point x="1635.5749999999998" y="8.77" type="line"/>
      <point x="1508.165" y="103.21499999999999"/>
      <point x="1425.215" y="163.635"/>
      <point x="1289.275" y="262.755" type="curve"/>
      <point x="1259.725" y="284.8" type="line"/>
      <point x="542.81" y="772.035" type="line" smooth="yes"/>
      <point x="453.485" y="832.89"/>
      <point x="379.315" y="893.855"/>
      <point x="379.315" y="999.255" type="curve" smooth="yes"/>
      <point x="379.315" y="1000.52" type="line" smooth="yes"/>
      <point x="379.315" y="1136.56"/>
      <point x="476.45" y="1223.96"/>
      <point x="743.6850000000001" y="1223.96" type="curve" smooth="yes"/>
      <point x="956.5550000000001" y="1223.96"/>
      <point x="1115.94" y="1164.73"/>
      <point x="1224.24" y="1099.175" type="curve"/>
      <point x="1213.4099999999999" y="1180.395" type="line"/>
      <point x="1126.6399999999999" y="1235.48"/>
      <point x="965.76" y="1299.385"/>
      <point x="736.675" y="1299.385" type="curve" smooth="yes"/>
      <point x="416.0" y="1299.385"/>
      <point x="287.17" y="1187.06"/>
      <point x="287.17" y="1006.0850000000002" type="curve" smooth="yes"/>
      <point x="287.17" y="1003.0250000000001" type="line" smooth="yes"/>
      <point x="287.17" y="887.29"/>
      <point x="351.725" y="810.495"/>
      <point x="452.76" y="743.46" type="curve"/>
      <point x="468.85499999999996" y="728.245" type="line"/>
      <point x="1210.02" y="225.06" type="line"/>
      <point x="1226.5" y="214.29000000000002" type="line"/>
      <point x="1288.285" y="169.325"/>
      <point x="1474.575" y="34.0"/>
    </contour>
    <contour>
      <point x="684.12" y="-23.384999999999998" type="curve" smooth="yes"/>
      <point x="941.975" y="-23.384999999999998"/>
      <point x="1133.47" y="61.965"/>
      <point x="1274.06" y="210.66500000000002" type="curve"/>
      <point x="1294.9850000000001" y="230.795" type="line"/>
      <point x="1407.6350000000002" y="360.46999999999997"/>
      <point x="1485.73" y="538.795"/>
      <point x="1521.26" y="752.71" type="curve"/>
      <point x="1431.355" y="752.71" type="line"/>
      <point x="1398.825" y="556.395"/>
      <point x="1331.1499999999999" y="397.73"/>
      <point x="1231.39" y="276.765" type="curve"/>
      <point x="1212.115" y="256.16499999999996" type="line"/>
      <point x="1087.27" y="124.35500000000002"/>
      <point x="912.4" y="51.775"/>
      <point x="690.565" y="51.775" type="curve" smooth="yes"/>
      <point x="394.62" y="51.775"/>
      <point x="231.13500000000002" y="171.88500000000002"/>
      <point x="231.13500000000002" y="377.48" type="curve" smooth="yes"/>
      <point x="231.13500000000002" y="386.95" type="line" smooth="yes"/>
      <point x="231.13500000000002" y="548.76"/>
      <point x="319.57" y="648.425"/>
      <point x="505.815" y="720.475" type="curve"/>
      <point x="451.05" y="773.71" type="line"/>
      <point x="238.195" y="690.505"/>
      <point x="139.785" y="565.71"/>
      <point x="139.785" y="378.59000000000003" type="curve" smooth="yes"/>
      <point x="139.785" y="369.59000000000003" type="line" smooth="yes"/>
      <point x="139.785" y="124.18"/>
      <point x="332.05" y="-23.384999999999998"/>
    </contour>
  </outline>
</glyph>
<glyph name="quotesingle" format="2">
  <advance width="399.61"/>
  <unicode hex="0027"/>
  <outline>
    <contour>
      <point x="233.82500000000002" y="813.52" type="line"/>
      <point x="243.12500000000003" y="1322.675" type="line"/>
      <point x="156.485" y="1322.675" type="line"/>
      <point x="165.255" y="813.52" type="line"/>
    </contour>
  </outline>
</glyph>
<glyph name="parenleft" format="2">
  <advance width="723.285"/>
  <unicode hex="0028"/>
  <outline>
    <contour>
      <point x="289.18500000000006" y="570.4100000000001" type="line" smooth="yes"/>
      <point x="289.18500000000006" y="873.315"/>
      <point x="398.125" y="1140.17"/>
      <point x="611.1850000000001" y="1347.265" type="curve"/>
      <point x="515.365" y="1347.265" type="line"/>
      <point x="309.15999999999997" y="1141.29"/>
      <point x="203.28" y="876.025"/>
      <point x="203.28" y="570.41" type="curve" smooth="yes"/>
      <point x="203.28" y="549.94" type="line" smooth="yes"/>
      <point x="203.28" y="236.735"/>
      <point x="307.83500000000004" y="-29.47"/>
      <point x="514.3050000000001" y="-235.505" type="curve"/>
      <point x="611.1850000000001" y="-235.505" type="line"/>
      <point x="397.86" y="-24.675"/>
      <point x="289.18500000000006" y="243.24"/>
      <point x="289.18500000000006" y="549.9399999999999" type="curve" smooth="yes"/>
    </contour>
  </outline>
</glyph>
<glyph name="parenright" format="2">
  <advance width="723.2850000000001"/>
  <unicode hex="0029"/>
  <outline>
    <contour>
      <point x="434.1" y="570.4100000000001" type="curve" smooth="yes"/>
      <point x="434.1" y="549.9399999999999" type="line" smooth="yes"/>
      <point x="434.1" y="243.24"/>
      <point x="325.42499999999995" y="-24.675"/>
      <point x="112.1" y="-235.505" type="curve"/>
      <point x="208.98000000000002" y="-235.505" type="line"/>
      <point x="415.45" y="-29.47"/>
      <point x="520.005" y="236.735"/>
      <point x="520.005" y="549.94" type="curve" smooth="yes"/>
      <point x="520.005" y="570.41" type="line" smooth="yes"/>
      <point x="520.005" y="876.025"/>
      <point x="414.125" y="1141.29"/>
      <point x="207.92" y="1347.265" type="curve"/>
      <point x="112.1" y="1347.265" type="line"/>
      <point x="325.15999999999997" y="1140.17"/>
      <point x="434.1" y="873.315"/>
    </contour>
  </outline>
</glyph>
<glyph name="asterisk" format="2">
  <advance width="884.9849999999999"/>
  <unicode hex="002A"/>
  <outline>
    <contour>
      <point x="242.695" y="649.5" type="line"/>
      <point x="447.035" y="908.61" type="line"/>
      <point x="438.685" y="908.61" type="line"/>
      <point x="642.82" y="649.5" type="line"/>
      <point x="703.355" y="698.495" type="line"/>
      <point x="482.86" y="940.98" type="line"/>
      <point x="482.39" y="931.895" type="line"/>
      <point x="797.4649999999999" y="1009.885" type="line"/>
      <point x="778.395" y="1082.19" type="line"/>
      <point x="466.585" y="983.01" type="line"/>
      <point x="471.72999999999996" y="976.865" type="line"/>
      <point x="483.03" y="1278.0" type="line"/>
      <point x="402.69" y="1278.0" type="line"/>
      <point x="414.99" y="976.865" type="line"/>
      <point x="418.4" y="983.01" type="line"/>
      <point x="106.59" y="1082.19" type="line"/>
      <point x="87.52" y="1009.885" type="line"/>
      <point x="403.33" y="931.895" type="line"/>
      <point x="401.86" y="940.98" type="line"/>
      <point x="182.1" y="698.495" type="line"/>
    </contour>
  </outline>
</glyph>
<glyph name="plus" format="2">
  <advance width="1347.2899999999997"/>
  <unicode hex="002B"/>
  <outline>
    <contour>
      <point x="712.49" y="99.495" type="line"/>
      <point x="712.49" y="1124.2649999999999" type="line"/>
      <point x="635.535" y="1124.2649999999999" type="line"/>
      <point x="635.535" y="99.495" type="line"/>
    </contour>
    <contour>
      <point x="159.375" y="576.86" type="line"/>
      <point x="1187.915" y="576.86" type="line"/>
      <point x="1187.915" y="646.9" type="line"/>
      <point x="159.375" y="646.9" type="line"/>
    </contour>
  </outline>
</glyph>
<glyph name="comma" format="2">
  <advance width="394.53499999999997"/>
  <unicode hex="002C"/>
  <outline>
    <contour>
      <point x="247.1" y="253.515" type="curve"/>
      <point x="163.52" y="253.515" type="line"/>
      <point x="169.25500000000002" y="217.925"/>
      <point x="171.99" y="182.13"/>
      <point x="171.99" y="142.07000000000002" type="curve" smooth="yes"/>
      <point x="171.99" y="-17.195"/>
      <point x="137.52" y="-137.785"/>
      <point x="40.82" y="-262.99" type="curve"/>
      <point x="100.39" y="-290.025" type="line"/>
      <point x="216.51" y="-156.7"/>
      <point x="256.365" y="-22.990000000000002"/>
      <point x="256.365" y="145.66" type="curve" smooth="yes"/>
      <point x="256.365" y="191.13"/>
      <point x="250.63" y="230.925"/>
    </contour>
  </outline>
</glyph>
<glyph name="hyphen" format="2">
  <advance width="1109.465"/>
  <unicode hex="002D"/>
  <outline>
    <contour>
      <point x="173.81" y="493.125" type="line"/>
      <point x="935.655" y="493.125" type="line"/>
      <point x="935.655" y="563.6949999999999" type="line"/>
      <point x="173.81" y="563.6949999999999" type="line"/>
    </contour>
  </outline>
</glyph>
<glyph name="period" format="2">
  <advance width="425.945"/>
  <unicode hex="002E"/>
  <outline>
    <contour>
      <point x="212.105" y="-16.65" type="curve" smooth="yes"/>
      <point x="265.21" y="-16.65"/>
      <point x="292.57" y="9.035"/>
      <point x="292.57" y="55.165000000000006" type="curve" smooth="yes"/>
      <point x="292.57" y="59.165000000000006" type="line" smooth="yes"/>
      <point x="292.57" y="104.56"/>
      <point x="265.21" y="129.51000000000002"/>
      <point x="212.105" y="129.51000000000002" type="curve" smooth="yes"/>
      <point x="161.73499999999999" y="129.51000000000002"/>
      <point x="133.375" y="104.56"/>
      <point x="133.375" y="59.165000000000006" type="curve" smooth="yes"/>
      <point x="133.375" y="55.165000000000006" type="line" smooth="yes"/>
      <point x="133.375" y="9.035"/>
      <point x="161.73499999999999" y="-16.65"/>
    </contour>
  </outline>
</glyph>
<glyph name="slash" format="2">
  <advance width="1083.68"/>
  <unicode hex="002F"/>
  <outline>
    <contour>
      <point x="64.775" y="-226.82999999999998" type="line"/>
      <point x="155.15" y="-226.82999999999998" type="line"/>
      <point x="1018.9050000000001" y="1321.2399999999998" type="line"/>
      <point x="928.795" y="1321.2399999999998" type="line"/>
    </contour>
  </outline>
</glyph>
<glyph name="zero" format="2">
  <advance width="1499.31"/>
  <unicode hex="0030"/>
  <outline>
    <contour>
      <point x="749.155" y="-24.18" type="curve" smooth="yes"/>
      <point x="1152.9" y="-24.18"/>
      <point x="1358.73" y="212.555"/>
      <point x="1358.73" y="627.795" type="curve"/>
      <point x="1358.73" y="647.735" type="line"/>
      <point x="1358.73" y="1061.71"/>
      <point x="1152.9" y="1301.1799999999998"/>
      <point x="749.155" y="1301.1799999999998" type="curve" smooth="yes"/>
      <point x="346.41" y="1301.1799999999998"/>
      <point x="140.57999999999998" y="1061.71"/>
      <point x="140.57999999999998" y="647.735" type="curve"/>
      <point x="140.57999999999998" y="627.795" type="line"/>
      <point x="140.57999999999998" y="212.555"/>
      <point x="346.675" y="-24.18"/>
    </contour>
    <contour>
      <point x="749.155" y="51.51" type="curve" smooth="yes"/>
      <point x="403.21" y="51.51"/>
      <point x="231.39999999999998" y="262.995"/>
      <point x="231.39999999999998" y="627.53" type="curve" smooth="yes"/>
      <point x="231.39999999999998" y="647.735" type="line" smooth="yes"/>
      <point x="231.39999999999998" y="1013.74"/>
      <point x="402.68" y="1225.49"/>
      <point x="749.155" y="1225.49" type="curve" smooth="yes"/>
      <point x="1096.6299999999999" y="1225.49"/>
      <point x="1267.91" y="1014.0050000000001"/>
      <point x="1267.91" y="647.735" type="curve" smooth="yes"/>
      <point x="1267.91" y="627.53" type="line" smooth="yes"/>
      <point x="1267.91" y="262.995"/>
      <point x="1096.6299999999999" y="51.51"/>
    </contour>
  </outline>
</glyph>
<glyph name="one" format="2">
  <advance width="831.25"/>
  <unicode hex="0031"/>
  <outline>
    <contour>
      <point x="523.005" y="0.0" type="line"/>
      <point x="610.5" y="0.0" type="line"/>
      <point x="610.5" y="1278.0" type="line"/>
      <point x="506.48499999999996" y="1278.0" type="line"/>
      <point x="88.495" y="1067.25" type="line"/>
      <point x="83.64" y="985.44" type="line"/>
      <point x="508.74" y="1197.48" type="line"/>
      <point x="523.005" y="1197.48" type="line"/>
    </contour>
  </outline>
</glyph>
<glyph name="two" format="2">
  <advance width="1290.975"/>
  <unicode hex="0032"/>
  <outline>
    <contour>
      <point x="104.17" y="0.0" type="line"/>
      <point x="1175.6" y="0.0" type="line"/>
      <point x="1175.6" y="75.69" type="line"/>
      <point x="186.085" y="75.69" type="line"/>
      <point x="223.43000000000004" y="56.535" type="line"/>
      <point x="223.43000000000004" y="84.95500000000001" type="line"/>
      <point x="651.98" y="351.59999999999997" type="line" smooth="yes"/>
      <point x="934.065" y="527.915"/>
      <point x="1143.72" y="666.12"/>
      <point x="1143.72" y="908.435" type="curve" smooth="yes"/>
      <point x="1143.72" y="916.495" type="line" smooth="yes"/>
      <point x="1143.72" y="1164.205"/>
      <point x="966.4799999999999" y="1299.855"/>
      <point x="643.47" y="1299.855" type="curve" smooth="yes"/>
      <point x="402.035" y="1299.855"/>
      <point x="228.855" y="1215.7450000000001"/>
      <point x="118.53" y="1145.1899999999998" type="curve"/>
      <point x="107.495" y="1058.585" type="line"/>
      <point x="239.965" y="1144.815"/>
      <point x="416.495" y="1223.3700000000001"/>
      <point x="632.99" y="1223.3700000000001" type="curve" smooth="yes"/>
      <point x="909.62" y="1223.3700000000001"/>
      <point x="1052.9" y="1110.585"/>
      <point x="1052.9" y="911.1949999999999" type="curve" smooth="yes"/>
      <point x="1052.9" y="905.9300000000001" type="line" smooth="yes"/>
      <point x="1052.9" y="687.335"/>
      <point x="847.245" y="565.0200000000001"/>
      <point x="592.1700000000001" y="402.945" type="curve" smooth="yes"/>
      <point x="104.17" y="96.42500000000001" type="line"/>
    </contour>
  </outline>
</glyph>
<glyph name="three" format="2">
  <advance width="1374.2050000000002"/>
  <unicode hex="0033"/>
  <outline>
    <contour>
      <point x="669.315" y="-23.119999999999997" type="curve" smooth="yes"/>
      <point x="1055.915" y="-23.119999999999997"/>
      <point x="1243.48" y="121.675"/>
      <point x="1243.48" y="345.24" type="curve" smooth="yes"/>
      <point x="1243.48" y="363.385" type="line" smooth="yes"/>
      <point x="1243.48" y="554.145"/>
      <point x="1114.9950000000001" y="664.845"/>
      <point x="821.18" y="673.735" type="curve"/>
      <point x="809.54" y="662.76" type="line"/>
      <point x="809.5400000000001" y="666.5649999999999" type="line"/>
      <point x="1106.73" y="674.13"/>
      <point x="1226.5400000000002" y="795.795"/>
      <point x="1226.5400000000002" y="960.88" type="curve" smooth="yes"/>
      <point x="1226.5400000000002" y="974.615" type="line" smooth="yes"/>
      <point x="1226.5400000000002" y="1178.18"/>
      <point x="1060.1200000000001" y="1299.385"/>
      <point x="697.1099999999999" y="1299.385" type="curve" smooth="yes"/>
      <point x="434.40999999999997" y="1299.385"/>
      <point x="246.795" y="1228.215"/>
      <point x="145.76" y="1167.07" type="curve"/>
      <point x="135.725" y="1085.8500000000001" type="line"/>
      <point x="259.78499999999997" y="1158.345"/>
      <point x="444.735" y="1223.96"/>
      <point x="688.485" y="1223.96" type="curve" smooth="yes"/>
      <point x="1000.645" y="1223.96"/>
      <point x="1135.72" y="1131.56"/>
      <point x="1135.72" y="967.725" type="curve" smooth="yes"/>
      <point x="1135.72" y="955.315" type="line" smooth="yes"/>
      <point x="1135.72" y="811.035"/>
      <point x="1027.585" y="704.5500000000001"/>
      <point x="722.82" y="702.755" type="curve" smooth="yes"/>
      <point x="384.245" y="700.43" type="line"/>
      <point x="384.245" y="630.8000000000001" type="line"/>
      <point x="721.3499999999999" y="629.005" type="line" smooth="yes"/>
      <point x="1039.9950000000001" y="627.475"/>
      <point x="1151.865" y="527.6650000000001"/>
      <point x="1151.865" y="363.77" type="curve" smooth="yes"/>
      <point x="1151.865" y="349.09499999999997" type="line" smooth="yes"/>
      <point x="1151.865" y="169.70499999999998"/>
      <point x="998.235" y="54.425000000000004"/>
      <point x="666.665" y="54.425000000000004" type="curve" smooth="yes"/>
      <point x="441.25500000000005" y="54.425000000000004"/>
      <point x="249.375" y="116.04"/>
      <point x="128.46" y="179.715" type="curve"/>
      <point x="138.495" y="91.785" type="line"/>
      <point x="228.145" y="48.845"/>
      <point x="419.615" y="-23.119999999999997"/>
    </contour>
  </outline>
</glyph>
<glyph name="four" format="2">
  <advance width="1371.6100000000001"/>
  <unicode hex="0034"/>
  <outline>
    <contour>
      <point x="994.8349999999999" y="0.0" type="line"/>
      <point x="1080.74" y="0.0" type="line"/>
      <point x="1080.74" y="1278.0" type="line"/>
      <point x="910.045" y="1278.0" type="line"/>
      <point x="76.14500000000001" y="400.56" type="line"/>
      <point x="76.14500000000001" y="295.22" type="line"/>
      <point x="1341.4899999999998" y="295.22" type="line"/>
      <point x="1341.4899999999998" y="369.91" type="line"/>
      <point x="135.92" y="369.91" type="line"/>
      <point x="171.20499999999998" y="326.89" type="line"/>
      <point x="171.20499999999998" y="387.43999999999994" type="line"/>
      <point x="956.015" y="1211.67" type="line"/>
      <point x="996.365" y="1211.67" type="line"/>
      <point x="994.8349999999999" y="963.8149999999999" type="line"/>
    </contour>
  </outline>
</glyph>
<glyph name="five" format="2">
  <advance width="1431.65"/>
  <unicode hex="0035"/>
  <outline>
    <contour>
      <point x="736.845" y="-18.65" type="curve" smooth="yes"/>
      <point x="1119.19" y="-18.65"/>
      <point x="1307.335" y="149.855"/>
      <point x="1307.335" y="403.18" type="curve" smooth="yes"/>
      <point x="1307.335" y="417.445" type="line" smooth="yes"/>
      <point x="1307.335" y="671.77"/>
      <point x="1141.515" y="818.83"/>
      <point x="813.02" y="818.83" type="curve" smooth="yes"/>
      <point x="541.62" y="818.83"/>
      <point x="377.8" y="716.865"/>
      <point x="275.015" y="587.43" type="curve"/>
      <point x="282.45" y="585.96" type="line"/>
      <point x="284.45" y="848.255" type="line"/>
      <point x="284.45" y="1203.575" type="line"/>
      <point x="1253.07" y="1203.575" type="line"/>
      <point x="1253.07" y="1278.0" type="line"/>
      <point x="199.54500000000002" y="1278.0" type="line"/>
      <point x="199.54500000000002" y="544.76" type="line"/>
      <point x="273.21" y="529.015" type="line"/>
      <point x="395.935" y="671.175"/>
      <point x="556.105" y="745.1999999999999"/>
      <point x="794.085" y="745.1999999999999" type="curve" smooth="yes"/>
      <point x="1078.62" y="745.1999999999999"/>
      <point x="1218.105" y="623.655"/>
      <point x="1218.105" y="416.18" type="curve" smooth="yes"/>
      <point x="1218.105" y="405.71000000000004" type="line" smooth="yes"/>
      <point x="1218.105" y="191.03"/>
      <point x="1057.33" y="58.89500000000001"/>
      <point x="733.665" y="58.89500000000001" type="curve" smooth="yes"/>
      <point x="491.17" y="58.89500000000001"/>
      <point x="311.60499999999996" y="121.36500000000001"/>
      <point x="188.075" y="187.98" type="curve"/>
      <point x="199.58" y="100.78500000000001" type="line"/>
      <point x="299.58" y="47.435"/>
      <point x="472.615" y="-18.65"/>
    </contour>
  </outline>
</glyph>
<glyph name="six" format="2">
  <advance width="1447.1899999999998"/>
  <unicode hex="0036"/>
  <outline>
    <contour>
      <point x="766.565" y="-19.975" type="curve" smooth="yes"/>
      <point x="1123.105" y="-19.975"/>
      <point x="1323.8149999999998" y="135.82"/>
      <point x="1323.8149999999998" y="403.265" type="curve" smooth="yes"/>
      <point x="1323.8149999999998" y="417.795" type="line" smooth="yes"/>
      <point x="1323.8149999999998" y="666.445"/>
      <point x="1150.2849999999999" y="809.0350000000001"/>
      <point x="820.67" y="809.0350000000001" type="curve" smooth="yes"/>
      <point x="485.005" y="809.0350000000001"/>
      <point x="293.87" y="632.79"/>
      <point x="232.4" y="442.65500000000003" type="curve"/>
      <point x="217.04000000000002" y="442.65500000000003" type="line"/>
      <point x="239.69" y="383.095" type="line"/>
      <point x="314.365" y="580.22"/>
      <point x="501.765" y="738.26"/>
      <point x="800.12" y="738.26" type="curve" smooth="yes"/>
      <point x="1094.485" y="738.26"/>
      <point x="1234.585" y="618.005"/>
      <point x="1234.585" y="416.73499999999996" type="curve" smooth="yes"/>
      <point x="1234.585" y="407.0" type="line" smooth="yes"/>
      <point x="1234.585" y="186.525"/>
      <point x="1069.16" y="55.714999999999996"/>
      <point x="767.89" y="55.714999999999996" type="curve" smooth="yes"/>
      <point x="441.055" y="55.714999999999996"/>
      <point x="223.81" y="249.14"/>
      <point x="223.81" y="604.205" type="curve"/>
      <point x="223.81" y="625.145" type="line" smooth="yes"/>
      <point x="223.81" y="1004.1249999999999"/>
      <point x="408.245" y="1223.43"/>
      <point x="772.815" y="1223.43" type="curve" smooth="yes"/>
      <point x="997.285" y="1223.43"/>
      <point x="1119.935" y="1175.225"/>
      <point x="1242.995" y="1109.02" type="curve"/>
      <point x="1232.695" y="1192.83" type="line"/>
      <point x="1131.72" y="1245.0349999999999"/>
      <point x="997.42" y="1298.855"/>
      <point x="766.19" y="1298.855" type="curve" smooth="yes"/>
      <point x="350.05999999999995" y="1298.855"/>
      <point x="134.315" y="1047.0600000000002"/>
      <point x="134.315" y="625.1450000000001" type="curve" smooth="yes"/>
      <point x="134.315" y="603.94" type="line" smooth="yes"/>
      <point x="134.315" y="208.82"/>
      <point x="383.435" y="-19.975"/>
    </contour>
  </outline>
</glyph>
<glyph name="seven" format="2">
  <advance width="1256.745"/>
  <unicode hex="0037"/>
  <outline>
    <contour>
      <point x="353.27" y="0.0" type="line"/>
      <point x="454.65500000000003" y="0.0" type="line"/>
      <point x="1173.13" y="1202.31" type="line"/>
      <point x="1173.13" y="1278.0" type="line"/>
      <point x="89.495" y="1278.0" type="line"/>
      <point x="89.495" y="1203.575" type="line"/>
      <point x="1077.54" y="1203.575" type="line"/>
    </contour>
  </outline>
</glyph>
<glyph name="eight" format="2">
  <advance width="1528.325"/>
  <unicode hex="0038"/>
  <outline>
    <contour>
      <point x="764.265" y="-28.445" type="curve" smooth="yes"/>
      <point x="1190.115" y="-28.445"/>
      <point x="1388.66" y="104.035"/>
      <point x="1388.66" y="328.795" type="curve" smooth="yes"/>
      <point x="1388.66" y="346.265" type="line" smooth="yes"/>
      <point x="1388.66" y="551.5799999999999"/>
      <point x="1196.5700000000002" y="655.17"/>
      <point x="972.0600000000001" y="671.735" type="curve"/>
      <point x="972.0600000000001" y="677.3249999999999" type="line"/>
      <point x="1174.6299999999999" y="681.1550000000001"/>
      <point x="1365.455" y="776.36"/>
      <point x="1365.455" y="961.205" type="curve" smooth="yes"/>
      <point x="1365.455" y="980.41" type="line" smooth="yes"/>
      <point x="1365.455" y="1190.675"/>
      <point x="1157.9850000000001" y="1304.12"/>
      <point x="764.265" y="1304.12" type="curve" smooth="yes"/>
      <point x="370.34" y="1304.12"/>
      <point x="162.87" y="1190.675"/>
      <point x="162.87" y="980.41" type="curve" smooth="yes"/>
      <point x="162.87" y="961.205" type="line" smooth="yes"/>
      <point x="162.87" y="775.36"/>
      <point x="352.96" y="681.1550000000001"/>
      <point x="556.265" y="677.3249999999999" type="curve"/>
      <point x="556.265" y="671.735" type="line"/>
      <point x="332.02" y="655.17"/>
      <point x="139.66500000000002" y="551.8449999999999"/>
      <point x="139.66500000000002" y="346.265" type="curve" smooth="yes"/>
      <point x="139.66500000000002" y="328.795" type="line" smooth="yes"/>
      <point x="139.66500000000002" y="100.85499999999999"/>
      <point x="342.715" y="-28.445"/>
    </contour>
    <contour>
      <point x="765.5899999999999" y="44.86" type="curve" smooth="yes"/>
      <point x="411.26" y="44.86"/>
      <point x="230.75000000000003" y="146.115"/>
      <point x="230.75000000000003" y="332.625" type="curve" smooth="yes"/>
      <point x="230.75000000000003" y="350.505" type="line" smooth="yes"/>
      <point x="230.75000000000003" y="533.69"/>
      <point x="413.14" y="633.475"/>
      <point x="761.8800000000001" y="636.9200000000001" type="curve"/>
      <point x="1112.8" y="633.21"/>
      <point x="1297.575" y="534.75"/>
      <point x="1297.575" y="350.505" type="curve" smooth="yes"/>
      <point x="1297.575" y="332.625" type="line" smooth="yes"/>
      <point x="1297.575" y="146.91"/>
      <point x="1118.125" y="44.86"/>
    </contour>
    <contour>
      <point x="766.9150000000001" y="702.985" type="curve"/>
      <point x="425.87499999999994" y="705.635"/>
      <point x="251.89499999999998" y="795.8050000000001"/>
      <point x="251.89499999999998" y="957.6400000000001" type="curve" smooth="yes"/>
      <point x="251.89499999999998" y="974.05" type="line" smooth="yes"/>
      <point x="251.89499999999998" y="1144.3549999999998"/>
      <point x="426.26000000000005" y="1232.9350000000002"/>
      <point x="764.265" y="1232.9350000000002" type="curve" smooth="yes"/>
      <point x="1102.33" y="1232.9350000000002"/>
      <point x="1276.4299999999998" y="1144.3549999999998"/>
      <point x="1276.4299999999998" y="973.52" type="curve" smooth="yes"/>
      <point x="1276.4299999999998" y="957.11" type="line" smooth="yes"/>
      <point x="1276.4299999999998" y="795.01"/>
      <point x="1099.065" y="705.635"/>
    </contour>
  </outline>
</glyph>
<glyph name="nine" format="2">
  <advance width="1442.72"/>
  <unicode hex="0039"/>
  <outline>
    <contour>
      <point x="687.685" y="1298.855" type="curve" smooth="yes"/>
      <point x="320.20500000000004" y="1298.855"/>
      <point x="123.375" y="1142.7949999999998"/>
      <point x="123.375" y="878.5550000000001" type="curve" smooth="yes"/>
      <point x="123.375" y="863.7600000000001" type="line" smooth="yes"/>
      <point x="123.375" y="611.2299999999999"/>
      <point x="298.22999999999996" y="468.375"/>
      <point x="628.52" y="468.375" type="curve" smooth="yes"/>
      <point x="958.3900000000001" y="468.375"/>
      <point x="1148.7050000000002" y="629.92"/>
      <point x="1213.32" y="806.09" type="curve"/>
      <point x="1231.8600000000001" y="806.09" type="line"/>
      <point x="1207.03" y="865.385" type="line"/>
      <point x="1127.355" y="682.635"/>
      <point x="943.63" y="539.15"/>
      <point x="650.66" y="539.15" type="curve" smooth="yes"/>
      <point x="358.00500000000005" y="539.15"/>
      <point x="212.87" y="656.755"/>
      <point x="212.87" y="865.88" type="curve" smooth="yes"/>
      <point x="212.87" y="876.35" type="line" smooth="yes"/>
      <point x="212.87" y="1092.6200000000001"/>
      <point x="372.68" y="1223.165"/>
      <point x="686.625" y="1223.165" type="curve" smooth="yes"/>
      <point x="1031.28" y="1223.165"/>
      <point x="1217.97" y="1033.27"/>
      <point x="1217.97" y="641.06" type="curve"/>
      <point x="1217.97" y="621.385" type="line" smooth="yes"/>
      <point x="1217.97" y="255.67000000000002"/>
      <point x="1033.125" y="55.45"/>
      <point x="640.11" y="55.45" type="curve" smooth="yes"/>
      <point x="433.41" y="55.45"/>
      <point x="306.90500000000003" y="104.655"/>
      <point x="190.17000000000002" y="165.39" type="curve"/>
      <point x="201.205" y="80.25500000000001" type="line"/>
      <point x="295.325" y="33.315"/>
      <point x="423.565" y="-19.71"/>
      <point x="645.94" y="-19.71" type="curve" smooth="yes"/>
      <point x="1089.1299999999999" y="-19.71"/>
      <point x="1307.73" y="211.41"/>
      <point x="1307.73" y="619.5300000000001" type="curve" smooth="yes"/>
      <point x="1307.73" y="640.0" type="line" smooth="yes"/>
      <point x="1307.73" y="1072.735"/>
      <point x="1091.8149999999998" y="1298.855"/>
    </contour>
  </outline>
</glyph>
<glyph name="less" format="2">
  <advance width="1391.3999999999999"/>
  <unicode hex="003C"/>
  <outline>
    <contour>
      <point x="225.825" y="623.555" type="line"/>
      <point x="1187.915" y="916.26" type="line"/>
      <point x="1187.915" y="996.275" type="line"/>
      <point x="159.375" y="677.1750000000001" type="line"/>
      <point x="159.375" y="544.73" type="line"/>
      <point x="1187.915" y="225.09999999999997" type="line"/>
      <point x="1187.915" y="305.38" type="line"/>
      <point x="225.825" y="598.8800000000001" type="line"/>
    </contour>
  </outline>
</glyph>
<glyph name="equal" format="2">
  <advance width="1379.99"/>
  <unicode hex="003D"/>
  <outline>
    <contour>
      <point x="177.04999999999998" y="329.305" type="line"/>
      <point x="1202.94" y="329.305" type="line"/>
      <point x="1202.94" y="399.87500000000006" type="line"/>
      <point x="177.04999999999998" y="399.87500000000006" type="line"/>
    </contour>
    <contour>
      <point x="177.04999999999998" y="822.9449999999999" type="line"/>
      <point x="1202.94" y="822.9449999999999" type="line"/>
      <point x="1202.94" y="893.515" type="line"/>
      <point x="177.04999999999998" y="893.515" type="line"/>
    </contour>
  </outline>
</glyph>
<glyph name="question" format="2">
  <advance width="1284.785"/>
  <unicode hex="003F"/>
  <outline>
    <contour>
      <point x="425.125" y="294.695" type="line"/>
      <point x="503.32" y="294.695" type="line"/>
      <point x="503.32" y="551.13" type="line"/>
      <point x="467.49" y="520.205" type="line"/>
      <point x="628.1800000000001" y="523.205" type="line"/>
      <point x="990.025" y="529.47"/>
      <point x="1159.53" y="666.9050000000001"/>
      <point x="1159.53" y="914.615" type="curve" smooth="yes"/>
      <point x="1159.53" y="931.085" type="line" smooth="yes"/>
      <point x="1159.53" y="1164.915"/>
      <point x="1003.845" y="1297.385"/>
      <point x="643.87" y="1297.385" type="curve" smooth="yes"/>
      <point x="389.495" y="1297.385"/>
      <point x="201.29" y="1210.215"/>
      <point x="101.55499999999999" y="1141.72" type="curve"/>
      <point x="90.99" y="1062.62" type="line"/>
      <point x="217.82" y="1146.585"/>
      <point x="412.11" y="1223.225"/>
      <point x="637.245" y="1223.225" type="curve" smooth="yes"/>
      <point x="951.84" y="1223.225"/>
      <point x="1072.71" y="1115.415"/>
      <point x="1072.71" y="928.7" type="curve" smooth="yes"/>
      <point x="1072.71" y="914.2900000000001" type="line" smooth="yes"/>
      <point x="1072.71" y="707.02"/>
      <point x="926.6949999999999" y="593.4150000000001"/>
      <point x="604.125" y="587.415" type="curve" smooth="yes"/>
      <point x="425.125" y="584.1500000000001" type="line"/>
    </contour>
    <contour>
      <point x="463.85499999999996" y="-16.915" type="curve" smooth="yes"/>
      <point x="516.43" y="-16.915"/>
      <point x="543.7900000000001" y="7.9750000000000005"/>
      <point x="543.7900000000001" y="53.045" type="curve" smooth="yes"/>
      <point x="543.7900000000001" y="57.045" type="line" smooth="yes"/>
      <point x="543.7900000000001" y="101.38"/>
      <point x="516.43" y="125.53499999999998"/>
      <point x="463.85499999999996" y="125.53499999999998" type="curve" smooth="yes"/>
      <point x="413.485" y="125.53499999999998"/>
      <point x="385.65500000000003" y="101.38"/>
      <point x="385.65500000000003" y="57.045" type="curve" smooth="yes"/>
      <point x="385.65500000000003" y="53.045" type="line" smooth="yes"/>
      <point x="385.65500000000003" y="7.9750000000000005"/>
      <point x="413.485" y="-16.915"/>
    </contour>
  </outline>
</glyph>
<glyph name="at" format="2">
  <advance width="2057.83"/>
  <unicode hex="0040"/>
  <outline>
    <contour>
      <point x="960.75" y="81.75999999999999" type="curve" smooth="yes"/>
      <point x="1175.475" y="81.75999999999999"/>
      <point x="1312.84" y="202.425"/>
      <point x="1348.345" y="352.29499999999996" type="curve"/>
      <point x="1369.595" y="352.29499999999996" type="line"/>
      <point x="1353.5" y="426.385" type="line"/>
      <point x="1313.825" y="270.96"/>
      <point x="1169.8700000000001" y="151.535"/>
      <point x="995.155" y="151.535" type="curve" smooth="yes"/>
      <point x="815.5" y="151.535"/>
      <point x="711.365" y="237.32"/>
      <point x="711.365" y="419.77" type="curve" smooth="yes"/>
      <point x="711.365" y="422.77"/>
      <point x="711.365" y="425.035"/>
      <point x="711.365" y="428.035" type="curve" smooth="yes"/>
      <point x="714.1" y="661.715"/>
      <point x="832.85" y="820.405"/>
      <point x="1061.325" y="820.405" type="curve" smooth="yes"/>
      <point x="1224.255" y="820.405"/>
      <point x="1359.5" y="732.38"/>
      <point x="1359.235" y="537.28" type="curve" smooth="yes"/>
      <point x="1359.235" y="530.28"/>
      <point x="1359.235" y="523.015"/>
      <point x="1359.2350000000001" y="515.75" type="curve"/>
      <point x="1394.835" y="592.33" type="line"/>
      <point x="1370.115" y="592.33" type="line"/>
      <point x="1374.72" y="779.6"/>
      <point x="1247.15" y="888.3249999999999"/>
      <point x="1043.895" y="888.3249999999999" type="curve" smooth="yes"/>
      <point x="777.28" y="888.3249999999999"/>
      <point x="630.52" y="703.025"/>
      <point x="627.785" y="418.0" type="curve" smooth="yes"/>
      <point x="627.7850000000001" y="415.0"/>
      <point x="627.785" y="411.0"/>
      <point x="627.785" y="408.0" type="curve" smooth="yes"/>
      <point x="627.785" y="195.555"/>
      <point x="759.195" y="81.75999999999999"/>
    </contour>
    <contour>
      <point x="1312.5600000000002" y="101.16999999999999" type="line"/>
      <point x="1393.9599999999998" y="112.83000000000001" type="line"/>
      <point x="1469.3100000000002" y="866.795" type="line"/>
      <point x="1390.705" y="866.795" type="line"/>
      <point x="1389.7050000000002" y="858.47" type="line"/>
      <point x="1368.5" y="618.3000000000001" type="line"/>
      <point x="1367.03" y="597.855" type="line"/>
      <point x="1343.7649999999999" y="376.40999999999997" type="line"/>
      <point x="1343.5" y="358.255" type="line"/>
    </contour>
    <contour>
      <point x="1369.745" y="165.765" type="curve"/>
      <point x="1312.5600000000002" y="101.16999999999999" type="line"/>
      <point x="1347.535" y="95.17"/>
      <point x="1371.245" y="95.435"/>
      <point x="1415.775" y="95.43499999999999" type="curve" smooth="yes"/>
      <point x="1729.745" y="95.435"/>
      <point x="1931.635" y="248.29000000000002"/>
      <point x="1931.6350000000002" y="621.7950000000001" type="curve" smooth="yes"/>
      <point x="1931.635" y="624.855"/>
      <point x="1931.635" y="627.915"/>
      <point x="1931.635" y="630.7099999999999" type="curve" smooth="yes"/>
      <point x="1929.9" y="1064.83"/>
      <point x="1635.6000000000001" y="1307.745"/>
      <point x="1101.71" y="1307.745" type="curve" smooth="yes"/>
      <point x="493.205" y="1307.745"/>
      <point x="147.60500000000002" y="973.1550000000001"/>
      <point x="144.87" y="385.62500000000006" type="curve" smooth="yes"/>
      <point x="144.87" y="382.095"/>
      <point x="144.87" y="378.565"/>
      <point x="144.87" y="374.77" type="curve" smooth="yes"/>
      <point x="144.87" y="-103.50500000000001"/>
      <point x="443.28999999999996" y="-364.445"/>
      <point x="987.5649999999999" y="-364.445" type="curve" smooth="yes"/>
      <point x="1314.915" y="-364.445"/>
      <point x="1560.4950000000001" y="-297.42"/>
      <point x="1727.65" y="-175.755" type="curve"/>
      <point x="1743.07" y="-89.89500000000001" type="line"/>
      <point x="1578.94" y="-226.885"/>
      <point x="1325.675" y="-300.645"/>
      <point x="996.985" y="-300.645" type="curve" smooth="yes"/>
      <point x="490.79" y="-300.645"/>
      <point x="220.56" y="-63.63000000000001"/>
      <point x="220.56" y="376.83" type="curve" smooth="yes"/>
      <point x="220.56" y="379.09499999999997"/>
      <point x="220.56" y="382.625"/>
      <point x="220.56" y="385.15500000000003" type="curve" smooth="yes"/>
      <point x="223.03000000000003" y="937.9549999999999"/>
      <point x="532.6099999999999" y="1244.5349999999999"/>
      <point x="1097.5900000000001" y="1244.5349999999999" type="curve" smooth="yes"/>
      <point x="1591.34" y="1244.5349999999999"/>
      <point x="1853.475" y="1027.0749999999998"/>
      <point x="1855.945" y="631.445" type="curve" smooth="yes"/>
      <point x="1855.9450000000002" y="628.65"/>
      <point x="1855.945" y="624.5899999999999"/>
      <point x="1855.945" y="621.7950000000001" type="curve" smooth="yes"/>
      <point x="1855.945" y="293.73"/>
      <point x="1694.4" y="161.5"/>
      <point x="1440.6000000000001" y="161.5" type="curve" smooth="yes"/>
      <point x="1403.805" y="161.5"/>
      <point x="1387.805" y="163.235"/>
    </contour>
  </outline>
</glyph>
<glyph name="A" format="2">
  <advance width="1550.67"/>
  <unicode hex="0041"/>
  <anchor x="775.335" y="0.0" name="bottom"/>
  <anchor x="1522.295" y="1.3250000000000002" name="ogonek"/>
  <anchor x="775.335" y="1278.0" name="top"/>
  <outline>
    <contour>
      <point x="72.725" y="0.0" type="line"/>
      <point x="164.81" y="0.0" type="line"/>
      <point x="759.13" y="1217.38" type="line"/>
      <point x="792.6" y="1217.38" type="line"/>
      <point x="1385.86" y="0.0" type="line"/>
      <point x="1477.945" y="0.0" type="line"/>
      <point x="851.255" y="1278.0" type="line"/>
      <point x="700.475" y="1278.0" type="line"/>
    </contour>
    <contour>
      <point x="349.63500000000005" y="422.35499999999996" type="line"/>
      <point x="1201.0349999999999" y="422.35499999999996" type="line"/>
      <point x="1201.0349999999999" y="495.045" type="line"/>
      <point x="349.63500000000005" y="495.045" type="line"/>
    </contour>
  </outline>
</glyph>
<glyph name="B" format="2">
  <advance width="1599.18"/>
  <unicode hex="0042"/>
  <anchor x="800.12" y="0.0" name="bottom"/>
  <anchor x="800.12" y="1278.0" name="top"/>
  <outline>
    <contour>
      <point x="278.115" y="0.0" type="line"/>
      <point x="1060.1699999999998" y="0.0" type="line" smooth="yes"/>
      <point x="1340.155" y="0.0"/>
      <point x="1466.19" y="133.52999999999997"/>
      <point x="1466.19" y="333.89" type="curve" smooth="yes"/>
      <point x="1466.19" y="354.29999999999995" type="line" smooth="yes"/>
      <point x="1466.19" y="550.445"/>
      <point x="1350.8999999999999" y="672.35"/>
      <point x="1112.125" y="678.9749999999999" type="curve"/>
      <point x="1098.8950000000002" y="671.07" type="line"/>
      <point x="1321.02" y="674.78"/>
      <point x="1424.7200000000003" y="790.89"/>
      <point x="1424.7200000000003" y="954.0" type="curve" smooth="yes"/>
      <point x="1424.7200000000003" y="972.675" type="line" smooth="yes"/>
      <point x="1424.7200000000003" y="1157.9150000000002"/>
      <point x="1303.5400000000002" y="1278.0"/>
      <point x="1030.7" y="1278.0" type="curve" smooth="yes"/>
      <point x="278.115" y="1278.0" type="line"/>
      <point x="278.115" y="1205.8400000000001" type="line"/>
      <point x="1026.315" y="1205.8400000000001" type="line" smooth="yes"/>
      <point x="1243.175" y="1205.8400000000001"/>
      <point x="1335.9599999999998" y="1109.97"/>
      <point x="1335.9599999999998" y="960.0749999999999" type="curve" smooth="yes"/>
      <point x="1335.9599999999998" y="945.135" type="line" smooth="yes"/>
      <point x="1335.9599999999998" y="799.77"/>
      <point x="1243.175" y="697.96"/>
      <point x="1041.015" y="697.96" type="curve" smooth="yes"/>
      <point x="278.115" y="697.96" type="line"/>
      <point x="278.115" y="626.86" type="line"/>
      <point x="1048.785" y="626.86" type="line" smooth="yes"/>
      <point x="1282.26" y="626.86"/>
      <point x="1375.8400000000001" y="523.05"/>
      <point x="1375.8400000000001" y="356.54" type="curve" smooth="yes"/>
      <point x="1375.8400000000001" y="339.865" type="line" smooth="yes"/>
      <point x="1375.8400000000001" y="178.29500000000002"/>
      <point x="1278.79" y="72.955"/>
      <point x="1054.725" y="72.955" type="curve" smooth="yes"/>
      <point x="278.115" y="72.955" type="line"/>
    </contour>
    <contour>
      <point x="222.48499999999999" y="0.0" type="line"/>
      <point x="309.185" y="0.0" type="line"/>
      <point x="309.185" y="1278.0" type="line"/>
      <point x="222.48499999999999" y="1278.0" type="line"/>
    </contour>
  </outline>
</glyph>
<glyph name="C" format="2">
  <advance width="1520.195"/>
  <unicode hex="0043"/>
  <anchor x="821.29" y="0.0" name="bottom"/>
  <anchor x="821.29" y="1278.0" name="top"/>
  <outline>
    <contour>
      <point x="838.3" y="-24.18" type="curve" smooth="yes"/>
      <point x="1093.025" y="-24.18"/>
      <point x="1275.3149999999998" y="63.075"/>
      <point x="1375.7" y="138.305" type="curve"/>
      <point x="1384.41" y="223.645" type="line"/>
      <point x="1259.145" y="131.005"/>
      <point x="1083.265" y="52.30500000000001"/>
      <point x="841.865" y="52.30500000000001" type="curve" smooth="yes"/>
      <point x="438.885" y="52.30500000000001"/>
      <point x="225.66500000000002" y="261.64500000000004"/>
      <point x="225.66500000000002" y="630.06" type="curve" smooth="yes"/>
      <point x="225.66500000000002" y="650.53" type="line" smooth="yes"/>
      <point x="225.66500000000002" y="1018.8850000000001"/>
      <point x="439.15000000000003" y="1226.225"/>
      <point x="826.8050000000001" y="1226.225" type="curve" smooth="yes"/>
      <point x="1070.9150000000002" y="1226.225"/>
      <point x="1248.145" y="1144.79"/>
      <point x="1370.675" y="1055.355" type="curve"/>
      <point x="1360.9650000000001" y="1139.96" type="line"/>
      <point x="1263.52" y="1212.9850000000001"/>
      <point x="1081.76" y="1302.18"/>
      <point x="824.0949999999999" y="1302.18" type="curve" smooth="yes"/>
      <point x="379.435" y="1302.18"/>
      <point x="134.05" y="1065.53"/>
      <point x="134.05" y="650.265" type="curve" smooth="yes"/>
      <point x="134.05" y="629.795" type="line" smooth="yes"/>
      <point x="134.05" y="213.20499999999998"/>
      <point x="379.96500000000003" y="-24.18"/>
    </contour>
  </outline>
</glyph>
<glyph name="D" format="2">
  <advance width="1621.0349999999999"/>
  <unicode hex="0044"/>
  <anchor x="795.06" y="0.0" name="bottom"/>
  <anchor x="810.65" y="639.0" name="center"/>
  <anchor x="795.06" y="1278.0" name="top"/>
  <outline>
    <contour>
      <point x="287.52500000000003" y="0.0" type="line"/>
      <point x="805.8900000000001" y="0.0" type="line" smooth="yes"/>
      <point x="1246.455" y="0.0"/>
      <point x="1487.515" y="226.0"/>
      <point x="1487.515" y="629.53" type="curve" smooth="yes"/>
      <point x="1487.515" y="650.265" type="line" smooth="yes"/>
      <point x="1487.515" y="1053.2649999999999"/>
      <point x="1246.455" y="1278.0"/>
      <point x="805.8900000000001" y="1278.0" type="curve" smooth="yes"/>
      <point x="277.85" y="1278.0" type="line"/>
      <point x="277.85" y="1205.045" type="line"/>
      <point x="804.035" y="1205.045" type="line" smooth="yes"/>
      <point x="1189.27" y="1205.045"/>
      <point x="1396.165" y="1007.765"/>
      <point x="1396.165" y="650.0" type="curve" smooth="yes"/>
      <point x="1396.165" y="629.53" type="line" smooth="yes"/>
      <point x="1396.165" y="273.23499999999996"/>
      <point x="1189.27" y="72.95500000000001"/>
      <point x="804.035" y="72.95500000000001" type="curve" smooth="yes"/>
      <point x="287.52500000000003" y="72.95500000000001" type="line"/>
    </contour>
    <contour>
      <point x="222.48499999999999" y="0.0" type="line"/>
      <point x="310.98" y="0.0" type="line"/>
      <point x="310.98" y="1278.0" type="line"/>
      <point x="222.48499999999999" y="1278.0" type="line"/>
    </contour>
  </outline>
</glyph>
<glyph name="E" format="2">
  <advance width="1464.915"/>
  <unicode hex="0045"/>
  <anchor x="778.145" y="0.0" name="bottom"/>
  <anchor x="1357.8549999999998" y="1.3250000000000002" name="ogonek"/>
  <anchor x="778.145" y="1278.0" name="top"/>
  <anchor x="20.0" y="1278.0" name="topleft"/>
  <outline>
    <contour>
      <point x="222.48499999999999" y="0.0" type="line"/>
      <point x="309.185" y="0.0" type="line"/>
      <point x="309.185" y="1278.0" type="line"/>
      <point x="222.48499999999999" y="1278.0" type="line"/>
    </contour>
    <contour>
      <point x="241.57" y="0.0" type="line"/>
      <point x="1318.07" y="0.0" type="line"/>
      <point x="1318.07" y="72.95500000000001" type="line"/>
      <point x="241.57" y="72.95500000000001" type="line"/>
    </contour>
    <contour>
      <point x="268.865" y="615.86" type="line"/>
      <point x="1282.54" y="615.86" type="line"/>
      <point x="1282.54" y="688.02" type="line"/>
      <point x="268.865" y="688.02" type="line"/>
    </contour>
    <contour>
      <point x="241.57" y="1205.045" type="line"/>
      <point x="1307.0099999999998" y="1205.045" type="line"/>
      <point x="1307.0099999999998" y="1278.0" type="line"/>
      <point x="241.57" y="1278.0" type="line"/>
    </contour>
  </outline>
</glyph>
<glyph name="F" format="2">
  <advance width="1405.385"/>
  <unicode hex="0046"/>
  <anchor x="703.3249999999999" y="0.0" name="bottom"/>
  <anchor x="703.3249999999999" y="1278.0" name="top"/>
  <outline>
    <contour>
      <point x="222.48499999999999" y="0.0" type="line"/>
      <point x="310.185" y="0.0" type="line"/>
      <point x="310.185" y="1278.0" type="line"/>
      <point x="222.48499999999999" y="1278.0" type="line"/>
    </contour>
    <contour>
      <point x="268.865" y="578.115" type="line"/>
      <point x="1258.48" y="578.115" type="line"/>
      <point x="1258.48" y="651.0699999999999" type="line"/>
      <point x="268.865" y="651.0699999999999" type="line"/>
    </contour>
    <contour>
      <point x="241.57" y="1205.045" type="line"/>
      <point x="1277.7450000000001" y="1205.045" type="line"/>
      <point x="1277.7450000000001" y="1278.0" type="line"/>
      <point x="241.57" y="1278.0" type="line"/>
    </contour>
  </outline>
</glyph>
<glyph name="G" format="2">
  <advance width="1674.1200000000001"/>
  <unicode hex="0047"/>
  <anchor x="837.06" y="0.0" name="bottom"/>
  <anchor x="837.06" y="1278.0" name="top"/>
  <outline>
    <contour>
      <point x="828.8100000000001" y="-24.18" type="curve" smooth="yes"/>
      <point x="1176.4150000000002" y="-24.18"/>
      <point x="1348.49" y="143.835"/>
      <point x="1396.4299999999998" y="296.715" type="curve"/>
      <point x="1476.985" y="296.71500000000003" type="line"/>
      <point x="1476.985" y="675.31" type="line"/>
      <point x="864.795" y="675.31" type="line"/>
      <point x="864.795" y="603.885" type="line"/>
      <point x="1411.79" y="604.415" type="line"/>
      <point x="1392.61" y="640.665" type="line"/>
      <point x="1392.61" y="365.83" type="line"/>
      <point x="1335.4050000000002" y="196.26"/>
      <point x="1153.125" y="51.775000000000006"/>
      <point x="848.3" y="51.775000000000006" type="curve" smooth="yes"/>
      <point x="445.09" y="51.775000000000006"/>
      <point x="225.66500000000002" y="260.115"/>
      <point x="225.66500000000002" y="628.735" type="curve" smooth="yes"/>
      <point x="225.66500000000002" y="649.2049999999999" type="line" smooth="yes"/>
      <point x="225.66500000000002" y="1017.2099999999999"/>
      <point x="445.475" y="1225.96"/>
      <point x="853.6949999999999" y="1225.96" type="curve" smooth="yes"/>
      <point x="1117.335" y="1225.96"/>
      <point x="1310.1549999999997" y="1144.525"/>
      <point x="1443.395" y="1055.0900000000001" type="curve"/>
      <point x="1433.155" y="1138.1049999999998" type="line"/>
      <point x="1324.53" y="1212.455"/>
      <point x="1128.18" y="1302.18"/>
      <point x="849.6" y="1302.18" type="curve" smooth="yes"/>
      <point x="385.29" y="1302.18"/>
      <point x="134.05" y="1061.795"/>
      <point x="134.05" y="648.4100000000001" type="curve" smooth="yes"/>
      <point x="134.05" y="628.205" type="line" smooth="yes"/>
      <point x="134.05" y="211.14499999999998"/>
      <point x="385.90500000000003" y="-24.18"/>
    </contour>
    <contour>
      <point x="1396.8750000000002" y="318.81" type="line"/>
      <point x="1391.55" y="0.0" type="line"/>
      <point x="1476.985" y="0.0" type="line"/>
      <point x="1476.985" y="318.81" type="line"/>
    </contour>
  </outline>
</glyph>
<glyph name="H" format="2">
  <advance width="1665.9499999999998"/>
  <unicode hex="0048"/>
  <anchor x="832.975" y="0.0" name="bottom"/>
  <anchor x="832.975" y="639.0" name="center"/>
  <anchor x="832.975" y="1278.0" name="top"/>
  <anchor x="20.0" y="1278.0" name="topleft"/>
  <outline>
    <contour>
      <point x="310.97999999999996" y="0.0" type="line"/>
      <point x="310.97999999999996" y="1278.0" type="line"/>
      <point x="222.48499999999999" y="1278.0" type="line"/>
      <point x="222.48499999999999" y="0.0" type="line"/>
    </contour>
    <contour>
      <point x="1443.465" y="0.0" type="line"/>
      <point x="1443.465" y="1278.0" type="line"/>
      <point x="1354.97" y="1278.0" type="line"/>
      <point x="1354.97" y="0.0" type="line"/>
    </contour>
    <contour>
      <point x="269.865" y="698.285" type="line"/>
      <point x="269.865" y="624.5949999999999" type="line"/>
      <point x="1397.11" y="624.5949999999999" type="line"/>
      <point x="1397.11" y="698.285" type="line"/>
    </contour>
  </outline>
</glyph>
<glyph name="I" format="2">
  <advance width="540.405"/>
  <unicode hex="0049"/>
  <anchor x="270.335" y="0.0" name="bottom"/>
  <anchor x="359.8" y="1.3250000000000002" name="ogonek"/>
  <anchor x="270.335" y="1278.0" name="top"/>
  <anchor x="20.0" y="1278.0" name="topleft"/>
  <outline>
    <contour>
      <point x="314.45" y="0.0" type="line"/>
      <point x="314.45" y="1278.0" type="line"/>
      <point x="225.95499999999998" y="1278.0" type="line"/>
      <point x="225.95499999999998" y="0.0" type="line"/>
    </contour>
  </outline>
</glyph>
<glyph name="J" format="2">
  <advance width="1178.4250000000002"/>
  <unicode hex="004A"/>
  <anchor x="590.845" y="0.0" name="bottom"/>
  <anchor x="922.03" y="1278.0" name="top"/>
  <outline>
    <contour>
      <point x="475.81" y="-10.855" type="curve" smooth="yes"/>
      <point x="835.375" y="-10.855"/>
      <point x="967.675" y="153.265"/>
      <point x="967.675" y="473.42" type="curve" smooth="yes"/>
      <point x="967.675" y="1278.0" type="line"/>
      <point x="879.1800000000001" y="1278.0" type="line"/>
      <point x="879.1800000000001" y="476.07" type="line" smooth="yes"/>
      <point x="879.1800000000001" y="198.68"/>
      <point x="770.0699999999999" y="66.69"/>
      <point x="470.65500000000003" y="66.69" type="curve" smooth="yes"/>
      <point x="340.83500000000004" y="66.69"/>
      <point x="212.545" y="92.69"/>
      <point x="98.05" y="146.18499999999997" type="curve"/>
      <point x="108.08500000000001" y="62.64" type="line"/>
      <point x="210.23" y="16.29"/>
      <point x="341.58" y="-10.855"/>
    </contour>
  </outline>
</glyph>
<glyph name="K" format="2">
  <advance width="1514.7450000000001"/>
  <unicode hex="004B"/>
  <anchor x="757.505" y="0.0" name="bottom"/>
  <anchor x="757.505" y="1278.0" name="top"/>
  <outline>
    <contour>
      <point x="1307.045" y="0.0" type="line"/>
      <point x="1432.525" y="0.0" type="line"/>
      <point x="622.7" y="670.625" type="line"/>
      <point x="622.7" y="637.88" type="line"/>
      <point x="1416.5249999999999" y="1278.0" type="line"/>
      <point x="1297.37" y="1278.0" type="line"/>
      <point x="561.54" y="688.4050000000001" type="line"/>
      <point x="298.065" y="688.4050000000001" type="line"/>
      <point x="298.065" y="614.39" type="line"/>
      <point x="559.275" y="614.39" type="line"/>
    </contour>
    <contour>
      <point x="222.48499999999999" y="0.0" type="line"/>
      <point x="310.715" y="0.0" type="line"/>
      <point x="310.715" y="1278.0" type="line"/>
      <point x="222.48499999999999" y="1278.0" type="line"/>
    </contour>
  </outline>
</glyph>
<glyph name="L" format="2">
  <advance width="1365.145"/>
  <unicode hex="004C"/>
  <anchor x="740.0250000000001" y="0.0" name="bottom"/>
  <anchor x="682.94" y="639.0" name="center"/>
  <anchor x="266.865" y="1278.0" name="top"/>
  <anchor x="953.98" y="1278.0" name="topright"/>
  <outline>
    <contour>
      <point x="310.97999999999996" y="0.0" type="line"/>
      <point x="310.97999999999996" y="1278.0" type="line"/>
      <point x="222.48499999999999" y="1278.0" type="line"/>
      <point x="222.48499999999999" y="0.0" type="line"/>
    </contour>
    <contour>
      <point x="268.865" y="73.48500000000001" type="line"/>
      <point x="268.865" y="0.0" type="line"/>
      <point x="1269.9149999999997" y="0.0" type="line"/>
      <point x="1269.9149999999997" y="73.48500000000001" type="line"/>
    </contour>
  </outline>
</glyph>
<glyph name="M" format="2">
  <advance width="1949.6000000000001"/>
  <unicode hex="004D"/>
  <anchor x="975.3000000000001" y="0.0" name="bottom"/>
  <anchor x="975.3000000000001" y="1278.0" name="top"/>
  <outline>
    <contour>
      <point x="176.46" y="0.0" type="line"/>
      <point x="264.425" y="0.0" type="line"/>
      <point x="311.39" y="618.2099999999999" type="line"/>
      <point x="354.56" y="1193.6499999999999" type="line"/>
      <point x="383.5" y="1193.6499999999999" type="line"/>
      <point x="918.1" y="159.20499999999998" type="line"/>
      <point x="1031.7649999999999" y="159.20499999999998" type="line"/>
      <point x="1565.8349999999998" y="1193.6499999999999" type="line"/>
      <point x="1594.51" y="1193.6499999999999" type="line"/>
      <point x="1637.9450000000002" y="617.2099999999999" type="line"/>
      <point x="1685.175" y="0.0" type="line"/>
      <point x="1773.1399999999999" y="0.0" type="line"/>
      <point x="1670.44" y="1278.0" type="line"/>
      <point x="1520.37" y="1278.0" type="line"/>
      <point x="985.24" y="240.375" type="line"/>
      <point x="964.095" y="240.375" type="line"/>
      <point x="429.495" y="1278.0" type="line"/>
      <point x="279.16" y="1278.0" type="line"/>
    </contour>
  </outline>
</glyph>
<glyph name="N" format="2">
  <advance width="1665.9499999999998"/>
  <unicode hex="004E"/>
  <anchor x="832.975" y="0.0" name="bottom"/>
  <anchor x="832.975" y="1278.0" name="top"/>
  <outline>
    <contour>
      <point x="365.94" y="1278.0" type="line"/>
      <point x="222.48499999999999" y="1278.0" type="line"/>
      <point x="222.48499999999999" y="0.0" type="line"/>
      <point x="310.98" y="0.0" type="line"/>
      <point x="310.98" y="588.065" type="line"/>
      <point x="308.125" y="1201.48" type="line"/>
      <point x="326.125" y="1201.48" type="line"/>
      <point x="1303.455" y="0.0" type="line"/>
      <point x="1443.465" y="0.0" type="line"/>
      <point x="1443.465" y="1278.0" type="line"/>
      <point x="1355.235" y="1278.0" type="line"/>
      <point x="1355.235" y="622.835" type="line"/>
      <point x="1358.09" y="81.29" type="line"/>
      <point x="1340.0900000000001" y="81.29" type="line"/>
    </contour>
  </outline>
</glyph>
<glyph name="O" format="2">
  <advance width="1663.865"/>
  <unicode hex="004F"/>
  <anchor x="832.3000000000001" y="0.0" name="bottom"/>
  <anchor x="832.3000000000001" y="639.0" name="center"/>
  <anchor x="1099.1000000000001" y="1.3250000000000002" name="ogonek"/>
  <anchor x="832.3000000000001" y="1278.0" name="top"/>
  <anchor x="20.0" y="1278.0" name="topleft"/>
  <anchor x="1295.0500000000002" y="1278.0" name="topright"/>
  <outline>
    <contour>
      <point x="831.565" y="-24.18" type="curve" smooth="yes"/>
      <point x="1281.31" y="-24.18"/>
      <point x="1529.815" y="211.675"/>
      <point x="1529.815" y="629.53" type="curve" smooth="yes"/>
      <point x="1529.815" y="649.47" type="line" smooth="yes"/>
      <point x="1530.5500000000002" y="1067.325"/>
      <point x="1281.31" y="1302.1799999999998"/>
      <point x="831.565" y="1302.1799999999998" type="curve" smooth="yes"/>
      <point x="382.555" y="1302.1799999999998"/>
      <point x="134.05" y="1067.325"/>
      <point x="134.05" y="649.47" type="curve" smooth="yes"/>
      <point x="134.05" y="629.53" type="line" smooth="yes"/>
      <point x="134.05" y="211.675"/>
      <point x="382.555" y="-24.18"/>
    </contour>
    <contour>
      <point x="831.565" y="51.51" type="curve" smooth="yes"/>
      <point x="436.825" y="51.51"/>
      <point x="225.66500000000002" y="260.90999999999997"/>
      <point x="225.66500000000002" y="629.265" type="curve" smooth="yes"/>
      <point x="225.66500000000002" y="649.735" type="line" smooth="yes"/>
      <point x="225.66500000000002" y="1018.56"/>
      <point x="436.825" y="1226.49"/>
      <point x="831.565" y="1226.49" type="curve" smooth="yes"/>
      <point x="1226.775" y="1226.49"/>
      <point x="1438.2" y="1018.56"/>
      <point x="1438.2" y="649.735" type="curve" smooth="yes"/>
      <point x="1438.2" y="629.265" type="line" smooth="yes"/>
      <point x="1438.2" y="260.90999999999997"/>
      <point x="1226.775" y="51.51"/>
    </contour>
  </outline>
</glyph>
<glyph name="P" format="2">
  <advance width="1514.975"/>
  <unicode hex="0050"/>
  <anchor x="757.855" y="0.0" name="bottom"/>
  <anchor x="757.855" y="1278.0" name="top"/>
  <outline>
    <contour>
      <point x="287.465" y="465.715" type="line"/>
      <point x="943.3399999999999" y="465.715" type="line" smooth="yes"/>
      <point x="1255.3" y="465.715"/>
      <point x="1399.455" y="623.3050000000001"/>
      <point x="1399.455" y="861.255" type="curve" smooth="yes"/>
      <point x="1399.455" y="882.9300000000001" type="line" smooth="yes"/>
      <point x="1399.455" y="1121.675"/>
      <point x="1255.3" y="1278.0"/>
      <point x="943.34" y="1278.0" type="curve" smooth="yes"/>
      <point x="277.79" y="1278.0" type="line"/>
      <point x="277.79" y="1205.3100000000002" type="line"/>
      <point x="941.87" y="1205.3100000000002" type="line" smooth="yes"/>
      <point x="1198.3200000000002" y="1205.3100000000002"/>
      <point x="1309.105" y="1079.2949999999998"/>
      <point x="1309.105" y="881.4599999999999" type="curve" smooth="yes"/>
      <point x="1309.105" y="862.255" type="line" smooth="yes"/>
      <point x="1309.105" y="664.42"/>
      <point x="1198.32" y="538.67"/>
      <point x="941.87" y="538.67" type="curve" smooth="yes"/>
      <point x="287.465" y="538.67" type="line"/>
    </contour>
    <contour>
      <point x="222.48499999999999" y="0.0" type="line"/>
      <point x="310.185" y="0.0" type="line"/>
      <point x="310.185" y="479.545" type="line"/>
      <point x="310.185" y="515.9499999999999" type="line"/>
      <point x="310.185" y="1278.0" type="line"/>
      <point x="222.48499999999999" y="1278.0" type="line"/>
    </contour>
  </outline>
</glyph>
<glyph name="Q" format="2">
  <advance width="1665.6"/>
  <unicode hex="0051"/>
  <anchor x="833.3" y="0.0" name="bottom"/>
  <anchor x="833.3" y="1278.0" name="top"/>
  <outline>
    <contour>
      <point x="1645.695" y="-36.36" type="line"/>
      <point x="1645.695" y="43.714999999999996" type="line"/>
      <point x="977.6949999999999" y="42.800000000000004" type="line"/>
      <point x="982.8399999999999" y="40.835" type="line"/>
      <point x="1272.05" y="63.665000000000006"/>
      <point x="1529.815" y="248.74"/>
      <point x="1529.815" y="632.71" type="curve" smooth="yes"/>
      <point x="1529.815" y="652.12" type="line" smooth="yes"/>
      <point x="1529.815" y="1066.0"/>
      <point x="1281.8400000000001" y="1302.1799999999998"/>
      <point x="831.565" y="1302.1799999999998" type="curve" smooth="yes"/>
      <point x="382.555" y="1302.1799999999998"/>
      <point x="134.05" y="1067.325"/>
      <point x="134.05" y="649.735" type="curve" smooth="yes"/>
      <point x="134.05" y="632.265" type="line" smooth="yes"/>
      <point x="134.05" y="218.14499999999998"/>
      <point x="390.375" y="-13.385000000000002"/>
      <point x="881.455" y="-22.24" type="curve" smooth="yes"/>
    </contour>
    <contour>
      <point x="872.9749999999999" y="51.775" type="line" smooth="yes"/>
      <point x="468.62" y="53.895"/>
      <point x="225.66500000000002" y="265.055"/>
      <point x="225.66500000000002" y="629.795" type="curve" smooth="yes"/>
      <point x="225.66500000000002" y="649.735" type="line" smooth="yes"/>
      <point x="225.66500000000002" y="1018.56"/>
      <point x="437.09" y="1226.49"/>
      <point x="831.3" y="1226.49" type="curve" smooth="yes"/>
      <point x="1226.51" y="1226.49"/>
      <point x="1438.2" y="1018.56"/>
      <point x="1438.2" y="649.735" type="curve" smooth="yes"/>
      <point x="1438.2" y="630.0600000000001" type="line" smooth="yes"/>
      <point x="1438.2" y="242.06499999999997"/>
      <point x="1170.4600000000003" y="83.63"/>
      <point x="897.0699999999999" y="51.51" type="curve"/>
    </contour>
  </outline>
</glyph>
<glyph name="R" format="2">
  <advance width="1570.855"/>
  <unicode hex="0052"/>
  <anchor x="796.06" y="0.0" name="bottom"/>
  <anchor x="786.06" y="1278.0" name="top"/>
  <outline>
    <contour>
      <point x="1339.9" y="0.0" type="line"/>
      <point x="1432.84" y="0.0" type="line"/>
      <point x="1378.1049999999998" y="257.34999999999997" type="line" smooth="yes"/>
      <point x="1335.5149999999999" y="457.97499999999997"/>
      <point x="1265.635" y="598.3499999999999"/>
      <point x="1006.635" y="601.7950000000001" type="curve"/>
      <point x="1062.305" y="590.11" type="line"/>
      <point x="1062.305" y="591.385" type="line"/>
      <point x="1308.7549999999999" y="598.54"/>
      <point x="1418.805" y="730.205"/>
      <point x="1418.805" y="916.495" type="curve" smooth="yes"/>
      <point x="1418.805" y="933.435" type="line" smooth="yes"/>
      <point x="1418.805" y="1141.795"/>
      <point x="1287.7099999999998" y="1278.0"/>
      <point x="1000.605" y="1278.0" type="curve" smooth="yes"/>
      <point x="276.20000000000005" y="1278.0" type="line"/>
      <point x="276.20000000000005" y="1205.84" type="line"/>
      <point x="992.245" y="1205.84" type="line" smooth="yes"/>
      <point x="1227.405" y="1205.84"/>
      <point x="1329.515" y="1095.91"/>
      <point x="1329.515" y="922.6899999999999" type="curve" smooth="yes"/>
      <point x="1329.515" y="909.485" type="line" smooth="yes"/>
      <point x="1329.515" y="738.9399999999999"/>
      <point x="1224.875" y="619.275"/>
      <point x="997.5350000000001" y="619.275" type="curve" smooth="yes"/>
      <point x="276.2" y="619.01" type="line"/>
      <point x="276.2" y="548.44" type="line"/>
      <point x="942.245" y="548.1750000000001" type="line" smooth="yes"/>
      <point x="1193.26" y="548.1750000000001"/>
      <point x="1253.8149999999998" y="420.89500000000004"/>
      <point x="1291.02" y="239.60499999999996" type="curve" smooth="yes"/>
    </contour>
    <contour>
      <point x="222.48499999999999" y="0.0" type="line"/>
      <point x="309.92" y="0.0" type="line"/>
      <point x="309.92" y="562.355" type="line"/>
      <point x="309.92" y="597.315" type="line"/>
      <point x="309.92" y="1278.0" type="line"/>
      <point x="222.48499999999999" y="1278.0" type="line"/>
    </contour>
  </outline>
</glyph>
<glyph name="S" format="2">
  <advance width="1454.1200000000001"/>
  <unicode hex="0053"/>
  <anchor x="723.795" y="0.0" name="bottom"/>
  <anchor x="723.795" y="1278.0" name="top"/>
  <outline>
    <contour>
      <point x="735.35" y="-23.12" type="curve" smooth="yes"/>
      <point x="1117.54" y="-23.12"/>
      <point x="1316.19" y="97.205"/>
      <point x="1316.19" y="341.625" type="curve" smooth="yes"/>
      <point x="1316.19" y="342.95" type="line" smooth="yes"/>
      <point x="1316.19" y="592.37"/>
      <point x="1176.795" y="672.9849999999999"/>
      <point x="732.54" y="701.165" type="curve" smooth="yes"/>
      <point x="317.125" y="727.02"/>
      <point x="228.28" y="802.07"/>
      <point x="228.28" y="964.845" type="curve" smooth="yes"/>
      <point x="228.28" y="965.11" type="line" smooth="yes"/>
      <point x="228.28" y="1126.09"/>
      <point x="357.97" y="1223.96"/>
      <point x="679.4799999999999" y="1223.96" type="curve" smooth="yes"/>
      <point x="939.0" y="1223.96"/>
      <point x="1128.445" y="1158.405"/>
      <point x="1257.54" y="1084.9350000000002" type="curve"/>
      <point x="1247.24" y="1167.7450000000001" type="line"/>
      <point x="1143.41" y="1228.155"/>
      <point x="951.265" y="1299.385"/>
      <point x="675.9150000000001" y="1299.385" type="curve" smooth="yes"/>
      <point x="302.08500000000004" y="1299.385"/>
      <point x="136.93" y="1176.59"/>
      <point x="136.93" y="965.11" type="curve" smooth="yes"/>
      <point x="136.93" y="964.0500000000001" type="line" smooth="yes"/>
      <point x="136.93" y="752.185"/>
      <point x="257.325" y="652.715"/>
      <point x="711.11" y="626.8000000000001" type="curve" smooth="yes"/>
      <point x="1107.995" y="604.4749999999999"/>
      <point x="1224.575" y="543.0999999999999"/>
      <point x="1224.575" y="341.155" type="curve" smooth="yes"/>
      <point x="1224.575" y="340.625" type="line" smooth="yes"/>
      <point x="1224.575" y="149.76500000000001"/>
      <point x="1058.74" y="54.425000000000004"/>
      <point x="736.8199999999999" y="54.425000000000004" type="curve" smooth="yes"/>
      <point x="469.445" y="54.425000000000004"/>
      <point x="263.085" y="137.305"/>
      <point x="124.17" y="222.39" type="curve"/>
      <point x="134.20499999999998" y="130.87" type="line"/>
      <point x="242.24" y="66.785"/>
      <point x="446.77000000000004" y="-23.12"/>
    </contour>
  </outline>
</glyph>
<glyph name="T" format="2">
  <advance width="1467.6850000000002"/>
  <unicode hex="0054"/>
  <anchor x="733.975" y="0.0" name="bottom"/>
  <anchor x="733.975" y="639.0" name="center"/>
  <anchor x="733.975" y="1278.0" name="top"/>
  <outline>
    <contour>
      <point x="689.595" y="0.0" type="line"/>
      <point x="778.09" y="0.0" type="line"/>
      <point x="778.09" y="1259.185" type="line"/>
      <point x="689.595" y="1259.185" type="line"/>
    </contour>
    <contour>
      <point x="98.69999999999999" y="1205.045" type="line"/>
      <point x="1368.9850000000001" y="1205.045" type="line"/>
      <point x="1368.9850000000001" y="1278.0" type="line"/>
      <point x="98.69999999999999" y="1278.0" type="line"/>
    </contour>
  </outline>
</glyph>
<glyph name="U" format="2">
  <advance width="1638.2150000000001"/>
  <unicode hex="0055"/>
  <anchor x="819.24" y="0.0" name="bottom"/>
  <anchor x="1084.945" y="1.3250000000000002" name="ogonek"/>
  <anchor x="819.24" y="1278.0" name="top"/>
  <anchor x="1592.19" y="1278.0" name="topright"/>
  <outline>
    <contour>
      <point x="819.24" y="-24.18" type="curve" smooth="yes"/>
      <point x="1233.2849999999999" y="-24.18"/>
      <point x="1429.465" y="190.085"/>
      <point x="1429.465" y="582.7099999999999" type="curve" smooth="yes"/>
      <point x="1429.465" y="1278.0" type="line"/>
      <point x="1340.9699999999998" y="1278.0" type="line"/>
      <point x="1340.9699999999998" y="584.71" type="line" smooth="yes"/>
      <point x="1340.9699999999998" y="241.85"/>
      <point x="1177.895" y="52.305"/>
      <point x="819.24" y="52.305" type="curve" smooth="yes"/>
      <point x="460.585" y="52.305"/>
      <point x="297.245" y="241.85"/>
      <point x="297.245" y="584.71" type="curve" smooth="yes"/>
      <point x="297.245" y="1278.0" type="line"/>
      <point x="208.75" y="1278.0" type="line"/>
      <point x="208.75" y="582.7099999999999" type="line" smooth="yes"/>
      <point x="208.75" y="190.085"/>
      <point x="404.72499999999997" y="-24.18"/>
    </contour>
  </outline>
</glyph>
<glyph name="V" format="2">
  <advance width="1528.9850000000001"/>
  <unicode hex="0056"/>
  <anchor x="764.625" y="0.0" name="bottom"/>
  <anchor x="764.625" y="1278.0" name="top"/>
  <outline>
    <contour>
      <point x="689.235" y="0.0" type="line"/>
      <point x="840.28" y="0.0" type="line"/>
      <point x="1456.26" y="1278.0" type="line"/>
      <point x="1361.525" y="1278.0" type="line"/>
      <point x="779.095" y="68.835" type="line"/>
      <point x="749.89" y="68.835" type="line"/>
      <point x="167.46" y="1278.0" type="line"/>
      <point x="72.725" y="1278.0" type="line"/>
    </contour>
  </outline>
</glyph>
<glyph name="W" format="2">
  <advance width="2195.795"/>
  <unicode hex="0057"/>
  <anchor x="1098.265" y="0.0" name="bottom"/>
  <anchor x="1098.265" y="1278.0" name="top"/>
  <outline>
    <contour>
      <point x="539.055" y="0.0" type="line"/>
      <point x="687.305" y="0.0" type="line"/>
      <point x="969.105" y="821.835" type="line"/>
      <point x="1087.795" y="1167.0449999999998" type="line"/>
      <point x="1108.0" y="1167.0449999999998" type="line"/>
      <point x="1226.69" y="821.835" type="line"/>
      <point x="1508.49" y="0.0" type="line"/>
      <point x="1656.74" y="0.0" type="line"/>
      <point x="2101.07" y="1278.0" type="line"/>
      <point x="2007.13" y="1278.0" type="line"/>
      <point x="1613.085" y="136.29000000000002" type="line"/>
      <point x="1592.76" y="74.545" type="line"/>
      <point x="1569.82" y="74.545" type="line"/>
      <point x="1549.23" y="135.555" type="line"/>
      <point x="1166.595" y="1239.53" type="line"/>
      <point x="1027.73" y="1239.53" type="line"/>
      <point x="645.83" y="135.08499999999998" type="line"/>
      <point x="625.975" y="74.545" type="line"/>
      <point x="603.77" y="74.545" type="line"/>
      <point x="583.18" y="135.08499999999998" type="line"/>
      <point x="189.665" y="1278.0" type="line"/>
      <point x="94.725" y="1278.0" type="line"/>
    </contour>
  </outline>
</glyph>
<glyph name="X" format="2">
  <advance width="1547.07"/>
  <unicode hex="0058"/>
  <anchor x="774.035" y="0.0" name="bottom"/>
  <anchor x="774.035" y="1278.0" name="top"/>
  <outline>
    <contour>
      <point x="84.86999999999999" y="0.0" type="line"/>
      <point x="191.84500000000003" y="0.0" type="line"/>
      <point x="766.505" y="600.825" type="line"/>
      <point x="781.3" y="600.825" type="line"/>
      <point x="1355.225" y="0.0" type="line"/>
      <point x="1462.2" y="0.0" type="line"/>
      <point x="834.22" y="661.8299999999999" type="line"/>
      <point x="834.485" y="646.88" type="line"/>
      <point x="1453.8749999999998" y="1278.0" type="line"/>
      <point x="1347.6950000000002" y="1278.0" type="line"/>
      <point x="781.3" y="703.44" type="line"/>
      <point x="766.505" y="703.44" type="line"/>
      <point x="199.375" y="1278.0" type="line"/>
      <point x="93.195" y="1278.0" type="line"/>
      <point x="712.585" y="646.88" type="line"/>
      <point x="712.85" y="661.8299999999999" type="line"/>
    </contour>
  </outline>
</glyph>
<glyph name="Y" format="2">
  <advance width="1490.865"/>
  <unicode hex="0059"/>
  <anchor x="745.5649999999999" y="0.0" name="bottom"/>
  <anchor x="745.5649999999999" y="1278.0" name="top"/>
  <anchor x="20.0" y="1278.0" name="topleft"/>
  <outline>
    <contour>
      <point x="707.365" y="394.135" type="line"/>
      <point x="783.765" y="394.135" type="line"/>
      <point x="1423.2" y="1278.0" type="line"/>
      <point x="1321.875" y="1278.0" type="line"/>
      <point x="896.06" y="688.7149999999999" type="line"/>
      <point x="751.83" y="489.57" type="line"/>
      <point x="739.035" y="489.57" type="line"/>
      <point x="595.275" y="689.245" type="line"/>
      <point x="168.99" y="1278.0" type="line"/>
      <point x="67.665" y="1278.0" type="line"/>
    </contour>
    <contour>
      <point x="702.1850000000001" y="0.0" type="line"/>
      <point x="788.945" y="0.0" type="line"/>
      <point x="788.945" y="468.475" type="line"/>
      <point x="702.1850000000001" y="468.475" type="line"/>
    </contour>
  </outline>
</glyph>
<glyph name="Z" format="2">
  <advance width="1441.0"/>
  <unicode hex="005A"/>
  <anchor x="721.0" y="0.0" name="bottom"/>
  <anchor x="721.0" y="639.0" name="center"/>
  <anchor x="721.0" y="1278.0" name="top"/>
  <outline>
    <contour>
      <point x="1310.54" y="73.22" type="line"/>
      <point x="245.85500000000002" y="73.22" type="line"/>
      <point x="1302.7450000000001" y="1210.1049999999998" type="line"/>
      <point x="1302.7450000000001" y="1278.0" type="line"/>
      <point x="134.05" y="1278.0" type="line"/>
      <point x="134.05" y="1205.045" type="line"/>
      <point x="1185.8200000000002" y="1205.045" type="line"/>
      <point x="130.46" y="67.63" type="line"/>
      <point x="130.46" y="0.0" type="line"/>
      <point x="1310.54" y="0.0" type="line"/>
    </contour>
  </outline>
</glyph>
<glyph name="bracketleft" format="2">
  <advance width="785.88"/>
  <unicode hex="005B"/>
  <outline>
    <contour>
      <point x="222.48499999999999" y="-235.505" type="line"/>
      <point x="697.59" y="-235.505" type="line"/>
      <point x="697.59" y="-165.99499999999998" type="line"/>
      <point x="305.005" y="-165.99499999999998" type="line"/>
      <point x="305.005" y="1278.02" type="line"/>
      <point x="697.59" y="1278.02" type="line"/>
      <point x="697.59" y="1347.265" type="line"/>
      <point x="222.48499999999999" y="1347.265" type="line"/>
    </contour>
  </outline>
</glyph>
<glyph name="backslash" format="2">
  <advance width="1083.68"/>
  <unicode hex="005C"/>
  <outline>
    <contour>
      <point x="1018.9050000000001" y="-226.82999999999998" type="line"/>
      <point x="154.885" y="1321.2399999999998" type="line"/>
      <point x="64.775" y="1321.2399999999998" type="line"/>
      <point x="928.53" y="-226.82999999999998" type="line"/>
    </contour>
  </outline>
</glyph>
<glyph name="bracketright" format="2">
  <advance width="785.88"/>
  <unicode hex="005D"/>
  <outline>
    <contour>
      <point x="563.3950000000001" y="-235.505" type="line"/>
      <point x="563.3950000000001" y="1347.265" type="line"/>
      <point x="88.28999999999999" y="1347.265" type="line"/>
      <point x="88.28999999999999" y="1278.02" type="line"/>
      <point x="480.875" y="1278.02" type="line"/>
      <point x="480.875" y="-165.99499999999998" type="line"/>
      <point x="88.28999999999999" y="-165.99499999999998" type="line"/>
      <point x="88.28999999999999" y="-235.505" type="line"/>
    </contour>
  </outline>
</glyph>
<glyph name="asciicircum" format="2">
  <advance width="1090.84"/>
  <unicode hex="005E"/>
  <outline>
    <contour>
      <point x="481.33000000000004" y="1278.0" type="line"/>
      <point x="84.725" y="603.9399999999999" type="line"/>
      <point x="171.535" y="603.9399999999999" type="line"/>
      <point x="533.48" y="1221.355" type="line"/>
      <point x="557.625" y="1221.355" type="line"/>
      <point x="919.57" y="603.9399999999999" type="line"/>
      <point x="1006.115" y="603.9399999999999" type="line"/>
      <point x="609.7750000000001" y="1278.0" type="line"/>
    </contour>
  </outline>
</glyph>
<glyph name="underscore" format="2">
  <advance width="1252.2450000000001"/>
  <unicode hex="005F"/>
  <outline>
    <contour>
      <point x="83.64" y="-183.58499999999998" type="line"/>
      <point x="1168.87" y="-183.58499999999998" type="line"/>
      <point x="1168.87" y="-115.81" type="line"/>
      <point x="83.64" y="-115.81" type="line"/>
    </contour>
  </outline>
</glyph>
<glyph name="grave" format="2">
  <advance width="594.4250000000001"/>
  <unicode hex="0060"/>
  <anchor x="459.755" y="953.59" name="_top"/>
  <anchor x="459.755" y="1328.155" name="top"/>
  <outline>
    <contour>
      <point x="205.67499999999998" y="1387.735" type="line"/>
      <point x="98.94000000000001" y="1387.735" type="line"/>
      <point x="98.94000000000001" y="1383.94" type="line"/>
      <point x="410.14500000000004" y="1108.7" type="line"/>
      <point x="496.545" y="1108.7" type="line"/>
      <point x="496.545" y="1111.495" type="line"/>
    </contour>
  </outline>
</glyph>
<glyph name="a" format="2">
  <advance width="1304.625"/>
  <unicode hex="0061"/>
  <anchor x="641.9150000000001" y="0.0" name="bottom"/>
  <anchor x="1183.635" y="1.3250000000000002" name="ogonek"/>
  <anchor x="641.9150000000001" y="953.59" name="top"/>
  <outline>
    <contour>
      <point x="1051.26" y="0.0" type="line"/>
      <point x="1136.96" y="0.0" type="line"/>
      <point x="1136.96" y="576.845" type="line" smooth="yes"/>
      <point x="1136.96" y="820.8449999999999"/>
      <point x="992.73" y="980.18"/>
      <point x="659.265" y="980.18" type="curve" smooth="yes"/>
      <point x="416.89" y="980.18"/>
      <point x="256.565" y="900.2750000000001"/>
      <point x="171.675" y="844.07" type="curve"/>
      <point x="161.64000000000001" y="766.235" type="line"/>
      <point x="270.00000000000006" y="835.055"/>
      <point x="432.675" y="908.02"/>
      <point x="650.785" y="908.02" type="curve" smooth="yes"/>
      <point x="924.005" y="908.02"/>
      <point x="1053.055" y="789.475"/>
      <point x="1053.055" y="581.085" type="curve"/>
      <point x="1052.79" y="564.255" type="line"/>
      <point x="1052.79" y="330.08500000000004" type="line"/>
      <point x="1056.585" y="308.135" type="line"/>
    </contour>
    <contour>
      <point x="523.28" y="-26.060000000000002" type="curve" smooth="yes"/>
      <point x="863.03" y="-26.060000000000002"/>
      <point x="1039.54" y="152.185"/>
      <point x="1063.225" y="335.14" type="curve"/>
      <point x="1082.44" y="335.14" type="line"/>
      <point x="1060.995" y="397.795" type="line"/>
      <point x="1025.935" y="202.525"/>
      <point x="837.51" y="46.1"/>
      <point x="543.06" y="46.1" type="curve" smooth="yes"/>
      <point x="327.99500000000006" y="46.1"/>
      <point x="195.75" y="116.62"/>
      <point x="195.75" y="253.54000000000002" type="curve" smooth="yes"/>
      <point x="195.75" y="263.48" type="line" smooth="yes"/>
      <point x="195.75" y="407.19500000000005"/>
      <point x="308.85" y="461.245"/>
      <point x="606.375" y="482.655" type="curve" smooth="yes"/>
      <point x="1069.97" y="516.125" type="line"/>
      <point x="1068.91" y="577.13" type="line"/>
      <point x="598.46" y="544.6600000000001" type="line" smooth="yes"/>
      <point x="255.29000000000002" y="520.6600000000001"/>
      <point x="110.05" y="447.48"/>
      <point x="110.05" y="259.65" type="curve" smooth="yes"/>
      <point x="110.05" y="246.23999999999998" type="line" smooth="yes"/>
      <point x="110.05" y="68.12"/>
      <point x="266.86999999999995" y="-26.060000000000002"/>
    </contour>
  </outline>
</glyph>
<glyph name="b" format="2">
  <advance width="1447.095"/>
  <unicode hex="0062"/>
  <anchor x="723.9150000000001" y="0.0" name="bottom"/>
  <anchor x="723.9150000000001" y="1322.675" name="top"/>
  <outline>
    <contour>
      <point x="781.14" y="-26.060000000000002" type="curve" smooth="yes"/>
      <point x="1124.25" y="-26.060000000000002"/>
      <point x="1321.3100000000002" y="142.53"/>
      <point x="1321.3100000000002" y="464.59" type="curve" smooth="yes"/>
      <point x="1321.3100000000002" y="490.46999999999997" type="line" smooth="yes"/>
      <point x="1321.3100000000002" y="809.59"/>
      <point x="1124.78" y="979.65"/>
      <point x="787.405" y="979.65" type="curve" smooth="yes"/>
      <point x="476.33" y="979.65"/>
      <point x="289.025" y="806.345"/>
      <point x="264.40000000000003" y="616.98" type="curve"/>
      <point x="237.76500000000001" y="616.98" type="line"/>
      <point x="264.77500000000003" y="551.35" type="line"/>
      <point x="302.09999999999997" y="752.86"/>
      <point x="496.055" y="908.8149999999999"/>
      <point x="764.445" y="908.8149999999999" type="curve" smooth="yes"/>
      <point x="1062.33" y="908.8149999999999"/>
      <point x="1235.0800000000002" y="765.9449999999999"/>
      <point x="1235.0800000000002" y="490.795" type="curve" smooth="yes"/>
      <point x="1235.0800000000002" y="467.385" type="line" smooth="yes"/>
      <point x="1235.0800000000002" y="192.175"/>
      <point x="1062.065" y="46.1"/>
      <point x="768.1800000000001" y="46.1" type="curve" smooth="yes"/>
      <point x="511.285" y="46.1"/>
      <point x="288.45000000000005" y="170.885"/>
      <point x="272.03999999999996" y="436.84" type="curve"/>
      <point x="236.44" y="354.985" type="line"/>
      <point x="267.545" y="354.985" type="line"/>
      <point x="280.795" y="115.16"/>
      <point x="497.79999999999995" y="-26.060000000000002"/>
    </contour>
    <contour>
      <point x="190.87" y="0.0" type="line"/>
      <point x="276.57" y="0.0" type="line"/>
      <point x="269.775" y="315.015" type="line"/>
      <point x="272.03999999999996" y="343.06" type="line"/>
      <point x="272.03999999999996" y="614.7099999999999" type="line"/>
      <point x="270.30499999999995" y="641.395" type="line"/>
      <point x="276.04" y="953.325" type="line"/>
      <point x="276.04" y="1322.675" type="line"/>
      <point x="190.87" y="1322.675" type="line"/>
    </contour>
  </outline>
</glyph>
<glyph name="c" format="2">
  <advance width="1240.76"/>
  <unicode hex="0063"/>
  <anchor x="670.29" y="0.0" name="bottom"/>
  <anchor x="670.29" y="953.59" name="top"/>
  <outline>
    <contour>
      <point x="681.915" y="-26.854999999999997" type="curve" smooth="yes"/>
      <point x="909.315" y="-26.854999999999997"/>
      <point x="1047.17" y="40.05"/>
      <point x="1126.6150000000002" y="96.93" type="curve"/>
      <point x="1136.5900000000001" y="180.15" type="line"/>
      <point x="1044.085" y="111.80000000000001"/>
      <point x="909.205" y="46.1"/>
      <point x="693.1899999999999" y="46.1" type="curve" smooth="yes"/>
      <point x="381.62" y="46.1"/>
      <point x="211.485" y="196.44"/>
      <point x="211.485" y="468.65" type="curve" smooth="yes"/>
      <point x="211.485" y="490.795" type="line" smooth="yes"/>
      <point x="211.485" y="762.475"/>
      <point x="382.03" y="908.815"/>
      <point x="688.13" y="908.815" type="curve" smooth="yes"/>
      <point x="895.5899999999999" y="908.815"/>
      <point x="1031.0" y="846.055"/>
      <point x="1123.855" y="776.5" type="curve"/>
      <point x="1114.615" y="858.455" type="line"/>
      <point x="1040.6399999999999" y="910.13"/>
      <point x="904.315" y="980.9749999999999"/>
      <point x="681.385" y="980.9749999999999" type="curve" smooth="yes"/>
      <point x="322.17" y="980.9749999999999"/>
      <point x="125.255" y="809.325"/>
      <point x="125.255" y="491.05999999999995" type="curve" smooth="yes"/>
      <point x="125.255" y="468.385" type="line" smooth="yes"/>
      <point x="125.255" y="146.79500000000002"/>
      <point x="321.435" y="-26.854999999999997"/>
    </contour>
  </outline>
</glyph>
<glyph name="d" format="2">
  <advance width="1447.095"/>
  <unicode hex="0064"/>
  <anchor x="723.915" y="0.0" name="bottom"/>
  <anchor x="723.915" y="476.795" name="center"/>
  <anchor x="723.915" y="1322.675" name="top"/>
  <anchor x="1482.615" y="1322.675" name="topright"/>
  <outline>
    <contour>
      <point x="662.22" y="-26.060000000000002" type="curve" smooth="yes"/>
      <point x="973.09" y="-26.060000000000002"/>
      <point x="1158.335" y="147.98000000000002"/>
      <point x="1183.225" y="336.61" type="curve"/>
      <point x="1208.3899999999999" y="336.61" type="line"/>
      <point x="1182.32" y="403.23999999999995" type="line"/>
      <point x="1146.4650000000001" y="202.26"/>
      <point x="949.5699999999999" y="46.1"/>
      <point x="683.385" y="46.1" type="curve" smooth="yes"/>
      <point x="384.03" y="46.1"/>
      <point x="212.01500000000001" y="192.175"/>
      <point x="212.01500000000001" y="465.385" type="curve" smooth="yes"/>
      <point x="212.01500000000001" y="488.79499999999996" type="line" smooth="yes"/>
      <point x="212.01500000000001" y="763.005"/>
      <point x="383.56" y="908.8149999999999"/>
      <point x="678.24" y="908.8149999999999" type="curve" smooth="yes"/>
      <point x="932.905" y="908.8149999999999"/>
      <point x="1158.6449999999998" y="787.85"/>
      <point x="1175.055" y="518.0749999999999" type="curve"/>
      <point x="1208.655" y="598.605" type="line"/>
      <point x="1179.02" y="598.605" type="line"/>
      <point x="1166.035" y="838.43"/>
      <point x="948.09" y="979.65"/>
      <point x="664.75" y="979.65" type="curve" smooth="yes"/>
      <point x="321.64" y="979.65"/>
      <point x="125.785" y="811.06"/>
      <point x="125.785" y="489.73499999999996" type="curve" smooth="yes"/>
      <point x="125.785" y="463.12" type="line" smooth="yes"/>
      <point x="125.785" y="145.47"/>
      <point x="321.725" y="-26.060000000000002"/>
    </contour>
    <contour>
      <point x="1170.5249999999999" y="0.0" type="line"/>
      <point x="1256.225" y="0.0" type="line"/>
      <point x="1256.225" y="1322.675" type="line"/>
      <point x="1171.0549999999998" y="1322.675" type="line"/>
      <point x="1171.0549999999998" y="953.325" type="line"/>
      <point x="1176.055" y="641.395" type="line"/>
      <point x="1175.055" y="614.7099999999999" type="line"/>
      <point x="1175.055" y="343.06" type="line"/>
      <point x="1176.585" y="315.015" type="line"/>
    </contour>
  </outline>
</glyph>
<glyph name="e" format="2">
  <advance width="1327.2399999999998"/>
  <unicode hex="0065"/>
  <anchor x="669.7099999999999" y="0.0" name="bottom"/>
  <anchor x="989.125" y="1.325" name="ogonek"/>
  <anchor x="669.71" y="953.59" name="top"/>
  <outline>
    <contour>
      <point x="696.095" y="-26.854999999999997" type="curve" smooth="yes"/>
      <point x="895.155" y="-26.854999999999997"/>
      <point x="1050.7450000000001" y="21.555"/>
      <point x="1175.4799999999998" y="109.725" type="curve"/>
      <point x="1185.515" y="189.56" type="line"/>
      <point x="1044.25" y="91.03999999999999"/>
      <point x="894.6" y="45.305"/>
      <point x="705.84" y="45.305" type="curve" smooth="yes"/>
      <point x="372.55" y="45.305"/>
      <point x="210.69" y="202.91"/>
      <point x="210.69" y="457.965" type="curve" smooth="yes"/>
      <point x="210.69" y="476.59000000000003" type="line"/>
      <point x="210.69" y="486.35999999999996" type="line"/>
      <point x="210.69" y="497.94999999999993" type="line" smooth="yes"/>
      <point x="210.69" y="754.98"/>
      <point x="369.85" y="910.14"/>
      <point x="669.0600000000001" y="910.14" type="curve" smooth="yes"/>
      <point x="969.33" y="910.14"/>
      <point x="1128.345" y="748.22"/>
      <point x="1128.345" y="512.3" type="curve" smooth="yes"/>
      <point x="1128.345" y="491.40999999999997"/>
      <point x="1127.815" y="468.665"/>
      <point x="1125.7549999999999" y="451.04" type="curve"/>
      <point x="1206.2749999999999" y="451.04" type="line"/>
      <point x="1209.3349999999998" y="470.015"/>
      <point x="1210.6599999999999" y="489.70000000000005"/>
      <point x="1210.6599999999999" y="507.12000000000006" type="curve" smooth="yes"/>
      <point x="1210.6599999999999" y="511.65000000000003" type="line" smooth="yes"/>
      <point x="1210.6599999999999" y="789.035"/>
      <point x="1023.805" y="980.4449999999999"/>
      <point x="669.0600000000001" y="980.4449999999999" type="curve" smooth="yes"/>
      <point x="316.23" y="980.4449999999999"/>
      <point x="125.255" y="798.65"/>
      <point x="125.255" y="490.265" type="curve" smooth="yes"/>
      <point x="125.255" y="464.325" type="line" smooth="yes"/>
      <point x="125.255" y="153.145"/>
      <point x="319.70000000000005" y="-26.854999999999997"/>
    </contour>
    <contour>
      <point x="164.72" y="451.04" type="line"/>
      <point x="1185.855" y="451.04" type="line"/>
      <point x="1185.855" y="517.49" type="line"/>
      <point x="164.72" y="517.49" type="line"/>
    </contour>
  </outline>
</glyph>
<glyph name="f" format="2">
  <advance width="1021.0500000000001"/>
  <unicode hex="0066"/>
  <anchor x="511.02500000000003" y="0.0" name="bottom"/>
  <anchor x="511.02500000000003" y="1291.0" name="top"/>
  <outline>
    <contour>
      <point x="621.23" y="1350.0" type="curve" smooth="yes"/>
      <point x="329.25500000000005" y="1350.0"/>
      <point x="220.69" y="1238.7949999999998"/>
      <point x="220.69" y="1069.77" type="curve" smooth="yes"/>
      <point x="220.69" y="1065.3" type="line" smooth="yes"/>
      <point x="220.69" y="997.6149999999999"/>
      <point x="248.78500000000003" y="940.88"/>
      <point x="276.85499999999996" y="904.4699999999999" type="curve"/>
      <point x="276.85499999999996" y="893.2299999999999" type="line"/>
      <point x="337.74" y="898.495" type="line"/>
      <point x="322.005" y="934.11"/>
      <point x="305.065" y="984.3399999999999"/>
      <point x="305.065" y="1041.365" type="curve" smooth="yes"/>
      <point x="305.065" y="1046.1" type="line" smooth="yes"/>
      <point x="305.065" y="1190.79"/>
      <point x="387.58500000000004" y="1278.1049999999998"/>
      <point x="634.215" y="1278.1049999999998" type="curve" smooth="yes"/>
      <point x="759.1550000000001" y="1278.1049999999998"/>
      <point x="855.36" y="1254.695"/>
      <point x="965.7950000000001" y="1215.875" type="curve"/>
      <point x="955.76" y="1286.385" type="line"/>
      <point x="855.35" y="1324.795"/>
      <point x="759.11" y="1350.0"/>
    </contour>
    <contour>
      <point x="257.485" y="0.0" type="line"/>
      <point x="341.92" y="0.0" type="line"/>
      <point x="341.92" y="874.8349999999999" type="line"/>
      <point x="257.485" y="874.8349999999999" type="line"/>
    </contour>
    <contour>
      <point x="21.880000000000003" y="838.72" type="line"/>
      <point x="946.35" y="838.72" type="line"/>
      <point x="955.855" y="907.0250000000001" type="line"/>
      <point x="322.38" y="907.0250000000001" type="line"/>
      <point x="290.685" y="906.495" type="line"/>
      <point x="21.880000000000003" y="907.0250000000001" type="line"/>
    </contour>
  </outline>
</glyph>
<glyph name="g" format="2">
  <advance width="1372.795"/>
  <unicode hex="0067"/>
  <anchor x="685.7350000000001" y="-338.0" name="bottom"/>
  <anchor x="685.7349999999999" y="953.5899999999999" name="top"/>
  <outline>
    <contour>
      <point x="687.735" y="338.35" type="curve"/>
      <point x="1043.095" y="338.35"/>
      <point x="1225.83" y="441.70000000000005"/>
      <point x="1225.83" y="642.3149999999999" type="curve" smooth="yes"/>
      <point x="1225.83" y="655.195" type="line" smooth="yes"/>
      <point x="1225.83" y="794.0649999999999"/>
      <point x="1132.105" y="897.9350000000001"/>
      <point x="867.3" y="923.2" type="curve"/>
      <point x="864.36" y="922.9100000000001" type="line"/>
      <point x="1332.2150000000001" y="917.645" type="line"/>
      <point x="1332.2150000000001" y="988.095" type="line"/>
      <point x="655.135" y="973.855" type="line" smooth="yes"/>
      <point x="317.075" y="967.0"/>
      <point x="146.13500000000002" y="863.915"/>
      <point x="146.13500000000002" y="664.675" type="curve" smooth="yes"/>
      <point x="146.13500000000002" y="650.7950000000001" type="line" smooth="yes"/>
      <point x="146.13500000000002" y="447.0"/>
      <point x="332.725" y="338.35"/>
    </contour>
    <contour>
      <point x="675.795" y="-309.34499999999997" type="line" smooth="yes"/>
      <point x="387.02" y="-309.34499999999997"/>
      <point x="184.485" y="-270.2"/>
      <point x="184.485" y="-114.22" type="curve" smooth="yes"/>
      <point x="184.485" y="-112.22000000000001" type="line" smooth="yes"/>
      <point x="184.485" y="23.145"/>
      <point x="334.67" y="68.17"/>
      <point x="529.025" y="83.84500000000001" type="curve"/>
      <point x="477.075" y="81.255" type="line"/>
      <point x="902.015" y="57.724999999999994" type="line" smooth="yes"/>
      <point x="1111.285" y="46.519999999999996"/>
      <point x="1194.66" y="-5.529999999999999"/>
      <point x="1194.66" y="-113.075" type="curve" smooth="yes"/>
      <point x="1194.66" y="-117.07499999999999" type="line" smooth="yes"/>
      <point x="1194.66" y="-267.79"/>
      <point x="984.51" y="-309.34499999999997"/>
      <point x="694.53" y="-309.34499999999997" type="curve" smooth="yes"/>
    </contour>
    <contour>
      <point x="671.555" y="-379.385" type="curve" smooth="yes"/>
      <point x="694.0" y="-379.385" type="line" smooth="yes"/>
      <point x="1036.7450000000001" y="-379.385"/>
      <point x="1278.3" y="-322.29"/>
      <point x="1278.3" y="-116.725" type="curve" smooth="yes"/>
      <point x="1278.3" y="-113.72500000000001" type="line" smooth="yes"/>
      <point x="1278.3" y="34.26"/>
      <point x="1167.7350000000001" y="110.25999999999999"/>
      <point x="910.7" y="123.85" type="curve" smooth="yes"/>
      <point x="552.915" y="142.91" type="line" smooth="yes"/>
      <point x="328.825" y="154.38000000000002"/>
      <point x="257.715" y="186.60999999999999"/>
      <point x="257.715" y="256.335" type="curve" smooth="yes"/>
      <point x="257.715" y="256.6" type="line" smooth="yes"/>
      <point x="257.715" y="316.915"/>
      <point x="302.33000000000004" y="349.88"/>
      <point x="474.42" y="350.675" type="curve"/>
      <point x="556.3950000000001" y="349.88000000000005" type="line"/>
      <point x="406.525" y="394.97499999999997" type="line"/>
      <point x="406.525" y="371.59" type="line"/>
      <point x="227.51999999999998" y="370.88"/>
      <point x="178.195" y="319.20500000000004"/>
      <point x="178.195" y="241.29000000000002" type="curve" smooth="yes"/>
      <point x="178.195" y="241.025" type="line" smooth="yes"/>
      <point x="178.195" y="153.20499999999998"/>
      <point x="249.16000000000003" y="104.47"/>
      <point x="428.15500000000003" y="91.41" type="curve"/>
      <point x="434.77" y="96.84500000000001" type="line"/>
      <point x="258.38" y="87.99000000000001"/>
      <point x="100.905" y="33.015"/>
      <point x="100.905" y="-126.41000000000001" type="curve" smooth="yes"/>
      <point x="100.905" y="-129.41" type="line" smooth="yes"/>
      <point x="100.905" y="-327.615"/>
      <point x="331.66499999999996" y="-379.385"/>
    </contour>
    <contour>
      <point x="686.675" y="404.68" type="curve" smooth="yes"/>
      <point x="384.695" y="404.68"/>
      <point x="229.775" y="493.20000000000005"/>
      <point x="229.775" y="651.855" type="curve" smooth="yes"/>
      <point x="229.775" y="666.0" type="line" smooth="yes"/>
      <point x="229.775" y="824.8599999999999"/>
      <point x="384.695" y="912.0550000000001"/>
      <point x="686.41" y="912.0550000000001" type="curve" smooth="yes"/>
      <point x="697.6149999999999" y="912.0550000000001" type="line" smooth="yes"/>
      <point x="993.8" y="912.0550000000001"/>
      <point x="1145.045" y="821.5949999999999"/>
      <point x="1145.045" y="665.4699999999999" type="curve" smooth="yes"/>
      <point x="1145.045" y="651.325" type="line" smooth="yes"/>
      <point x="1145.045" y="492.14"/>
      <point x="991.125" y="404.68"/>
    </contour>
  </outline>
</glyph>
<glyph name="h" format="2">
  <advance width="1392.42"/>
  <unicode hex="0068"/>
  <anchor x="696.71" y="0.0" name="bottom"/>
  <anchor x="696.71" y="646.0" name="center"/>
  <anchor x="233.455" y="1322.675" name="top"/>
  <outline>
    <contour>
      <point x="1136.26" y="0.0" type="line"/>
      <point x="1221.96" y="0.0" type="line"/>
      <point x="1221.96" y="530.145" type="line" smooth="yes"/>
      <point x="1221.96" y="803.77"/>
      <point x="1105.25" y="979.65"/>
      <point x="762.525" y="979.65" type="curve" smooth="yes"/>
      <point x="462.895" y="979.65"/>
      <point x="289.555" y="806.345"/>
      <point x="264.40000000000003" y="619.9200000000001" type="curve"/>
      <point x="242.92000000000004" y="619.9200000000001" type="line"/>
      <point x="266.365" y="554.88" type="line"/>
      <point x="300.22" y="752.535"/>
      <point x="474.995" y="906.96"/>
      <point x="738.7099999999999" y="906.96" type="curve" smooth="yes"/>
      <point x="1033.8" y="906.96"/>
      <point x="1136.26" y="753.97"/>
      <point x="1136.26" y="517.7" type="curve" smooth="yes"/>
    </contour>
    <contour>
      <point x="190.87" y="0.0" type="line"/>
      <point x="276.57" y="0.0" type="line"/>
      <point x="276.57" y="630.6850000000001" type="line"/>
      <point x="271.775" y="642.155" type="line"/>
      <point x="276.04" y="956.5300000000001" type="line"/>
      <point x="276.04" y="1322.675" type="line"/>
      <point x="190.87" y="1322.675" type="line"/>
    </contour>
  </outline>
</glyph>
<glyph name="i" format="2">
  <advance width="474.115"/>
  <unicode hex="0069"/>
  <anchor x="237.19" y="0.0" name="bottom"/>
  <anchor x="326.71500000000003" y="1.3250000000000002" name="ogonek"/>
  <outline>
    <contour>
      <point x="194.34" y="0.0" type="line"/>
      <point x="279.77500000000003" y="0.0" type="line"/>
      <point x="279.77500000000003" y="953.59" type="line"/>
      <point x="194.34" y="953.59" type="line"/>
    </contour>
    <contour>
      <point x="236.19" y="1178.3899999999999" type="curve" smooth="yes"/>
      <point x="288.235" y="1178.3899999999999"/>
      <point x="315.065" y="1202.4850000000001"/>
      <point x="315.065" y="1246.025" type="curve" smooth="yes"/>
      <point x="315.065" y="1249.29" type="line" smooth="yes"/>
      <point x="315.065" y="1290.8300000000002"/>
      <point x="288.235" y="1315.19"/>
      <point x="236.19" y="1315.19" type="curve" smooth="yes"/>
      <point x="186.61499999999998" y="1315.19"/>
      <point x="159.315" y="1290.8300000000002"/>
      <point x="159.315" y="1249.29" type="curve" smooth="yes"/>
      <point x="159.315" y="1246.025" type="line" smooth="yes"/>
      <point x="159.315" y="1202.75"/>
      <point x="186.61499999999998" y="1178.3899999999999"/>
    </contour>
  </outline>
</glyph>
<glyph name="j" format="2">
  <advance width="537.755"/>
  <unicode hex="006A"/>
  <outline>
    <contour>
      <point x="257.97999999999996" y="172.0" type="line"/>
      <point x="343.415" y="172.0" type="line"/>
      <point x="343.415" y="953.59" type="line"/>
      <point x="257.97999999999996" y="953.59" type="line"/>
    </contour>
    <contour>
      <point x="299.83" y="1173.09" type="curve" smooth="yes"/>
      <point x="351.875" y="1173.09"/>
      <point x="378.70500000000004" y="1197.185"/>
      <point x="378.70500000000004" y="1240.7250000000001" type="curve" smooth="yes"/>
      <point x="378.70500000000004" y="1243.99" type="line" smooth="yes"/>
      <point x="378.70500000000004" y="1285.5300000000002"/>
      <point x="351.875" y="1309.89"/>
      <point x="299.83" y="1309.89" type="curve" smooth="yes"/>
      <point x="250.255" y="1309.89"/>
      <point x="222.955" y="1285.5300000000002"/>
      <point x="222.955" y="1243.99" type="curve" smooth="yes"/>
      <point x="222.955" y="1240.7250000000001" type="line" smooth="yes"/>
      <point x="222.955" y="1197.4499999999998"/>
      <point x="250.255" y="1173.09"/>
    </contour>
    <component base="jbottom"/>
  </outline>
</glyph>
<glyph name="k" format="2">
  <advance width="1278.0200000000002"/>
  <unicode hex="006B"/>
  <anchor x="656.36" y="0.0" name="bottom"/>
  <anchor x="656.36" y="1322.675" name="top"/>
  <outline>
    <contour>
      <point x="1089.73" y="0.0" type="line"/>
      <point x="1217.945" y="0.0" type="line"/>
      <point x="486.335" y="528.9749999999999" type="line"/>
      <point x="486.335" y="498.675" type="line"/>
      <point x="1192.005" y="953.59" type="line"/>
      <point x="1064.9099999999999" y="953.59" type="line"/>
      <point x="427.705" y="547.55" type="line"/>
      <point x="257.62" y="547.55" type="line"/>
      <point x="257.62" y="475.125" type="line"/>
      <point x="427.175" y="475.125" type="line"/>
    </contour>
    <contour>
      <point x="190.87" y="0.0" type="line"/>
      <point x="276.57" y="0.0" type="line"/>
      <point x="276.57" y="1322.675" type="line"/>
      <point x="190.87" y="1322.675" type="line"/>
    </contour>
  </outline>
</glyph>
<glyph name="l" format="2">
  <advance width="474.38"/>
  <unicode hex="006C"/>
  <anchor x="237.19" y="0.0" name="bottom"/>
  <anchor x="237.19" y="646.0" name="center"/>
  <anchor x="237.19" y="1322.675" name="top"/>
  <anchor x="506.43" y="1322.675" name="topright"/>
  <outline>
    <contour>
      <point x="194.34" y="0.0" type="line"/>
      <point x="280.03999999999996" y="0.0" type="line"/>
      <point x="280.03999999999996" y="1322.675" type="line"/>
      <point x="194.34" y="1322.675" type="line"/>
    </contour>
  </outline>
</glyph>
<glyph name="m" format="2">
  <advance width="2184.41"/>
  <unicode hex="006D"/>
  <anchor x="1092.205" y="0.0" name="bottom"/>
  <anchor x="1092.205" y="953.59" name="top"/>
  <outline>
    <contour>
      <point x="1928.25" y="0.0" type="line"/>
      <point x="2013.95" y="0.0" type="line"/>
      <point x="2013.95" y="527.9399999999999" type="line" smooth="yes"/>
      <point x="2013.95" y="810.385"/>
      <point x="1901.83" y="979.65"/>
      <point x="1593.6" y="979.65" type="curve" smooth="yes"/>
      <point x="1313.1399999999999" y="979.65"/>
      <point x="1154.8600000000001" y="807.8149999999999"/>
      <point x="1128.115" y="622.125" type="curve"/>
      <point x="1111.67" y="622.125" type="line"/>
      <point x="1135.525" y="555.9399999999999" type="line"/>
      <point x="1165.6450000000002" y="753.065"/>
      <point x="1327.215" y="906.96"/>
      <point x="1568.52" y="906.96" type="curve" smooth="yes"/>
      <point x="1835.26" y="906.96"/>
      <point x="1928.25" y="753.97"/>
      <point x="1928.25" y="517.7" type="curve" smooth="yes"/>
    </contour>
    <contour>
      <point x="190.87" y="0.0" type="line"/>
      <point x="276.57" y="0.0" type="line"/>
      <point x="276.57" y="636.24" type="line"/>
      <point x="271.245" y="644.455" type="line"/>
      <point x="276.57" y="953.59" type="line"/>
      <point x="190.87" y="953.59" type="line"/>
    </contour>
    <contour>
      <point x="1059.56" y="0.0" type="line"/>
      <point x="1145.26" y="0.0" type="line"/>
      <point x="1145.26" y="535.975" type="line" smooth="yes"/>
      <point x="1145.26" y="565.505"/>
      <point x="1143.465" y="598.95"/>
      <point x="1138.935" y="633.8299999999999" type="curve"/>
      <point x="1106.935" y="864.0600000000001"/>
      <point x="977.0550000000001" y="979.65"/>
      <point x="724.91" y="979.65" type="curve" smooth="yes"/>
      <point x="448.365" y="979.65"/>
      <point x="287.02500000000003" y="806.345"/>
      <point x="264.135" y="619.9200000000001" type="curve"/>
      <point x="245.57" y="619.9200000000001" type="line"/>
      <point x="266.1" y="554.88" type="line"/>
      <point x="297.69" y="752.535"/>
      <point x="458.52500000000003" y="906.96"/>
      <point x="699.095" y="906.96" type="curve" smooth="yes"/>
      <point x="965.8349999999999" y="906.96"/>
      <point x="1059.56" y="753.97"/>
      <point x="1059.56" y="517.7" type="curve" smooth="yes"/>
    </contour>
  </outline>
</glyph>
<glyph name="n" format="2">
  <advance width="1392.42"/>
  <unicode hex="006E"/>
  <anchor x="696.71" y="0.0" name="bottom"/>
  <anchor x="696.71" y="953.59" name="top"/>
  <outline>
    <contour>
      <point x="1136.26" y="0.0" type="line"/>
      <point x="1221.96" y="0.0" type="line"/>
      <point x="1221.96" y="530.145" type="line" smooth="yes"/>
      <point x="1221.96" y="803.77"/>
      <point x="1105.25" y="979.65"/>
      <point x="762.525" y="979.65" type="curve" smooth="yes"/>
      <point x="462.1" y="979.65"/>
      <point x="289.025" y="806.345"/>
      <point x="263.87" y="619.9200000000001" type="curve"/>
      <point x="246.12500000000003" y="619.9200000000001" type="line"/>
      <point x="266.1" y="554.88" type="line"/>
      <point x="299.955" y="752.535"/>
      <point x="474.73" y="906.96"/>
      <point x="738.18" y="906.96" type="curve" smooth="yes"/>
      <point x="1033.8" y="906.96"/>
      <point x="1136.26" y="753.97"/>
      <point x="1136.26" y="517.7" type="curve" smooth="yes"/>
    </contour>
    <contour>
      <point x="190.87" y="0.0" type="line"/>
      <point x="276.57" y="0.0" type="line"/>
      <point x="276.57" y="637.3" type="line"/>
      <point x="271.245" y="644.455" type="line"/>
      <point x="276.57" y="953.59" type="line"/>
      <point x="190.87" y="953.59" type="line"/>
    </contour>
  </outline>
</glyph>
<glyph name="o" format="2">
  <advance width="1396.505"/>
  <unicode hex="006F"/>
  <anchor x="698.385" y="0.0" name="bottom"/>
  <anchor x="698.385" y="476.79499999999996" name="center"/>
  <anchor x="969.96" y="1.3250000000000002" name="ogonek"/>
  <anchor x="698.385" y="953.59" name="top"/>
  <anchor x="1161.3300000000002" y="953.59" name="topright"/>
  <outline>
    <contour>
      <point x="698.855" y="-26.325000000000003" type="curve" smooth="yes"/>
      <point x="1071.7450000000001" y="-26.325000000000003"/>
      <point x="1271.25" y="143.06"/>
      <point x="1271.25" y="464.325" type="curve"/>
      <point x="1271.25" y="491.53000000000003" type="line"/>
      <point x="1271.25" y="810.795"/>
      <point x="1071.7450000000001" y="980.4449999999999"/>
      <point x="698.855" y="980.4449999999999" type="curve" smooth="yes"/>
      <point x="325.495" y="980.4449999999999"/>
      <point x="125.255" y="810.795"/>
      <point x="125.255" y="491.53000000000003" type="curve"/>
      <point x="125.255" y="464.325" type="line"/>
      <point x="125.255" y="144.79500000000002"/>
      <point x="323.76" y="-26.325000000000003"/>
    </contour>
    <contour>
      <point x="698.855" y="44.51" type="curve" smooth="yes"/>
      <point x="383.765" y="44.51"/>
      <point x="211.22000000000003" y="191.38"/>
      <point x="211.22000000000003" y="464.325" type="curve" smooth="yes"/>
      <point x="211.22000000000003" y="491.53" type="line" smooth="yes"/>
      <point x="211.22000000000003" y="764.475"/>
      <point x="383.765" y="909.61"/>
      <point x="698.855" y="909.61" type="curve" smooth="yes"/>
      <point x="1014.4749999999999" y="909.61"/>
      <point x="1185.2849999999999" y="764.475"/>
      <point x="1185.2849999999999" y="491.53" type="curve" smooth="yes"/>
      <point x="1185.2849999999999" y="464.325" type="line" smooth="yes"/>
      <point x="1185.2849999999999" y="191.38"/>
      <point x="1012.74" y="44.51"/>
    </contour>
  </outline>
</glyph>
<glyph name="p" format="2">
  <advance width="1447.095"/>
  <unicode hex="0070"/>
  <anchor x="723.9150000000001" y="0.0" name="bottom"/>
  <anchor x="723.9150000000001" y="953.59" name="top"/>
  <outline>
    <contour>
      <point x="780.875" y="-26.060000000000002" type="curve" smooth="yes"/>
      <point x="1123.985" y="-26.060000000000002"/>
      <point x="1321.3100000000002" y="142.53"/>
      <point x="1321.3100000000002" y="464.85499999999996" type="curve" smooth="yes"/>
      <point x="1321.3100000000002" y="490.735" type="line" smooth="yes"/>
      <point x="1321.3100000000002" y="809.59"/>
      <point x="1126.105" y="979.65"/>
      <point x="785.815" y="979.65" type="curve" smooth="yes"/>
      <point x="475.005" y="979.65"/>
      <point x="288.76" y="806.345"/>
      <point x="263.87" y="616.98" type="curve"/>
      <point x="235.765" y="616.98" type="line"/>
      <point x="264.77500000000003" y="551.35" type="line"/>
      <point x="302.09999999999997" y="752.86"/>
      <point x="496.055" y="908.8149999999999"/>
      <point x="764.445" y="908.8149999999999" type="curve" smooth="yes"/>
      <point x="1062.33" y="908.8149999999999"/>
      <point x="1235.0800000000002" y="765.9449999999999"/>
      <point x="1235.0800000000002" y="490.795" type="curve" smooth="yes"/>
      <point x="1235.0800000000002" y="467.385" type="line" smooth="yes"/>
      <point x="1235.0800000000002" y="192.44"/>
      <point x="1062.0649999999998" y="46.63"/>
      <point x="767.915" y="46.63" type="curve" smooth="yes"/>
      <point x="511.28499999999997" y="46.63"/>
      <point x="288.45" y="170.08999999999997"/>
      <point x="272.03999999999996" y="434.71999999999997" type="curve"/>
      <point x="241.38" y="354.985" type="line"/>
      <point x="268.07500000000005" y="354.985" type="line"/>
      <point x="281.06" y="115.16"/>
      <point x="497.79999999999995" y="-26.060000000000002"/>
    </contour>
    <contour>
      <point x="190.87" y="-338.0" type="line"/>
      <point x="276.04" y="-338.0" type="line"/>
      <point x="276.04" y="0.5299999999999976" type="line"/>
      <point x="270.305" y="312.195" type="line"/>
      <point x="272.03999999999996" y="343.325" type="line"/>
      <point x="272.03999999999996" y="605.965" type="line"/>
      <point x="269.775" y="639.31" type="line"/>
      <point x="276.57" y="953.59" type="line"/>
      <point x="190.87" y="953.59" type="line"/>
    </contour>
  </outline>
</glyph>
<glyph name="q" format="2">
  <advance width="1447.095"/>
  <unicode hex="0071"/>
  <anchor x="723.915" y="0.0" name="bottom"/>
  <anchor x="723.915" y="953.59" name="top"/>
  <outline>
    <contour>
      <point x="662.22" y="-26.060000000000002" type="curve" smooth="yes"/>
      <point x="972.825" y="-26.060000000000002"/>
      <point x="1157.805" y="147.98000000000002"/>
      <point x="1182.6950000000002" y="336.61" type="curve"/>
      <point x="1209.86" y="336.61" type="line"/>
      <point x="1182.32" y="403.77" type="line"/>
      <point x="1146.4650000000001" y="202.79"/>
      <point x="949.5699999999999" y="46.63"/>
      <point x="683.385" y="46.63" type="curve" smooth="yes"/>
      <point x="384.03" y="46.63"/>
      <point x="212.01500000000001" y="191.705"/>
      <point x="212.01500000000001" y="465.385" type="curve" smooth="yes"/>
      <point x="212.01500000000001" y="488.79499999999996" type="line" smooth="yes"/>
      <point x="212.01500000000001" y="763.005"/>
      <point x="384.295" y="908.8149999999999"/>
      <point x="681.18" y="908.8149999999999" type="curve" smooth="yes"/>
      <point x="934.375" y="908.8149999999999"/>
      <point x="1158.645" y="788.645"/>
      <point x="1175.055" y="520.725" type="curve"/>
      <point x="1205.715" y="598.34" type="line"/>
      <point x="1179.55" y="598.34" type="line"/>
      <point x="1166.5649999999998" y="838.43"/>
      <point x="949.825" y="979.65"/>
      <point x="666.955" y="979.65" type="curve" smooth="yes"/>
      <point x="323.11" y="979.65"/>
      <point x="125.785" y="811.06"/>
      <point x="125.785" y="489.73499999999996" type="curve" smooth="yes"/>
      <point x="125.785" y="463.12" type="line" smooth="yes"/>
      <point x="125.785" y="144.0"/>
      <point x="321.725" y="-26.060000000000002"/>
    </contour>
    <contour>
      <point x="1171.0549999999998" y="-338.0" type="line"/>
      <point x="1256.225" y="-338.0" type="line"/>
      <point x="1256.225" y="953.59" type="line"/>
      <point x="1170.5249999999999" y="953.59" type="line"/>
      <point x="1176.5849999999998" y="639.045" type="line"/>
      <point x="1175.055" y="605.965" type="line"/>
      <point x="1175.055" y="343.325" type="line"/>
      <point x="1176.0549999999998" y="312.195" type="line"/>
      <point x="1171.0549999999998" y="0.5299999999999976" type="line"/>
    </contour>
  </outline>
</glyph>
<glyph name="r" format="2">
  <advance width="1014.2049999999999"/>
  <unicode hex="0072"/>
  <anchor x="234.72" y="0.0" name="bottom"/>
  <anchor x="541.085" y="953.59" name="top"/>
  <outline>
    <contour>
      <point x="268.30499999999995" y="541.11" type="line"/>
      <point x="357.21" y="775.26"/>
      <point x="538.285" y="894.1899999999999"/>
      <point x="754.13" y="894.1899999999999" type="curve" smooth="yes"/>
      <point x="841.565" y="894.1899999999999"/>
      <point x="913.18" y="876.045"/>
      <point x="968.59" y="853.165" type="curve"/>
      <point x="962.35" y="934.095" type="line"/>
      <point x="915.0" y="954.2399999999999"/>
      <point x="849.7700000000001" y="972.385"/>
      <point x="759.9250000000001" y="972.385" type="curve" smooth="yes"/>
      <point x="520.6700000000001" y="972.385"/>
      <point x="340.185" y="834.13"/>
      <point x="266.075" y="609.645" type="curve"/>
      <point x="242.8" y="600.0899999999999" type="line"/>
    </contour>
    <contour>
      <point x="190.87" y="0.0" type="line"/>
      <point x="276.57" y="0.0" type="line"/>
      <point x="276.57" y="601.89" type="line"/>
      <point x="271.245" y="604.5400000000001" type="line"/>
      <point x="276.57" y="953.59" type="line"/>
      <point x="190.87" y="953.59" type="line"/>
    </contour>
  </outline>
</glyph>
<glyph name="s" format="2">
  <advance width="1204.3"/>
  <unicode hex="0073"/>
  <anchor x="602.65" y="0.0" name="bottom"/>
  <anchor x="602.65" y="953.59" name="top"/>
  <outline>
    <contour>
      <point x="622.385" y="-26.854999999999997" type="curve" smooth="yes"/>
      <point x="941.275" y="-26.854999999999997"/>
      <point x="1106.66" y="63.940000000000005"/>
      <point x="1106.66" y="253.42000000000002" type="curve" smooth="yes"/>
      <point x="1106.66" y="253.42" type="line" smooth="yes"/>
      <point x="1106.66" y="452.39500000000004"/>
      <point x="987.095" y="507.455"/>
      <point x="609.275" y="530.105" type="curve" smooth="yes"/>
      <point x="285.03000000000003" y="548.4300000000001"/>
      <point x="193.955" y="583.25"/>
      <point x="193.955" y="720.17" type="curve" smooth="yes"/>
      <point x="193.955" y="720.1700000000001" type="line" smooth="yes"/>
      <point x="193.955" y="836.005"/>
      <point x="298.235" y="908.875"/>
      <point x="567.7700000000001" y="908.875" type="curve" smooth="yes"/>
      <point x="783.325" y="908.875"/>
      <point x="944.505" y="853.585"/>
      <point x="1060.0100000000002" y="787.235" type="curve"/>
      <point x="1048.5049999999999" y="863.865" type="line"/>
      <point x="953.735" y="921.4799999999999"/>
      <point x="788.205" y="979.24"/>
      <point x="564.47" y="979.24" type="curve" smooth="yes"/>
      <point x="251.35" y="979.24"/>
      <point x="110.05" y="888.445"/>
      <point x="110.05" y="721.23" type="curve" smooth="yes"/>
      <point x="110.05" y="720.6999999999999" type="line" smooth="yes"/>
      <point x="110.05" y="540.845"/>
      <point x="222.58" y="483.04"/>
      <point x="590.11" y="461.655" type="curve" smooth="yes"/>
      <point x="917.38" y="443.125"/>
      <point x="1022.2249999999999" y="408.365"/>
      <point x="1022.2249999999999" y="253.42000000000002" type="curve" smooth="yes"/>
      <point x="1022.2249999999999" y="253.42" type="line" smooth="yes"/>
      <point x="1022.2249999999999" y="110.235"/>
      <point x="882.74" y="45.305"/>
      <point x="620.9399999999999" y="45.305" type="curve" smooth="yes"/>
      <point x="393.325" y="45.305"/>
      <point x="231.35" y="103.245"/>
      <point x="96.555" y="176.065" type="curve"/>
      <point x="107.325" y="91.99000000000001" type="line"/>
      <point x="215.24" y="34.64"/>
      <point x="381.3" y="-26.854999999999997"/>
    </contour>
  </outline>
</glyph>
<glyph name="t" format="2">
  <advance width="1110.255"/>
  <unicode hex="0074"/>
  <anchor x="613.5799999999999" y="0.0" name="bottom"/>
  <anchor x="555.76" y="476.795" name="center"/>
  <anchor x="290.65999999999997" y="1203.0" name="top"/>
  <anchor x="866.68" y="1405.71" name="topright"/>
  <outline>
    <contour>
      <point x="649.555" y="-25.53" type="curve" smooth="yes"/>
      <point x="781.2049999999999" y="-25.53"/>
      <point x="909.3499999999999" y="6.084999999999999"/>
      <point x="1005.7600000000001" y="56.17" type="curve"/>
      <point x="1015.265" y="135.33" type="line"/>
      <point x="904.625" y="74.89500000000001"/>
      <point x="784.01" y="47.425000000000004"/>
      <point x="663.335" y="47.425000000000004" type="curve" smooth="yes"/>
      <point x="419.09" y="47.425000000000004"/>
      <point x="330.98" y="143.535"/>
      <point x="330.98" y="346.49" type="curve" smooth="yes"/>
      <point x="330.98" y="882.835" type="line"/>
      <point x="246.54500000000002" y="882.835" type="line"/>
      <point x="246.54500000000002" y="340.395" type="line" smooth="yes"/>
      <point x="246.54500000000002" y="90.3"/>
      <point x="360.22" y="-25.53"/>
    </contour>
    <contour>
      <point x="10.940000000000001" y="857.7900000000001" type="line"/>
      <point x="1004.965" y="857.7900000000001" type="line"/>
      <point x="1014.7349999999999" y="925.8299999999999" type="line"/>
      <point x="10.940000000000001" y="925.8299999999999" type="line"/>
    </contour>
    <contour>
      <point x="247.34" y="913.9150000000001" type="line"/>
      <point x="328.655" y="913.9150000000001" type="line"/>
      <point x="332.97999999999996" y="1232.47" type="line"/>
      <point x="247.075" y="1215.8799999999999" type="line"/>
    </contour>
  </outline>
</glyph>
<glyph name="u" format="2">
  <advance width="1392.42"/>
  <unicode hex="0075"/>
  <anchor x="696.71" y="0.0" name="bottom"/>
  <anchor x="1248.4900000000002" y="1.3250000000000002" name="ogonek"/>
  <anchor x="696.71" y="953.59" name="top"/>
  <anchor x="1372.155" y="953.59" name="topright"/>
  <outline>
    <contour>
      <point x="256.16" y="953.59" type="line"/>
      <point x="170.46" y="953.59" type="line"/>
      <point x="170.46" y="423.445" type="line" smooth="yes"/>
      <point x="170.46" y="149.82"/>
      <point x="287.17" y="-26.060000000000002"/>
      <point x="629.8950000000001" y="-26.060000000000002" type="curve" smooth="yes"/>
      <point x="930.32" y="-26.060000000000002"/>
      <point x="1103.395" y="147.245"/>
      <point x="1128.55" y="333.66999999999996" type="curve"/>
      <point x="1146.295" y="333.66999999999996" type="line"/>
      <point x="1126.32" y="398.71000000000004" type="line"/>
      <point x="1092.465" y="201.055"/>
      <point x="917.69" y="46.63"/>
      <point x="654.24" y="46.63" type="curve" smooth="yes"/>
      <point x="358.62" y="46.63"/>
      <point x="256.16" y="199.61999999999998"/>
      <point x="256.16" y="435.89000000000004" type="curve" smooth="yes"/>
    </contour>
    <contour>
      <point x="1201.55" y="953.59" type="line"/>
      <point x="1115.85" y="953.59" type="line"/>
      <point x="1115.85" y="316.29" type="line"/>
      <point x="1121.175" y="309.135" type="line"/>
      <point x="1115.85" y="0.0" type="line"/>
      <point x="1201.55" y="0.0" type="line"/>
    </contour>
  </outline>
</glyph>
<glyph name="v" format="2">
  <advance width="1293.8899999999999"/>
  <unicode hex="0076"/>
  <anchor x="647.4449999999999" y="0.0" name="bottom"/>
  <anchor x="647.4449999999999" y="953.59" name="top"/>
  <outline>
    <contour>
      <point x="663.975" y="63.535" type="line"/>
      <point x="631.9749999999999" y="63.535" type="line"/>
      <point x="156.605" y="953.59" type="line"/>
      <point x="62.989999999999995" y="953.59" type="line"/>
      <point x="573.995" y="0.0" type="line"/>
      <point x="721.6899999999999" y="0.0" type="line"/>
      <point x="1230.8999999999999" y="953.59" type="line"/>
      <point x="1137.815" y="953.59" type="line"/>
    </contour>
  </outline>
</glyph>
<glyph name="w" format="2">
  <advance width="1961.94"/>
  <unicode hex="0077"/>
  <anchor x="981.47" y="0.0" name="bottom"/>
  <anchor x="981.47" y="953.59" name="top"/>
  <outline>
    <contour>
      <point x="483.67" y="0.0" type="line"/>
      <point x="616.51" y="0.0" type="line"/>
      <point x="900.53" y="680.2750000000001" type="line"/>
      <point x="973.205" y="860.73" type="line"/>
      <point x="987.7349999999999" y="860.73" type="line"/>
      <point x="1061.41" y="679.54" type="line"/>
      <point x="1344.695" y="0.0" type="line"/>
      <point x="1478.2700000000002" y="0.0" type="line"/>
      <point x="1877.0700000000002" y="953.59" type="line"/>
      <point x="1783.9850000000001" y="953.59" type="line"/>
      <point x="1419.76" y="64.86" type="line"/>
      <point x="1399.76" y="64.86" type="line"/>
      <point x="1042.74" y="925.59" type="line"/>
      <point x="917.935" y="925.59" type="line"/>
      <point x="561.975" y="64.86" type="line"/>
      <point x="542.4449999999999" y="64.86" type="line"/>
      <point x="177.955" y="953.59" type="line"/>
      <point x="84.87" y="953.59" type="line"/>
    </contour>
  </outline>
</glyph>
<glyph name="x" format="2">
  <advance width="1275.37"/>
  <unicode hex="0078"/>
  <anchor x="637.685" y="0.0" name="bottom"/>
  <anchor x="637.685" y="953.59" name="top"/>
  <outline>
    <contour>
      <point x="84.075" y="0.0" type="line"/>
      <point x="189.725" y="0.0" type="line"/>
      <point x="629.89" y="443.125" type="line"/>
      <point x="645.4799999999999" y="443.125" type="line"/>
      <point x="1085.9099999999999" y="0.0" type="line"/>
      <point x="1191.295" y="0.0" type="line"/>
      <point x="697.93" y="500.41999999999996" type="line"/>
      <point x="697.93" y="483.76000000000005" type="line"/>
      <point x="1183.5" y="953.59" type="line"/>
      <point x="1078.3799999999999" y="953.59" type="line"/>
      <point x="645.4799999999999" y="534.405" type="line"/>
      <point x="629.89" y="534.405" type="line"/>
      <point x="197.255" y="953.59" type="line"/>
      <point x="92.13499999999999" y="953.59" type="line"/>
      <point x="577.44" y="482.02500000000003" type="line"/>
      <point x="577.44" y="498.94999999999993" type="line"/>
    </contour>
  </outline>
</glyph>
<glyph name="y" format="2">
  <advance width="1297.3600000000001"/>
  <unicode hex="0079"/>
  <anchor x="916.22" y="8.480000000000004" name="bottom"/>
  <anchor x="649.18" y="953.59" name="top"/>
  <outline>
    <contour>
      <point x="696.79" y="92.39" type="line"/>
      <point x="632.12" y="92.39" type="line"/>
      <point x="157.135" y="953.59" type="line"/>
      <point x="62.989999999999995" y="953.59" type="line"/>
      <point x="575.465" y="30.18" type="line"/>
      <point x="673.9" y="30.18" type="line"/>
      <point x="646.2299999999999" y="62.44000000000001" type="line"/>
      <point x="424.46" y="-338.0" type="line"/>
      <point x="517.81" y="-338.0" type="line"/>
      <point x="1234.37" y="953.59" type="line"/>
      <point x="1140.2250000000001" y="953.59" type="line"/>
      <point x="649.64" y="65.37" type="line"/>
    </contour>
  </outline>
</glyph>
<glyph name="z" format="2">
  <advance width="1229.65"/>
  <unicode hex="007A"/>
  <anchor x="615.325" y="0.0" name="bottom"/>
  <anchor x="615.325" y="476.795" name="center"/>
  <anchor x="615.325" y="953.59" name="top"/>
  <outline>
    <contour>
      <point x="1117.625" y="68.83500000000001" type="line"/>
      <point x="227.62499999999997" y="68.83500000000001" type="line"/>
      <point x="1111.36" y="889.405" type="line"/>
      <point x="1111.36" y="953.325" type="line"/>
      <point x="116.025" y="953.325" type="line"/>
      <point x="116.025" y="884.49" type="line"/>
      <point x="994.76" y="884.49" type="line"/>
      <point x="112.025" y="64.185" type="line"/>
      <point x="112.025" y="0.0" type="line"/>
      <point x="1117.625" y="0.0" type="line"/>
    </contour>
  </outline>
</glyph>
<glyph name="braceleft" format="2">
  <advance width="852.82"/>
  <unicode hex="007B"/>
  <outline>
    <contour>
      <point x="765.06" y="1315.915" type="line"/>
      <point x="718.265" y="1333.855"/>
      <point x="646.205" y="1348.325"/>
      <point x="568.94" y="1348.325" type="curve" smooth="yes"/>
      <point x="373.99" y="1348.325"/>
      <point x="291.22" y="1266.735"/>
      <point x="291.22" y="1079.5800000000002" type="curve" smooth="yes"/>
      <point x="291.22" y="1002.9649999999999"/>
      <point x="308.425" y="879.555"/>
      <point x="308.425" y="791.795" type="curve" smooth="yes"/>
      <point x="308.425" y="675.685"/>
      <point x="267.955" y="605.72"/>
      <point x="88.82000000000001" y="597.0450000000001" type="curve"/>
      <point x="88.82000000000001" y="524.125" type="line"/>
      <point x="267.955" y="511.97999999999996"/>
      <point x="308.425" y="439.545"/>
      <point x="308.425" y="320.23" type="curve" smooth="yes"/>
      <point x="308.425" y="233.20499999999998"/>
      <point x="291.22" y="109.79499999999999"/>
      <point x="291.22" y="32.18" type="curve" smooth="yes"/>
      <point x="291.22" y="-155.23999999999998"/>
      <point x="373.99" y="-237.095"/>
      <point x="568.94" y="-237.095" type="curve" smooth="yes"/>
      <point x="646.205" y="-237.095"/>
      <point x="718.265" y="-221.89"/>
      <point x="765.06" y="-203.685" type="curve"/>
      <point x="765.06" y="-135.76500000000001" type="line"/>
      <point x="719.975" y="-152.91000000000003"/>
      <point x="658.745" y="-167.585"/>
      <point x="583.84" y="-167.585" type="curve" smooth="yes"/>
      <point x="432.97" y="-167.585"/>
      <point x="373.21" y="-110.885"/>
      <point x="373.21" y="42.540000000000006" type="curve" smooth="yes"/>
      <point x="373.21" y="112.685"/>
      <point x="389.415" y="231.77"/>
      <point x="389.415" y="327.265" type="curve" smooth="yes"/>
      <point x="389.415" y="457.02500000000003"/>
      <point x="340.125" y="553.4350000000001"/>
      <point x="163.655" y="559.5550000000001" type="curve"/>
      <point x="172.16000000000003" y="543.195" type="line"/>
      <point x="172.16000000000003" y="562.41" type="line"/>
      <point x="350.885" y="574.53"/>
      <point x="389.415" y="671.2299999999999"/>
      <point x="389.415" y="785.76" type="curve" smooth="yes"/>
      <point x="389.415" y="880.255"/>
      <point x="373.21" y="999.0749999999999"/>
      <point x="373.21" y="1070.22" type="curve" smooth="yes"/>
      <point x="373.21" y="1222.6450000000002"/>
      <point x="432.70500000000004" y="1279.345"/>
      <point x="582.78" y="1279.345" type="curve" smooth="yes"/>
      <point x="658.2149999999999" y="1279.345"/>
      <point x="719.71" y="1265.67"/>
      <point x="765.06" y="1248.5249999999999" type="curve"/>
    </contour>
  </outline>
</glyph>
<glyph name="bar" format="2">
  <advance width="581.54"/>
  <unicode hex="007C"/>
  <outline>
    <contour>
      <point x="329.175" y="-459.7" type="line"/>
      <point x="329.175" y="1415.0" type="line"/>
      <point x="252.365" y="1415.0" type="line"/>
      <point x="252.365" y="-459.7" type="line"/>
    </contour>
  </outline>
</glyph>
<glyph name="braceright" format="2">
  <advance width="852.82"/>
  <unicode hex="007D"/>
  <outline>
    <contour>
      <point x="87.76" y="1315.915" type="curve"/>
      <point x="87.76" y="1248.5249999999999" type="line"/>
      <point x="133.11" y="1265.67"/>
      <point x="194.60500000000002" y="1279.345"/>
      <point x="270.04" y="1279.345" type="curve" smooth="yes"/>
      <point x="420.115" y="1279.345"/>
      <point x="479.61" y="1222.6450000000002"/>
      <point x="479.61" y="1070.22" type="curve" smooth="yes"/>
      <point x="479.61" y="999.0749999999999"/>
      <point x="463.405" y="880.255"/>
      <point x="463.405" y="785.76" type="curve" smooth="yes"/>
      <point x="463.405" y="671.2299999999999"/>
      <point x="501.93500000000006" y="574.53"/>
      <point x="680.6600000000001" y="562.41" type="curve"/>
      <point x="680.6600000000001" y="543.195" type="line"/>
      <point x="689.165" y="559.5550000000001" type="line"/>
      <point x="512.695" y="553.4350000000001"/>
      <point x="463.405" y="457.02500000000003"/>
      <point x="463.405" y="327.265" type="curve" smooth="yes"/>
      <point x="463.405" y="231.77"/>
      <point x="479.61" y="112.685"/>
      <point x="479.61" y="42.540000000000006" type="curve" smooth="yes"/>
      <point x="479.61" y="-110.885"/>
      <point x="419.85" y="-167.585"/>
      <point x="268.98" y="-167.585" type="curve" smooth="yes"/>
      <point x="194.075" y="-167.585"/>
      <point x="132.845" y="-152.91000000000003"/>
      <point x="87.76" y="-135.76500000000001" type="curve"/>
      <point x="87.76" y="-203.685" type="line"/>
      <point x="134.55499999999998" y="-221.89"/>
      <point x="206.615" y="-237.095"/>
      <point x="283.88" y="-237.095" type="curve" smooth="yes"/>
      <point x="478.83" y="-237.095"/>
      <point x="561.6" y="-155.23999999999998"/>
      <point x="561.6" y="32.18" type="curve" smooth="yes"/>
      <point x="561.6" y="109.79499999999999"/>
      <point x="544.3950000000001" y="233.20499999999998"/>
      <point x="544.3950000000001" y="320.23" type="curve" smooth="yes"/>
      <point x="544.3950000000001" y="439.545"/>
      <point x="584.865" y="511.97999999999996"/>
      <point x="764.0" y="524.125" type="curve"/>
      <point x="764.0" y="597.0450000000001" type="line"/>
      <point x="584.865" y="605.72"/>
      <point x="544.3950000000001" y="675.685"/>
      <point x="544.3950000000001" y="791.795" type="curve" smooth="yes"/>
      <point x="544.3950000000001" y="879.555"/>
      <point x="561.6" y="1002.9649999999999"/>
      <point x="561.6" y="1079.5800000000002" type="curve" smooth="yes"/>
      <point x="561.6" y="1266.735"/>
      <point x="478.83" y="1348.325"/>
      <point x="283.88" y="1348.325" type="curve" smooth="yes"/>
      <point x="206.615" y="1348.325"/>
      <point x="134.55499999999998" y="1333.855"/>
    </contour>
  </outline>
</glyph>
<glyph name="asciitilde" format="2">
  <advance width="1374.6750000000002"/>
  <unicode hex="007E"/>
  <outline>
    <contour>
      <point x="971.58" y="427.46999999999997" type="curve" smooth="yes"/>
      <point x="1130.625" y="427.46999999999997"/>
      <point x="1198.9499999999998" y="513.745"/>
      <point x="1198.9499999999998" y="687.25" type="curve" smooth="yes"/>
      <point x="1198.9499999999998" y="712.345" type="line"/>
      <point x="1133.03" y="712.345" type="line"/>
      <point x="1133.03" y="696.0799999999999" type="line" smooth="yes"/>
      <point x="1133.03" y="562.8"/>
      <point x="1082.655" y="499.0400000000001"/>
      <point x="967.195" y="499.0400000000001" type="curve" smooth="yes"/>
      <point x="789.88" y="499.0400000000001"/>
      <point x="600.685" y="682.6700000000001"/>
      <point x="403.83" y="682.6700000000001" type="curve" smooth="yes"/>
      <point x="243.785" y="682.6700000000001"/>
      <point x="175.725" y="594.865"/>
      <point x="175.725" y="420.68499999999995" type="curve" smooth="yes"/>
      <point x="175.725" y="397.79499999999996" type="line"/>
      <point x="242.11499999999998" y="397.79499999999996" type="line"/>
      <point x="242.11499999999998" y="414.06" type="line" smooth="yes"/>
      <point x="242.11499999999998" y="546.81"/>
      <point x="293.55" y="610.3050000000001"/>
      <point x="407.47999999999996" y="610.3050000000001" type="curve" smooth="yes"/>
      <point x="583.06" y="610.3050000000001"/>
      <point x="772.845" y="427.46999999999997"/>
    </contour>
  </outline>
</glyph>
<glyph name="exclamdown" format="2">
  <advance width="531.37"/>
  <unicode hex="00A1"/>
  <outline>
    <contour>
      <point x="301.885" y="577.58" type="line"/>
      <point x="229.01500000000001" y="577.58" type="line"/>
      <point x="218.98000000000002" y="-324.40999999999997" type="line"/>
      <point x="311.655" y="-324.40999999999997" type="line"/>
    </contour>
    <contour>
      <point x="264.95" y="970.24" type="curve" smooth="yes"/>
      <point x="214.58" y="970.24"/>
      <point x="186.22" y="944.5550000000001"/>
      <point x="186.22" y="898.425" type="curve" smooth="yes"/>
      <point x="186.22" y="894.425" type="line" smooth="yes"/>
      <point x="186.22" y="849.03"/>
      <point x="214.58" y="824.08"/>
      <point x="264.95" y="824.08" type="curve" smooth="yes"/>
      <point x="318.055" y="824.08"/>
      <point x="345.415" y="849.03"/>
      <point x="345.415" y="894.425" type="curve" smooth="yes"/>
      <point x="345.415" y="898.425" type="line" smooth="yes"/>
      <point x="345.415" y="944.5550000000001"/>
      <point x="318.055" y="970.24"/>
    </contour>
  </outline>
</glyph>
<glyph name="cent" format="2">
  <advance width="1240.76"/>
  <unicode hex="00A2"/>
  <anchor x="670.29" y="0.0" name="bottom"/>
  <anchor x="670.29" y="953.59" name="top"/>
  <outline>
    <contour>
      <point x="726.1750000000001" y="936.005" type="line"/>
      <point x="726.1750000000001" y="1222.615" type="line"/>
      <point x="646.1850000000001" y="1222.615" type="line"/>
      <point x="646.1850000000001" y="936.005" type="line"/>
    </contour>
    <contour>
      <point x="726.1750000000001" y="-265.49499999999995" type="line"/>
      <point x="726.1750000000001" y="19.150000000000002" type="line"/>
      <point x="646.1850000000001" y="19.150000000000002" type="line"/>
      <point x="646.1850000000001" y="-265.49499999999995" type="line"/>
    </contour>
    <component base="c"/>
  </outline>
</glyph>
<glyph name="sterling" format="2">
  <advance width="1519.315"/>
  <unicode hex="00A3"/>
  <outline>
    <contour>
      <point x="115.76" y="608.7750000000001" type="line"/>
      <point x="1266.6749999999997" y="608.7750000000001" type="line"/>
      <point x="1275.795" y="677.225" type="line"/>
      <point x="124.88" y="677.225" type="line"/>
    </contour>
    <contour>
      <point x="319.835" y="73.48500000000001" type="line"/>
      <point x="319.835" y="78.545" type="line"/>
      <point x="421.46000000000004" y="117.60499999999999"/>
      <point x="502.51" y="211.30499999999998"/>
      <point x="502.51" y="372.44" type="curve" smooth="yes"/>
      <point x="502.51" y="594.505"/>
      <point x="396.28000000000003" y="727.77"/>
      <point x="396.28000000000003" y="930.545" type="curve" smooth="yes"/>
      <point x="396.28000000000003" y="1129.32"/>
      <point x="554.5250000000001" y="1224.6950000000002"/>
      <point x="856.925" y="1224.6950000000002" type="curve" smooth="yes"/>
      <point x="1017.215" y="1224.6950000000002"/>
      <point x="1175.445" y="1198.02"/>
      <point x="1320.325" y="1146.995" type="curve"/>
      <point x="1311.615" y="1226.3600000000001" type="line"/>
      <point x="1182.085" y="1270.24"/>
      <point x="1015.5550000000001" y="1300.12"/>
      <point x="846.205" y="1300.12" type="curve" smooth="yes"/>
      <point x="480.255" y="1300.12"/>
      <point x="304.34" y="1179.0"/>
      <point x="304.34" y="938.9050000000001" type="curve" smooth="yes"/>
      <point x="304.34" y="709.155"/>
      <point x="413.16" y="578.205"/>
      <point x="412.16" y="370.84" type="curve" smooth="yes"/>
      <point x="411.425" y="209.415"/>
      <point x="326.90500000000003" y="92.93"/>
      <point x="170.975" y="73.34" type="curve" smooth="yes"/>
      <point x="125.495" y="66.95500000000001" type="line"/>
      <point x="125.495" y="0.0" type="line"/>
      <point x="1433.29" y="0.0" type="line"/>
      <point x="1433.29" y="73.48500000000001" type="line"/>
    </contour>
  </outline>
</glyph>
<glyph name="currency" format="2">
  <advance width="1261.66"/>
  <unicode hex="00A4"/>
  <outline>
    <contour>
      <point x="630.565" y="238.80999999999997" type="curve" smooth="yes"/>
      <point x="908.25" y="238.80999999999997"/>
      <point x="1068.8999999999999" y="377.725"/>
      <point x="1068.8999999999999" y="625.6999999999999" type="curve" smooth="yes"/>
      <point x="1068.8999999999999" y="632.23" type="line" smooth="yes"/>
      <point x="1068.8999999999999" y="879.47"/>
      <point x="908.985" y="1016.65"/>
      <point x="631.3000000000001" y="1016.65" type="curve" smooth="yes"/>
      <point x="353.88" y="1016.65"/>
      <point x="193.23" y="879.47"/>
      <point x="193.23" y="632.23" type="curve" smooth="yes"/>
      <point x="193.23" y="625.6999999999999" type="line" smooth="yes"/>
      <point x="193.23" y="377.725"/>
      <point x="353.145" y="238.80999999999997"/>
    </contour>
    <contour>
      <point x="631.3000000000001" y="307.79" type="curve" smooth="yes"/>
      <point x="404.44" y="307.79"/>
      <point x="273.365" y="419.25"/>
      <point x="273.365" y="625.7" type="curve" smooth="yes"/>
      <point x="273.365" y="632.2299999999999" type="line" smooth="yes"/>
      <point x="273.365" y="836.9449999999999"/>
      <point x="404.44" y="947.6700000000001"/>
      <point x="631.3000000000001" y="947.6700000000001" type="curve" smooth="yes"/>
      <point x="856.69" y="947.6700000000001"/>
      <point x="988.765" y="836.9449999999999"/>
      <point x="988.765" y="632.2299999999999" type="curve" smooth="yes"/>
      <point x="988.765" y="625.7" type="line" smooth="yes"/>
      <point x="988.765" y="419.25"/>
      <point x="856.69" y="307.79"/>
    </contour>
    <contour>
      <point x="937.54" y="379.84000000000003" type="line"/>
      <point x="885.16" y="337.11" type="line"/>
      <point x="1096.58" y="135.015" type="line"/>
      <point x="1144.165" y="182.54" type="line"/>
    </contour>
    <contour>
      <point x="372.44" y="333.04999999999995" type="line"/>
      <point x="325.445" y="381.165" type="line"/>
      <point x="117.495" y="182.54" type="line"/>
      <point x="165.07999999999998" y="135.015" type="line"/>
    </contour>
    <contour>
      <point x="318.0" y="880.21" type="line"/>
      <point x="371.44" y="921.88" type="line"/>
      <point x="165.07999999999998" y="1119.18" type="line"/>
      <point x="117.495" y="1071.655" type="line"/>
    </contour>
    <contour>
      <point x="888.015" y="919.675" type="line"/>
      <point x="941.07" y="877.62" type="line"/>
      <point x="1144.165" y="1071.655" type="line"/>
      <point x="1096.58" y="1119.18" type="line"/>
    </contour>
  </outline>
</glyph>
<glyph name="yen" format="2">
  <advance width="1497.805"/>
  <unicode hex="00A5"/>
  <anchor x="745.5649999999999" y="0.0" name="bottom"/>
  <anchor x="745.5649999999999" y="1278.0" name="top"/>
  <anchor x="20.0" y="1278.0" name="topleft"/>
  <outline>
    <contour>
      <point x="896.11" y="609.15" type="line"/>
      <point x="1337.66" y="609.15" type="line"/>
      <point x="1346.515" y="672.95" type="line"/>
      <point x="923.675" y="672.95" type="line"/>
    </contour>
    <contour>
      <point x="161.94" y="342.96" type="line"/>
      <point x="152.82" y="279.15999999999997" type="line"/>
      <point x="1337.66" y="279.15999999999997" type="line"/>
      <point x="1346.515" y="342.96" type="line"/>
    </contour>
    <contour>
      <point x="572.31" y="672.95" type="line"/>
      <point x="161.94" y="672.95" type="line"/>
      <point x="152.82" y="609.15" type="line"/>
      <point x="599.8750000000001" y="609.15" type="line"/>
    </contour>
    <component base="Y" xOffset="-8.881784197001252e-16"/>
  </outline>
</glyph>
<glyph name="brokenbar" format="2">
  <advance width="582.5999999999999"/>
  <unicode hex="00A6"/>
  <outline>
    <contour>
      <point x="330.235" y="592.35" type="line"/>
      <point x="330.235" y="1415.0" type="line"/>
      <point x="252.365" y="1415.0" type="line"/>
      <point x="252.365" y="592.35" type="line"/>
    </contour>
    <contour>
      <point x="330.235" y="-459.7" type="line"/>
      <point x="330.235" y="362.95" type="line"/>
      <point x="252.365" y="362.95" type="line"/>
      <point x="252.365" y="-459.7" type="line"/>
    </contour>
  </outline>
</glyph>
<glyph name="section" format="2">
  <advance width="1302.615"/>
  <unicode hex="00A7"/>
  <outline>
    <contour>
      <point x="818.365" y="396.72" type="curve"/>
      <point x="936.095" y="362.685" type="line"/>
      <point x="936.095" y="391.515" type="line"/>
      <point x="1065.4800000000002" y="410.6"/>
      <point x="1148.155" y="481.865"/>
      <point x="1148.155" y="599.395" type="curve" smooth="yes"/>
      <point x="1148.155" y="599.395" type="line" smooth="yes"/>
      <point x="1146.42" y="773.395"/>
      <point x="1016.975" y="836.48"/>
      <point x="652.625" y="859.19" type="curve" smooth="yes"/>
      <point x="330.23499999999996" y="879.045"/>
      <point x="238.63" y="912.865"/>
      <point x="238.63" y="1048.99" type="curve" smooth="yes"/>
      <point x="238.63" y="1048.99" type="line" smooth="yes"/>
      <point x="238.63" y="1160.415"/>
      <point x="342.115" y="1230.6100000000001"/>
      <point x="611.12" y="1230.6100000000001" type="curve" smooth="yes"/>
      <point x="825.88" y="1230.6100000000001"/>
      <point x="987.59" y="1174.5249999999999"/>
      <point x="1102.83" y="1106.8500000000001" type="curve"/>
      <point x="1091.325" y="1184.01" type="line"/>
      <point x="996.29" y="1241.625"/>
      <point x="829.965" y="1299.385"/>
      <point x="607.82" y="1299.385" type="curve" smooth="yes"/>
      <point x="294.965" y="1299.385"/>
      <point x="154.725" y="1211.795"/>
      <point x="154.725" y="1049.785" type="curve" smooth="yes"/>
      <point x="154.725" y="1049.2549999999999" type="line" smooth="yes"/>
      <point x="154.725" y="865.955"/>
      <point x="273.88" y="813.45"/>
      <point x="633.4599999999999" y="792.3299999999999" type="curve" smooth="yes"/>
      <point x="954.7900000000001" y="773.535"/>
      <point x="1065.84" y="724.485"/>
      <point x="1065.84" y="585.88" type="curve" smooth="yes"/>
      <point x="1065.84" y="585.88" type="line" smooth="yes"/>
      <point x="1065.84" y="482.48"/>
      <point x="971.115" y="414.37"/>
    </contour>
    <contour>
      <point x="478.635" y="821.245" type="curve"/>
      <point x="352.98999999999995" y="844.69" type="line"/>
      <point x="352.99" y="822.1850000000001" type="line"/>
      <point x="220.495" y="797.04"/>
      <point x="155.255" y="722.015"/>
      <point x="155.255" y="613.955" type="curve" smooth="yes"/>
      <point x="155.255" y="613.4250000000001" type="line" smooth="yes"/>
      <point x="155.255" y="444.69"/>
      <point x="281.7" y="378.015"/>
      <point x="639.025" y="354.98" type="curve" smooth="yes"/>
      <point x="959.67" y="335.125"/>
      <point x="1064.25" y="300.1"/>
      <point x="1064.25" y="147.275" type="curve" smooth="yes"/>
      <point x="1064.25" y="147.275" type="line" smooth="yes"/>
      <point x="1064.25" y="10.559999999999999"/>
      <point x="926.0899999999999" y="-51.635"/>
      <point x="664.2900000000001" y="-51.635" type="curve" smooth="yes"/>
      <point x="438.795" y="-51.635"/>
      <point x="273.10999999999996" y="6.039999999999999"/>
      <point x="140.17000000000002" y="78.59500000000001" type="curve"/>
      <point x="150.94" y="-4.419999999999998" type="line"/>
      <point x="257.53" y="-61.239999999999995"/>
      <point x="427.83" y="-122.20499999999998"/>
      <point x="667.5899999999999" y="-122.20499999999998" type="curve" smooth="yes"/>
      <point x="986.215" y="-122.20499999999998"/>
      <point x="1148.685" y="-33.084999999999994"/>
      <point x="1148.685" y="146.48" type="curve" smooth="yes"/>
      <point x="1148.685" y="146.48" type="line" smooth="yes"/>
      <point x="1148.685" y="342.805"/>
      <point x="1028.855" y="398.925"/>
      <point x="658.19" y="421.84000000000003" type="curve" smooth="yes"/>
      <point x="343.62" y="440.695"/>
      <point x="236.77500000000003" y="495.13"/>
      <point x="236.77500000000003" y="625.88" type="curve" smooth="yes"/>
      <point x="236.77500000000003" y="625.88" type="line"/>
      <point x="236.77500000000003" y="727.28"/>
      <point x="313.825" y="796.86"/>
    </contour>
  </outline>
</glyph>
<glyph name="copyright" format="2">
  <advance width="1658.1299999999999"/>
  <unicode hex="00A9"/>
  <outline>
    <contour>
      <point x="828.5649999999999" y="-24.18" type="curve" smooth="yes"/>
      <point x="1274.72" y="-24.18"/>
      <point x="1524.0800000000002" y="212.47"/>
      <point x="1524.0800000000002" y="630.325" type="curve" smooth="yes"/>
      <point x="1524.0800000000002" y="650.53" type="line" smooth="yes"/>
      <point x="1524.815" y="1067.325"/>
      <point x="1274.72" y="1302.1799999999998"/>
      <point x="828.5649999999999" y="1302.1799999999998" type="curve" smooth="yes"/>
      <point x="383.40999999999997" y="1302.1799999999998"/>
      <point x="134.05" y="1067.325"/>
      <point x="134.05" y="650.53" type="curve" smooth="yes"/>
      <point x="134.05" y="630.325" type="line" smooth="yes"/>
      <point x="134.05" y="212.47"/>
      <point x="383.40999999999997" y="-24.18"/>
    </contour>
    <contour>
      <point x="858.625" y="314.94000000000005" type="curve" smooth="yes"/>
      <point x="1005.2049999999999" y="314.94000000000005"/>
      <point x="1093.265" y="357.70000000000005"/>
      <point x="1145.12" y="395.10999999999996" type="curve"/>
      <point x="1150.77" y="460.55" type="line"/>
      <point x="1091.8549999999998" y="416.40500000000003"/>
      <point x="1004.71" y="374.115"/>
      <point x="865.72" y="374.115" type="curve" smooth="yes"/>
      <point x="673.115" y="374.115"/>
      <point x="568.535" y="466.36999999999995"/>
      <point x="568.535" y="634.2650000000001" type="curve" smooth="yes"/>
      <point x="568.535" y="648.94" type="line" smooth="yes"/>
      <point x="568.535" y="815.8349999999999"/>
      <point x="674.0550000000001" y="905.355"/>
      <point x="861.925" y="905.355" type="curve" smooth="yes"/>
      <point x="995.565" y="905.355"/>
      <point x="1082.975" y="864.27"/>
      <point x="1143.0349999999999" y="819.655" type="curve"/>
      <point x="1137.12" y="885.5649999999999" type="line"/>
      <point x="1089.7350000000001" y="918.77"/>
      <point x="1001.4699999999999" y="964.0"/>
      <point x="858.36" y="964.0" type="curve" smooth="yes"/>
      <point x="626.855" y="964.0"/>
      <point x="499.795" y="853.675"/>
      <point x="499.795" y="648.47" type="curve" smooth="yes"/>
      <point x="499.795" y="634.265" type="line" smooth="yes"/>
      <point x="499.795" y="427.0"/>
      <point x="626.12" y="314.94000000000005"/>
    </contour>
    <contour>
      <point x="828.5649999999999" y="33.405" type="curve" smooth="yes"/>
      <point x="422.96" y="33.405"/>
      <point x="200.935" y="248.31"/>
      <point x="200.935" y="630.59" type="curve" smooth="yes"/>
      <point x="200.935" y="650.265" type="line" smooth="yes"/>
      <point x="200.935" y="1032.485"/>
      <point x="422.96" y="1244.595"/>
      <point x="828.5649999999999" y="1244.595" type="curve" smooth="yes"/>
      <point x="1235.1699999999998" y="1244.595"/>
      <point x="1457.195" y="1032.485"/>
      <point x="1457.195" y="650.265" type="curve" smooth="yes"/>
      <point x="1457.195" y="630.59" type="line" smooth="yes"/>
      <point x="1457.195" y="248.31"/>
      <point x="1235.1699999999998" y="33.405"/>
    </contour>
  </outline>
</glyph>
<glyph name="ordfeminine" format="2">
  <advance width="911.4"/>
  <unicode hex="00AA"/>
  <outline>
    <contour>
      <point x="687.85" y="647.6750000000001" type="line"/>
      <point x="754.385" y="647.6750000000001" type="line"/>
      <point x="754.385" y="1042.5800000000002" type="line" smooth="yes"/>
      <point x="754.385" y="1192.725"/>
      <point x="667.095" y="1295.47"/>
      <point x="458.11" y="1295.47" type="curve" smooth="yes"/>
      <point x="305.675" y="1295.47"/>
      <point x="205.675" y="1244.445"/>
      <point x="149.7" y="1209.18" type="curve"/>
      <point x="142.785" y="1149.27" type="line"/>
      <point x="211.965" y="1190.9450000000002"/>
      <point x="313.845" y="1239.03"/>
      <point x="448.75" y="1239.03" type="curve" smooth="yes"/>
      <point x="613.5350000000001" y="1239.03"/>
      <point x="689.91" y="1168.4499999999998"/>
      <point x="689.91" y="1045.11" type="curve"/>
      <point x="689.91" y="996.375" type="line"/>
      <point x="689.91" y="848.495" type="line"/>
      <point x="691.645" y="836.845" type="line"/>
    </contour>
    <contour>
      <point x="359.07500000000005" y="631.4100000000001" type="curve" smooth="yes"/>
      <point x="565.885" y="631.4100000000001"/>
      <point x="679.25" y="732.75"/>
      <point x="697.14" y="848.27" type="curve"/>
      <point x="711.44" y="848.27" type="line"/>
      <point x="695.175" y="896.1800000000001" type="line"/>
      <point x="672.0550000000001" y="781.78"/>
      <point x="555.7399999999999" y="688.645"/>
      <point x="377.67499999999995" y="688.645" type="curve" smooth="yes"/>
      <point x="253.925" y="688.645"/>
      <point x="178.32" y="732.755"/>
      <point x="178.32" y="814.83" type="curve" smooth="yes"/>
      <point x="178.32" y="821.035" type="line" smooth="yes"/>
      <point x="178.32" y="917.99"/>
      <point x="255.455" y="949.69"/>
      <point x="416.315" y="961.63" type="curve" smooth="yes"/>
      <point x="701.5" y="982.365" type="line"/>
      <point x="699.705" y="1031.3" type="line"/>
      <point x="407.75" y="1009.83" type="line" smooth="yes"/>
      <point x="206.11" y="994.83"/>
      <point x="110.195" y="945.3"/>
      <point x="110.195" y="816.855" type="curve" smooth="yes"/>
      <point x="110.195" y="809.855" type="line" smooth="yes"/>
      <point x="110.195" y="693.795"/>
      <point x="205.34" y="631.4100000000001"/>
    </contour>
  </outline>
</glyph>
<glyph name="logicalnot" format="2">
  <advance width="1364.6399999999999"/>
  <unicode hex="00AC"/>
  <outline>
    <contour>
      <point x="1187.915" y="99.495" type="line"/>
      <point x="1187.915" y="615.5649999999999" type="line"/>
      <point x="1113.225" y="615.5649999999999" type="line"/>
      <point x="1113.225" y="99.495" type="line"/>
    </contour>
    <contour>
      <point x="159.375" y="576.39" type="line"/>
      <point x="1187.915" y="576.39" type="line"/>
      <point x="1187.915" y="645.9" type="line"/>
      <point x="159.375" y="645.9" type="line"/>
    </contour>
  </outline>
</glyph>
<glyph name="registered" format="2">
  <advance width="1033.315"/>
  <unicode hex="00AE"/>
  <outline>
    <contour>
      <point x="517.29" y="544.255" type="curve" smooth="yes"/>
      <point x="783.7950000000001" y="544.255"/>
      <point x="943.915" y="678.435"/>
      <point x="943.915" y="919.76" type="curve" smooth="yes"/>
      <point x="943.915" y="924.76" type="line" smooth="yes"/>
      <point x="943.915" y="1165.3500000000001"/>
      <point x="783.7950000000001" y="1299.265"/>
      <point x="517.29" y="1299.265" type="curve" smooth="yes"/>
      <point x="249.785" y="1299.265"/>
      <point x="89.39999999999999" y="1165.3500000000001"/>
      <point x="89.39999999999999" y="924.76" type="curve" smooth="yes"/>
      <point x="89.39999999999999" y="919.76" type="line" smooth="yes"/>
      <point x="89.39999999999999" y="678.435"/>
      <point x="249.785" y="544.255"/>
    </contour>
    <contour>
      <point x="517.29" y="590.77" type="curve" smooth="yes"/>
      <point x="280.06" y="590.77"/>
      <point x="142.36" y="703.18"/>
      <point x="142.36" y="920.76" type="curve" smooth="yes"/>
      <point x="142.36" y="925.025" type="line" smooth="yes"/>
      <point x="142.36" y="1142.075"/>
      <point x="279.325" y="1252.75"/>
      <point x="517.29" y="1252.75" type="curve" smooth="yes"/>
      <point x="753.52" y="1252.75"/>
      <point x="890.955" y="1142.075"/>
      <point x="890.955" y="925.025" type="curve" smooth="yes"/>
      <point x="890.955" y="920.76" type="line" smooth="yes"/>
      <point x="890.955" y="703.915"/>
      <point x="754.255" y="590.77"/>
    </contour>
    <contour>
      <point x="665.775" y="736.88" type="line"/>
      <point x="717.205" y="736.88" type="line"/>
      <point x="700.735" y="806.025" type="line" smooth="yes"/>
      <point x="686.735" y="864.2900000000001"/>
      <point x="666.735" y="907.17"/>
      <point x="586.385" y="909.23" type="curve"/>
      <point x="606.795" y="900.965" type="line"/>
      <point x="606.795" y="905.615" type="line"/>
      <point x="678.4100000000001" y="908.615"/>
      <point x="712.88" y="946.025"/>
      <point x="712.88" y="1000.555" type="curve" smooth="yes"/>
      <point x="712.88" y="1005.2900000000001" type="line" smooth="yes"/>
      <point x="712.88" y="1069.35"/>
      <point x="671.29" y="1109.82"/>
      <point x="580.3149999999999" y="1109.82" type="curve" smooth="yes"/>
      <point x="386.325" y="1109.82" type="line"/>
      <point x="386.325" y="1069.4850000000001" type="line"/>
      <point x="574.5450000000001" y="1069.4850000000001" type="line" smooth="yes"/>
      <point x="635.835" y="1069.4850000000001"/>
      <point x="662.715" y="1042.87"/>
      <point x="662.715" y="999.58" type="curve" smooth="yes"/>
      <point x="662.715" y="995.845" type="line" smooth="yes"/>
      <point x="662.715" y="952.29"/>
      <point x="635.8349999999999" y="922.4699999999999"/>
      <point x="576.28" y="922.4699999999999" type="curve" smooth="yes"/>
      <point x="386.325" y="922.2049999999999" type="line"/>
      <point x="386.325" y="883.135" type="line"/>
      <point x="552.1350000000001" y="883.135" type="line" smooth="yes"/>
      <point x="618.6899999999999" y="883.135"/>
      <point x="638.3649999999999" y="856.0500000000001"/>
      <point x="651.1" y="800.11" type="curve" smooth="yes"/>
    </contour>
    <contour>
      <point x="355.04999999999995" y="736.88" type="line"/>
      <point x="404.42" y="736.88" type="line"/>
      <point x="404.42" y="890.4" type="line"/>
      <point x="404.42" y="906.905" type="line"/>
      <point x="404.42" y="1109.82" type="line"/>
      <point x="355.04999999999995" y="1109.82" type="line"/>
    </contour>
  </outline>
</glyph>
<glyph name="degree" format="2">
  <advance width="792.3"/>
  <unicode hex="00B0"/>
  <outline>
    <contour>
      <point x="395.65" y="776.75" type="curve" smooth="yes"/>
      <point x="571.5999999999999" y="776.75"/>
      <point x="673.31" y="882.4"/>
      <point x="673.31" y="1037.7" type="curve" smooth="yes"/>
      <point x="673.31" y="1042.23" type="line" smooth="yes"/>
      <point x="673.31" y="1197.53"/>
      <point x="571.5999999999999" y="1302.1799999999998"/>
      <point x="395.65" y="1302.1799999999998" type="curve" smooth="yes"/>
      <point x="220.7" y="1302.1799999999998"/>
      <point x="118.99" y="1197.53"/>
      <point x="118.99" y="1042.23" type="curve" smooth="yes"/>
      <point x="118.99" y="1037.7" type="line" smooth="yes"/>
      <point x="118.99" y="882.4"/>
      <point x="220.7" y="776.75"/>
    </contour>
    <contour>
      <point x="395.65" y="839.37" type="curve" smooth="yes"/>
      <point x="265.165" y="839.37"/>
      <point x="189.38" y="918.155"/>
      <point x="189.38" y="1037.7" type="curve" smooth="yes"/>
      <point x="189.38" y="1041.965" type="line" smooth="yes"/>
      <point x="189.38" y="1161.7749999999999"/>
      <point x="265.165" y="1239.56"/>
      <point x="395.65" y="1239.56" type="curve" smooth="yes"/>
      <point x="526.4000000000001" y="1239.56"/>
      <point x="602.185" y="1161.7749999999999"/>
      <point x="602.185" y="1041.965" type="curve" smooth="yes"/>
      <point x="602.185" y="1037.7" type="line" smooth="yes"/>
      <point x="602.185" y="918.155"/>
      <point x="526.4000000000001" y="839.37"/>
    </contour>
  </outline>
</glyph>
<glyph name="plusminus" format="2">
  <advance width="1382.6399999999999"/>
  <unicode hex="00B1"/>
  <outline>
    <contour>
      <point x="177.04999999999998" y="114.775" type="line"/>
      <point x="1205.59" y="114.775" type="line"/>
      <point x="1205.59" y="182.55" type="line"/>
      <point x="177.04999999999998" y="182.55" type="line"/>
    </contour>
    <contour>
      <point x="729.4300000000001" y="358.505" type="line"/>
      <point x="729.4300000000001" y="1178.505" type="line"/>
      <point x="653.945" y="1178.505" type="line"/>
      <point x="653.945" y="358.505" type="line"/>
    </contour>
    <contour>
      <point x="177.04999999999998" y="734.75" type="line"/>
      <point x="1205.59" y="734.75" type="line"/>
      <point x="1205.59" y="802.26" type="line"/>
      <point x="177.04999999999998" y="802.26" type="line"/>
    </contour>
  </outline>
</glyph>
<glyph name="twosuperior" format="2">
  <advance width="835.17"/>
  <unicode hex="00B2"/>
  <outline>
    <contour>
      <point x="62.965" y="750.265" type="line"/>
      <point x="764.2049999999999" y="750.265" type="line"/>
      <point x="764.2049999999999" y="811.355" type="line"/>
      <point x="135.305" y="809.62" type="line"/>
      <point x="175.805" y="796.79" type="line"/>
      <point x="175.805" y="812.415" type="line"/>
      <point x="419.85" y="922.865" type="line" smooth="yes"/>
      <point x="625.5749999999999" y="1015.5649999999999"/>
      <point x="744.795" y="1085.3"/>
      <point x="744.795" y="1224.675" type="curve" smooth="yes"/>
      <point x="744.795" y="1230.2050000000002" type="line" smooth="yes"/>
      <point x="744.795" y="1363.7949999999998"/>
      <point x="625.47" y="1436.385"/>
      <point x="417.435" y="1436.385" type="curve" smooth="yes"/>
      <point x="292.76000000000005" y="1436.385"/>
      <point x="153.35" y="1399.975"/>
      <point x="75.145" y="1350.215" type="curve"/>
      <point x="67.965" y="1287.185" type="line"/>
      <point x="171.58" y="1341.885"/>
      <point x="291.80999999999995" y="1376.355"/>
      <point x="412.195" y="1376.355" type="curve" smooth="yes"/>
      <point x="578.74" y="1376.355"/>
      <point x="671.225" y="1327.45"/>
      <point x="671.225" y="1224.17" type="curve" smooth="yes"/>
      <point x="671.225" y="1221.4350000000002" type="line" smooth="yes"/>
      <point x="671.225" y="1105.01"/>
      <point x="545.1750000000001" y="1042.925"/>
      <point x="373.46000000000004" y="963.465" type="curve" smooth="yes"/>
      <point x="62.965" y="820.97" type="line"/>
    </contour>
  </outline>
</glyph>
<glyph name="threesuperior" format="2">
  <advance width="884.255"/>
  <unicode hex="00B3"/>
  <outline>
    <contour>
      <point x="431.375" y="737.615" type="curve" smooth="yes"/>
      <point x="682.025" y="737.615"/>
      <point x="803.0849999999999" y="812.41"/>
      <point x="803.0849999999999" y="932.385" type="curve" smooth="yes"/>
      <point x="803.0849999999999" y="941.1199999999999" type="line" smooth="yes"/>
      <point x="803.0849999999999" y="1036.265"/>
      <point x="733.855" y="1097.0249999999999"/>
      <point x="561.995" y="1102.2649999999999" type="curve"/>
      <point x="570.4050000000001" y="1091.0" type="line"/>
      <point x="570.405" y="1099.18" type="line"/>
      <point x="724.445" y="1104.095"/>
      <point x="793.145" y="1164.65"/>
      <point x="793.145" y="1254.0" type="curve" smooth="yes"/>
      <point x="793.145" y="1260.7350000000001" type="line" smooth="yes"/>
      <point x="793.145" y="1369.445"/>
      <point x="684.435" y="1435.385"/>
      <point x="448.52" y="1435.385" type="curve" smooth="yes"/>
      <point x="277.41" y="1435.385"/>
      <point x="154.47" y="1397.8300000000002"/>
      <point x="88.75999999999999" y="1365.625" type="curve"/>
      <point x="80.845" y="1305.45" type="line"/>
      <point x="160.845" y="1341.27"/>
      <point x="278.435" y="1376.1499999999999"/>
      <point x="441.34" y="1376.1499999999999" type="curve" smooth="yes"/>
      <point x="636.56" y="1376.1499999999999"/>
      <point x="718.78" y="1330.305"/>
      <point x="718.78" y="1253.6399999999999" type="curve" smooth="yes"/>
      <point x="718.78" y="1250.1699999999998" type="line" smooth="yes"/>
      <point x="718.78" y="1178.445"/>
      <point x="654.4649999999999" y="1127.19"/>
      <point x="472.375" y="1125.925" type="curve" smooth="yes"/>
      <point x="244.69" y="1123.865" type="line"/>
      <point x="244.69" y="1071.28" type="line"/>
      <point x="471.64" y="1068.75" type="line" smooth="yes"/>
      <point x="709.1899999999999" y="1066.75"/>
      <point x="728.19" y="991.12"/>
      <point x="728.19" y="943.505" type="curve" smooth="yes"/>
      <point x="728.19" y="939.035" type="line" smooth="yes"/>
      <point x="728.19" y="850.755"/>
      <point x="636.09" y="797.115"/>
      <point x="427.54499999999996" y="797.115" type="curve" smooth="yes"/>
      <point x="285.31499999999994" y="797.115"/>
      <point x="155.905" y="830.26"/>
      <point x="76.845" y="861.405" type="curve"/>
      <point x="84.025" y="797.375" type="line"/>
      <point x="143.675" y="775.4350000000001"/>
      <point x="268.82" y="737.615"/>
    </contour>
  </outline>
</glyph>
<glyph name="micro" format="2">
  <advance width="1412.8300000000002"/>
  <unicode hex="00B5"/>
  <outline>
    <contour>
      <point x="1221.96" y="953.59" type="line"/>
      <point x="1136.26" y="953.59" type="line"/>
      <point x="1136.26" y="316.29" type="line"/>
      <point x="1141.585" y="309.135" type="line"/>
      <point x="1136.26" y="0.0" type="line"/>
      <point x="1221.96" y="0.0" type="line"/>
    </contour>
    <contour>
      <point x="273.63" y="439.45500000000004" type="curve" smooth="yes"/>
      <point x="276.57" y="953.59" type="line"/>
      <point x="190.87" y="953.59" type="line"/>
      <point x="190.87" y="-338.0" type="line"/>
      <point x="276.04" y="-338.0" type="line"/>
      <point x="276.04" y="-174.84" type="line"/>
      <point x="267.51" y="249.67000000000002" type="line"/>
      <point x="268.42499999999995" y="249.67000000000002" type="line"/>
      <point x="316.81" y="71.365"/>
      <point x="478.14000000000004" y="-26.060000000000002"/>
      <point x="684.7700000000001" y="-26.060000000000002" type="curve" smooth="yes"/>
      <point x="960.27" y="-26.060000000000002"/>
      <point x="1125.9249999999997" y="147.24499999999998"/>
      <point x="1148.96" y="333.67" type="curve"/>
      <point x="1166.705" y="333.67" type="line"/>
      <point x="1146.73" y="398.71" type="line"/>
      <point x="1113.6699999999998" y="201.32"/>
      <point x="938.895" y="46.63"/>
      <point x="689.505" y="46.63" type="curve" smooth="yes"/>
      <point x="477.95" y="46.63"/>
      <point x="273.63" y="163.595"/>
    </contour>
  </outline>
</glyph>
<glyph name="paragraph" format="2">
  <advance width="861.97"/>
  <unicode hex="00B6"/>
  <outline>
    <contour>
      <point x="455.445" y="669.435" type="curve"/>
      <point x="581.35" y="669.435" type="line"/>
      <point x="579.615" y="1278.0" type="line"/>
      <point x="455.445" y="1278.0" type="line" smooth="yes"/>
      <point x="224.29" y="1278.0"/>
      <point x="116.845" y="1160.53"/>
      <point x="116.845" y="982.5550000000001" type="curve" smooth="yes"/>
      <point x="116.845" y="965.615" type="line" smooth="yes"/>
      <point x="116.845" y="787.435"/>
      <point x="224.29" y="669.435"/>
    </contour>
    <contour>
      <point x="639.485" y="0.0" type="line"/>
      <point x="639.485" y="1278.0" type="line"/>
      <point x="552.3149999999999" y="1278.0" type="line"/>
      <point x="552.3149999999999" y="0.0" type="line"/>
    </contour>
  </outline>
</glyph>
<glyph name="onesuperior" format="2">
  <advance width="533.915"/>
  <unicode hex="00B9"/>
  <outline>
    <contour>
      <point x="330.595" y="750.265" type="line"/>
      <point x="400.57500000000005" y="750.265" type="line"/>
      <point x="400.57500000000005" y="1422.5300000000002" type="line"/>
      <point x="320.74999999999994" y="1422.5300000000002" type="line"/>
      <point x="54.29" y="1288.395" type="line"/>
      <point x="50.964999999999996" y="1222.51" type="line"/>
      <point x="323.33" y="1358.4650000000001" type="line"/>
      <point x="330.595" y="1358.4650000000001" type="line"/>
    </contour>
  </outline>
</glyph>
<glyph name="ordmasculine" format="2">
  <advance width="910.495"/>
  <unicode hex="00BA"/>
  <outline>
    <contour>
      <point x="455.615" y="632.4100000000001" type="curve" smooth="yes"/>
      <point x="686.5899999999999" y="632.4100000000001"/>
      <point x="817.9150000000001" y="743.4699999999999"/>
      <point x="817.9150000000001" y="952.735" type="curve" smooth="yes"/>
      <point x="817.9150000000001" y="976.145" type="line" smooth="yes"/>
      <point x="817.9150000000001" y="1184.41"/>
      <point x="687.5899999999999" y="1295.735"/>
      <point x="455.615" y="1295.735" type="curve" smooth="yes"/>
      <point x="223.905" y="1295.735"/>
      <point x="92.58" y="1184.41"/>
      <point x="92.58" y="976.145" type="curve" smooth="yes"/>
      <point x="92.58" y="952.735" type="line" smooth="yes"/>
      <point x="92.58" y="744.4699999999999"/>
      <point x="222.905" y="632.4100000000001"/>
    </contour>
    <contour>
      <point x="455.615" y="689.91" type="curve" smooth="yes"/>
      <point x="268.165" y="689.91"/>
      <point x="162.03000000000003" y="781.9"/>
      <point x="162.03000000000003" y="953.265" type="curve" smooth="yes"/>
      <point x="162.03000000000003" y="975.88" type="line" smooth="yes"/>
      <point x="162.03000000000003" y="1146.98"/>
      <point x="268.165" y="1238.235"/>
      <point x="455.615" y="1238.235" type="curve" smooth="yes"/>
      <point x="643.0649999999999" y="1238.235"/>
      <point x="748.4649999999999" y="1146.98"/>
      <point x="748.4649999999999" y="975.88" type="curve" smooth="yes"/>
      <point x="748.4649999999999" y="953.265" type="line" smooth="yes"/>
      <point x="748.4649999999999" y="781.9"/>
      <point x="641.3299999999999" y="689.91"/>
    </contour>
  </outline>
</glyph>
<glyph name="guillemetright" format="2">
  <advance width="1310.725"/>
  <unicode hex="00BB"/>
  <outline>
    <contour>
      <point x="534.635" y="474.265" type="line"/>
      <point x="72.545" y="86.76" type="line"/>
      <point x="177.51" y="86.76" type="line"/>
      <point x="618.3100000000001" y="452.12" type="line"/>
      <point x="618.3100000000001" y="499.59" type="line"/>
      <point x="177.51" y="861.77" type="line"/>
      <point x="72.545" y="861.77" type="line"/>
    </contour>
    <contour>
      <point x="1122.385" y="474.265" type="line"/>
      <point x="660.295" y="86.76" type="line"/>
      <point x="765.26" y="86.76" type="line"/>
      <point x="1206.06" y="452.12" type="line"/>
      <point x="1206.06" y="499.59" type="line"/>
      <point x="765.26" y="861.77" type="line"/>
      <point x="660.295" y="861.77" type="line"/>
    </contour>
  </outline>
</glyph>
<glyph name="questiondown" format="2">
  <advance width="1290.085"/>
  <unicode hex="00BF"/>
  <outline>
    <contour>
      <point x="823.02" y="504.925" type="line"/>
      <point x="716.8399999999999" y="496.455" type="line" smooth="yes"/>
      <point x="326.385" y="465.31"/>
      <point x="125.255" y="320.695"/>
      <point x="125.255" y="59.769999999999996" type="curve" smooth="yes"/>
      <point x="125.255" y="43.83" type="line" smooth="yes"/>
      <point x="125.255" y="-203.53"/>
      <point x="282.53000000000003" y="-344.06"/>
      <point x="644.625" y="-344.06" type="curve" smooth="yes"/>
      <point x="899.0" y="-344.06"/>
      <point x="1088.2649999999999" y="-257.42"/>
      <point x="1188.53" y="-189.455" type="curve"/>
      <point x="1199.095" y="-107.705" type="line"/>
      <point x="1071.2050000000002" y="-192.2"/>
      <point x="875.59" y="-269.37"/>
      <point x="648.6" y="-269.37" type="curve" smooth="yes"/>
      <point x="333.21000000000004" y="-269.37"/>
      <point x="212.07500000000002" y="-152.705"/>
      <point x="212.07500000000002" y="44.89" type="curve" smooth="yes"/>
      <point x="212.07500000000002" y="59.30000000000001" type="line" smooth="yes"/>
      <point x="212.07500000000002" y="276.34"/>
      <point x="388.5" y="397.15"/>
      <point x="724.9" y="424.825" type="curve" smooth="yes"/>
      <point x="823.02" y="432.82500000000005" type="line"/>
    </contour>
    <contour>
      <point x="764.0" y="969.975" type="curve" smooth="yes"/>
      <point x="710.895" y="969.975"/>
      <point x="683.535" y="944.2900000000001"/>
      <point x="683.535" y="898.16" type="curve" smooth="yes"/>
      <point x="683.535" y="894.16" type="line" smooth="yes"/>
      <point x="683.535" y="848.765"/>
      <point x="710.895" y="823.815"/>
      <point x="764.0" y="823.815" type="curve" smooth="yes"/>
      <point x="814.37" y="823.815"/>
      <point x="842.73" y="848.765"/>
      <point x="842.73" y="894.16" type="curve" smooth="yes"/>
      <point x="842.73" y="898.16" type="line" smooth="yes"/>
      <point x="842.73" y="944.2900000000001"/>
      <point x="814.37" y="969.975"/>
    </contour>
  </outline>
</glyph>
<glyph name="AE" format="2">
  <advance width="2458.43"/>
  <unicode hex="00C6"/>
  <anchor x="1229.48" y="0.0" name="bottom"/>
  <anchor x="1229.48" y="1278.0" name="top"/>
  <outline>
    <contour>
      <point x="80.86999999999999" y="0.0" type="line"/>
      <point x="181.725" y="0.0" type="line"/>
      <point x="1145.24" y="1217.38" type="line"/>
      <point x="1246.07" y="1217.38" type="line"/>
      <point x="1246.6" y="1278.0" type="line"/>
      <point x="1089.44" y="1278.0" type="line"/>
    </contour>
    <contour>
      <point x="490.555" y="428.825" type="line"/>
      <point x="1226.53" y="428.825" type="line"/>
      <point x="1226.53" y="501.515" type="line"/>
      <point x="490.555" y="501.515" type="line"/>
    </contour>
    <contour>
      <point x="1235.085" y="0.0" type="line"/>
      <point x="2311.585" y="0.0" type="line"/>
      <point x="2311.585" y="72.95500000000001" type="line"/>
      <point x="1235.085" y="72.95500000000001" type="line"/>
    </contour>
    <contour>
      <point x="1216.0" y="0.0" type="line"/>
      <point x="1302.7" y="0.0" type="line"/>
      <point x="1302.7" y="1278.0" type="line"/>
      <point x="1216.0" y="1278.0" type="line"/>
    </contour>
    <contour>
      <point x="1262.3799999999999" y="615.86" type="line"/>
      <point x="2276.055" y="615.86" type="line"/>
      <point x="2276.055" y="688.02" type="line"/>
      <point x="1262.3799999999999" y="688.02" type="line"/>
    </contour>
    <contour>
      <point x="1235.0849999999998" y="1205.045" type="line"/>
      <point x="2300.525" y="1205.045" type="line"/>
      <point x="2300.525" y="1278.0" type="line"/>
      <point x="1235.0849999999998" y="1278.0" type="line"/>
    </contour>
  </outline>
</glyph>
<glyph name="Eth" format="2">
  <advance width="1621.0349999999999"/>
  <unicode hex="00D0"/>
  <anchor x="795.06" y="0.0" name="bottom"/>
  <anchor x="810.65" y="639.0" name="center"/>
  <anchor x="795.06" y="1278.0" name="top"/>
  <outline>
    <contour>
      <point x="-5.205" y="622.655" type="line"/>
      <point x="853.325" y="622.39" type="line"/>
      <point x="853.325" y="690.84" type="line"/>
      <point x="-5.205" y="691.105" type="line"/>
    </contour>
    <component base="D"/>
  </outline>
</glyph>
<glyph name="multiply" format="2">
  <advance width="1347.085"/>
  <unicode hex="00D7"/>
  <outline>
    <contour>
      <point x="1137.1899999999998" y="205.19" type="line"/>
      <point x="264.65999999999997" y="1064.3600000000001" type="line"/>
      <point x="213.42499999999998" y="1014.1850000000001" type="line"/>
      <point x="1085.955" y="155.015" type="line"/>
    </contour>
    <contour>
      <point x="209.89499999999998" y="205.19" type="line"/>
      <point x="261.13" y="155.015" type="line"/>
      <point x="1133.66" y="1014.1850000000001" type="line"/>
      <point x="1082.4249999999997" y="1064.3600000000001" type="line"/>
    </contour>
  </outline>
</glyph>
<glyph name="Oslash" format="2">
  <advance width="1663.865"/>
  <unicode hex="00D8"/>
  <anchor x="832.3000000000001" y="0.0" name="bottom"/>
  <anchor x="832.3000000000001" y="639.265" name="center"/>
  <anchor x="1497.805" y="10.265" name="ogonek"/>
  <anchor x="832.3000000000001" y="1278.0" name="top"/>
  <anchor x="20.0" y="1278.265" name="topleft"/>
  <anchor x="1643.865" y="1278.265" name="topright"/>
  <outline>
    <contour>
      <point x="831.565" y="-24.18" type="curve" smooth="yes"/>
      <point x="1282.37" y="-24.18"/>
      <point x="1529.815" y="211.94"/>
      <point x="1529.815" y="629.795" type="curve" smooth="yes"/>
      <point x="1529.815" y="649.735" type="line" smooth="yes"/>
      <point x="1530.5500000000002" y="1060.47"/>
      <point x="1275.515" y="1302.1799999999998"/>
      <point x="831.565" y="1302.1799999999998" type="curve" smooth="yes"/>
      <point x="381.495" y="1302.1799999999998"/>
      <point x="134.05" y="1067.325"/>
      <point x="134.05" y="649.735" type="curve" smooth="yes"/>
      <point x="134.05" y="629.795" type="line" smooth="yes"/>
      <point x="134.05" y="218.79500000000002"/>
      <point x="388.34999999999997" y="-24.18"/>
    </contour>
    <contour>
      <point x="150.01500000000001" y="-48.975" type="line"/>
      <point x="249.245" y="-48.975" type="line"/>
      <point x="402.8" y="117.96499999999999" type="line"/>
      <point x="418.98" y="135.675" type="line"/>
      <point x="1299.1450000000002" y="1090.44" type="line"/>
      <point x="1323.4800000000002" y="1117.365" type="line"/>
      <point x="1514.585" y="1326.24" type="line"/>
      <point x="1416.1499999999999" y="1326.24" type="line"/>
      <point x="1267.39" y="1164.625" type="line"/>
      <point x="1250.945" y="1146.385" type="line"/>
      <point x="367.455" y="188.09" type="line"/>
      <point x="341.795" y="159.57500000000002" type="line"/>
    </contour>
    <contour>
      <point x="831.565" y="51.775" type="curve" smooth="yes"/>
      <point x="443.15000000000003" y="51.775"/>
      <point x="225.66500000000002" y="264.84999999999997"/>
      <point x="225.66500000000002" y="629.53" type="curve" smooth="yes"/>
      <point x="225.66500000000002" y="650.0" type="line" smooth="yes"/>
      <point x="225.66500000000002" y="1020.415"/>
      <point x="438.15" y="1227.02"/>
      <point x="831.565" y="1227.02" type="curve" smooth="yes"/>
      <point x="1220.4499999999998" y="1227.02"/>
      <point x="1438.2" y="1015.415"/>
      <point x="1438.2" y="650.0" type="curve" smooth="yes"/>
      <point x="1438.2" y="629.53" type="line" smooth="yes"/>
      <point x="1438.2" y="259.84999999999997"/>
      <point x="1225.45" y="51.775"/>
    </contour>
  </outline>
</glyph>
<glyph name="Thorn" format="2">
  <advance width="1514.975"/>
  <unicode hex="00DE"/>
  <anchor x="757.855" y="0.0" name="bottom"/>
  <anchor x="757.855" y="1278.0" name="top"/>
  <outline>
    <contour>
      <point x="287.465" y="235.725" type="line"/>
      <point x="943.3399999999999" y="235.725" type="line" smooth="yes"/>
      <point x="1255.3" y="235.725"/>
      <point x="1399.455" y="393.315"/>
      <point x="1399.455" y="631.265" type="curve" smooth="yes"/>
      <point x="1399.455" y="652.9399999999999" type="line" smooth="yes"/>
      <point x="1399.455" y="891.6850000000001"/>
      <point x="1255.3" y="1048.01"/>
      <point x="943.34" y="1048.01" type="curve" smooth="yes"/>
      <point x="277.79" y="1048.01" type="line"/>
      <point x="277.79" y="975.32" type="line"/>
      <point x="941.87" y="975.32" type="line" smooth="yes"/>
      <point x="1198.3200000000002" y="975.32"/>
      <point x="1309.105" y="849.305"/>
      <point x="1309.105" y="651.47" type="curve" smooth="yes"/>
      <point x="1309.105" y="632.265" type="line" smooth="yes"/>
      <point x="1309.105" y="434.43"/>
      <point x="1198.32" y="308.68"/>
      <point x="941.87" y="308.68" type="curve" smooth="yes"/>
      <point x="287.465" y="308.68" type="line"/>
    </contour>
    <contour>
      <point x="222.48499999999999" y="0.0" type="line"/>
      <point x="310.185" y="0.0" type="line"/>
      <point x="310.185" y="255.59" type="line"/>
      <point x="310.185" y="287.165" type="line"/>
      <point x="310.185" y="995.4499999999999" type="line"/>
      <point x="310.185" y="1026.88" type="line"/>
      <point x="310.185" y="1278.0" type="line"/>
      <point x="222.48499999999999" y="1278.0" type="line"/>
    </contour>
  </outline>
</glyph>
<glyph name="germandbls" format="2">
  <advance width="1449.625"/>
  <unicode hex="00DF"/>
  <anchor x="691.505" y="0.0" name="bottom"/>
  <anchor x="691.505" y="953.59" name="top"/>
  <outline>
    <contour>
      <point x="190.87" y="929.9649999999999" type="curve" smooth="yes"/>
      <point x="190.87" y="0.0" type="line"/>
      <point x="275.57" y="0.0" type="line"/>
      <point x="275.57" y="926.4350000000001" type="line" smooth="yes"/>
      <point x="275.57" y="1147.56"/>
      <point x="350.33000000000004" y="1279.96"/>
      <point x="631.77" y="1279.96" type="curve" smooth="yes"/>
      <point x="847.98" y="1279.96"/>
      <point x="949.62" y="1199.09"/>
      <point x="949.62" y="1091.015" type="curve" smooth="yes"/>
      <point x="949.62" y="912.36"/>
      <point x="628.435" y="897.8449999999999"/>
      <point x="627.435" y="693.495" type="curve" smooth="yes"/>
      <point x="627.435" y="683.2900000000001" type="line" smooth="yes"/>
      <point x="627.435" y="543.11"/>
      <point x="718.29" y="496.01500000000004"/>
      <point x="946.76" y="464.1" type="curve" smooth="yes"/>
      <point x="1161.2099999999998" y="434.365"/>
      <point x="1250.73" y="394.99"/>
      <point x="1250.73" y="257.54" type="curve" smooth="yes"/>
      <point x="1250.73" y="247.13" type="line" smooth="yes"/>
      <point x="1250.73" y="118.03"/>
      <point x="1144.945" y="46.63"/>
      <point x="944.725" y="46.63" type="curve" smooth="yes"/>
      <point x="794.65" y="46.63"/>
      <point x="700.4100000000001" y="73.83500000000001"/>
      <point x="586.1199999999999" y="117.45" type="curve"/>
      <point x="596.625" y="38.230000000000004" type="line"/>
      <point x="687.83" y="4.614999999999999"/>
      <point x="789.745" y="-24.205"/>
      <point x="951.085" y="-24.205" type="curve" smooth="yes"/>
      <point x="1197.5049999999999" y="-24.205"/>
      <point x="1334.635" y="72.53"/>
      <point x="1334.635" y="248.395" type="curve" smooth="yes"/>
      <point x="1334.635" y="258.33500000000004" type="line" smooth="yes"/>
      <point x="1334.635" y="435.31000000000006"/>
      <point x="1232.865" y="492.84"/>
      <point x="974.935" y="531.43" type="curve" smooth="yes"/>
      <point x="786.86" y="559.6949999999999"/>
      <point x="711.4" y="585.3100000000001"/>
      <point x="711.4" y="687.795" type="curve" smooth="yes"/>
      <point x="711.4" y="696.41" type="line" smooth="yes"/>
      <point x="711.4" y="859.27"/>
      <point x="1034.79" y="876.46"/>
      <point x="1034.79" y="1091.485" type="curve"/>
      <point x="1034.79" y="1248.65"/>
      <point x="887.24" y="1350.0"/>
      <point x="631.505" y="1350.0" type="curve" smooth="yes"/>
      <point x="290.67499999999995" y="1350.0"/>
      <point x="190.87" y="1187.855"/>
    </contour>
  </outline>
</glyph>
<glyph name="ae" format="2">
  <advance width="2254.04"/>
  <unicode hex="00E6"/>
  <anchor x="1126.46" y="0.0" name="bottom"/>
  <anchor x="1126.46" y="953.59" name="top"/>
  <outline>
    <contour>
      <point x="1622.365" y="-26.854999999999997" type="curve" smooth="yes"/>
      <point x="1821.69" y="-26.854999999999997"/>
      <point x="1977.2800000000002" y="21.555"/>
      <point x="2102.28" y="109.725" type="curve"/>
      <point x="2112.315" y="189.56" type="line"/>
      <point x="1971.05" y="91.03999999999999"/>
      <point x="1821.3999999999999" y="45.305"/>
      <point x="1632.6399999999999" y="45.305" type="curve" smooth="yes"/>
      <point x="1300.82" y="45.305"/>
      <point x="1137.49" y="202.64499999999998"/>
      <point x="1137.49" y="455.315" type="curve" smooth="yes"/>
      <point x="1137.49" y="476.59" type="line"/>
      <point x="1137.49" y="484.505" type="line"/>
      <point x="1137.49" y="497.95000000000005" type="line" smooth="yes"/>
      <point x="1137.49" y="753.125"/>
      <point x="1297.18" y="910.14"/>
      <point x="1595.8600000000001" y="910.14" type="curve" smooth="yes"/>
      <point x="1896.13" y="910.14"/>
      <point x="2055.145" y="748.22"/>
      <point x="2055.145" y="512.3" type="curve" smooth="yes"/>
      <point x="2055.145" y="491.40999999999997"/>
      <point x="2054.6150000000002" y="468.665"/>
      <point x="2052.5550000000003" y="451.04" type="curve"/>
      <point x="2133.0750000000003" y="451.04" type="line"/>
      <point x="2136.135" y="470.015"/>
      <point x="2137.46" y="489.70000000000005"/>
      <point x="2137.46" y="507.12000000000006" type="curve" smooth="yes"/>
      <point x="2137.46" y="511.65000000000003" type="line" smooth="yes"/>
      <point x="2137.46" y="788.77"/>
      <point x="1950.34" y="980.4449999999999"/>
      <point x="1600.895" y="980.4449999999999" type="curve" smooth="yes"/>
      <point x="1318.9650000000001" y="980.4449999999999"/>
      <point x="1146.41" y="859.985"/>
      <point x="1095.2299999999998" y="648.7399999999999" type="curve"/>
      <point x="1102.135" y="651.68" type="line"/>
      <point x="1080.6550000000002" y="851.925"/>
      <point x="941.015" y="980.18"/>
      <point x="653.4350000000001" y="980.18" type="curve" smooth="yes"/>
      <point x="413.445" y="980.18"/>
      <point x="254.975" y="900.2750000000001"/>
      <point x="171.675" y="844.07" type="curve"/>
      <point x="161.64000000000001" y="766.235" type="line"/>
      <point x="270.0" y="835.055"/>
      <point x="432.675" y="908.02"/>
      <point x="650.7850000000001" y="908.02" type="curve" smooth="yes"/>
      <point x="923.74" y="908.02"/>
      <point x="1052.79" y="789.475"/>
      <point x="1052.79" y="581.0849999999999" type="curve"/>
      <point x="1053.32" y="493.47" type="line"/>
      <point x="1052.32" y="439.59"/>
      <point x="1055.32" y="377.905"/>
      <point x="1065.44" y="337.195" type="curve"/>
      <point x="1071.3549999999998" y="319.34000000000003" type="line"/>
      <point x="1125.005" y="102.35"/>
      <point x="1306.535" y="-26.854999999999997"/>
    </contour>
    <contour>
      <point x="523.28" y="-26.060000000000002" type="curve" smooth="yes"/>
      <point x="868.595" y="-26.060000000000002"/>
      <point x="1038.285" y="140.86"/>
      <point x="1084.86" y="311.31" type="curve"/>
      <point x="1105.135" y="311.31" type="line"/>
      <point x="1067.2949999999998" y="373.965" type="line"/>
      <point x="1019.055" y="191.87500000000003"/>
      <point x="835.1" y="46.1"/>
      <point x="543.06" y="46.1" type="curve" smooth="yes"/>
      <point x="327.995" y="46.1"/>
      <point x="195.75" y="116.62"/>
      <point x="195.75" y="253.54000000000002" type="curve" smooth="yes"/>
      <point x="195.75" y="263.48" type="line" smooth="yes"/>
      <point x="195.75" y="407.19500000000005"/>
      <point x="308.85" y="461.245"/>
      <point x="606.375" y="482.655" type="curve" smooth="yes"/>
      <point x="1069.97" y="516.125" type="line"/>
      <point x="1068.91" y="577.13" type="line"/>
      <point x="598.46" y="544.6600000000001" type="line" smooth="yes"/>
      <point x="255.29000000000002" y="520.6600000000001"/>
      <point x="110.05" y="447.48"/>
      <point x="110.05" y="259.65" type="curve" smooth="yes"/>
      <point x="110.05" y="246.23999999999998" type="line" smooth="yes"/>
      <point x="110.05" y="68.12"/>
      <point x="266.87" y="-26.060000000000002"/>
    </contour>
    <contour>
      <point x="1092.58" y="451.04" type="line"/>
      <point x="2112.655" y="451.04" type="line"/>
      <point x="2112.655" y="517.49" type="line"/>
      <point x="1092.58" y="517.49" type="line"/>
    </contour>
  </outline>
</glyph>
<glyph name="eth" format="2">
  <advance width="1391.095"/>
  <unicode hex="00F0"/>
  <outline>
    <contour>
      <point x="695.915" y="-26.325000000000003" type="curve" smooth="yes"/>
      <point x="1057.9250000000002" y="-26.325000000000003"/>
      <point x="1265.8400000000001" y="141.59"/>
      <point x="1265.8400000000001" y="454.41" type="curve"/>
      <point x="1265.8400000000001" y="484.08500000000004" type="line"/>
      <point x="1265.8400000000001" y="927.125"/>
      <point x="901.69" y="1135.135"/>
      <point x="493.085" y="1322.675" type="curve"/>
      <point x="357.40000000000003" y="1322.675" type="line"/>
      <point x="357.40000000000003" y="1321.41" type="line"/>
      <point x="817.1750000000001" y="1113.7849999999999"/>
      <point x="1138.815" y="917.595"/>
      <point x="1174.96" y="575.285" type="curve"/>
      <point x="1176.02" y="555.035"/>
      <point x="1178.08" y="540.41"/>
      <point x="1179.1399999999999" y="513.8000000000001" type="curve"/>
      <point x="1179.1399999999999" y="493.09999999999997"/>
      <point x="1179.1399999999999" y="471.93"/>
      <point x="1179.1399999999999" y="451.22999999999996" type="curve" smooth="yes"/>
      <point x="1179.1399999999999" y="186.2"/>
      <point x="998.3900000000001" y="44.51"/>
      <point x="695.915" y="44.51" type="curve" smooth="yes"/>
      <point x="391.705" y="44.51"/>
      <point x="211.22000000000003" y="183.73"/>
      <point x="211.22000000000003" y="444.615" type="curve" smooth="yes"/>
      <point x="211.22000000000003" y="463.675" type="line" smooth="yes"/>
      <point x="211.22000000000003" y="725.295"/>
      <point x="393.38" y="861.66"/>
      <point x="686.565" y="861.66" type="curve" smooth="yes"/>
      <point x="929.0849999999999" y="861.66"/>
      <point x="1162.9950000000001" y="751.14"/>
      <point x="1179.1399999999999" y="471.16999999999996" type="curve"/>
      <point x="1193.19" y="579.0200000000001" type="line"/>
      <point x="1166.4699999999998" y="569.72" type="line"/>
      <point x="1146.33" y="807.755"/>
      <point x="929.4300000000001" y="931.965"/>
      <point x="668.3050000000001" y="931.965" type="curve" smooth="yes"/>
      <point x="330.93" y="931.965"/>
      <point x="125.255" y="770.1700000000001"/>
      <point x="125.255" y="465.41" type="curve" smooth="yes"/>
      <point x="125.255" y="444.88" type="line" smooth="yes"/>
      <point x="125.255" y="137.41"/>
      <point x="331.7" y="-26.325000000000003"/>
    </contour>
    <contour>
      <point x="286.905" y="1030.6550000000002" type="line"/>
      <point x="1182.4550000000002" y="1215.595" type="line"/>
      <point x="1182.4550000000002" y="1275.625" type="line"/>
      <point x="286.905" y="1090.9499999999998" type="line"/>
    </contour>
  </outline>
</glyph>
<glyph name="divide" format="2">
  <advance width="1347.2899999999997"/>
  <unicode hex="00F7"/>
  <outline>
    <contour>
      <point x="159.375" y="575.86" type="line"/>
      <point x="1187.915" y="575.86" type="line"/>
      <point x="1187.915" y="646.43" type="line"/>
      <point x="159.375" y="646.43" type="line"/>
    </contour>
    <contour>
      <point x="677.35" y="111.1" type="curve" smooth="yes"/>
      <point x="729.925" y="111.1"/>
      <point x="757.02" y="136.785"/>
      <point x="757.02" y="182.38500000000002" type="curve" smooth="yes"/>
      <point x="757.02" y="186.385" type="line" smooth="yes"/>
      <point x="757.02" y="231.25"/>
      <point x="729.925" y="255.93500000000003"/>
      <point x="677.35" y="255.93500000000003" type="curve" smooth="yes"/>
      <point x="627.51" y="255.93500000000003"/>
      <point x="599.415" y="231.25"/>
      <point x="599.415" y="186.385" type="curve" smooth="yes"/>
      <point x="599.415" y="182.38500000000002" type="line" smooth="yes"/>
      <point x="599.415" y="136.785"/>
      <point x="627.51" y="111.1"/>
    </contour>
    <contour>
      <point x="677.35" y="968.74" type="curve" smooth="yes"/>
      <point x="729.925" y="968.74"/>
      <point x="757.02" y="994.4250000000001"/>
      <point x="757.02" y="1040.025" type="curve" smooth="yes"/>
      <point x="757.02" y="1044.025" type="line" smooth="yes"/>
      <point x="757.02" y="1088.8899999999999"/>
      <point x="729.925" y="1113.575"/>
      <point x="677.35" y="1113.575" type="curve" smooth="yes"/>
      <point x="627.51" y="1113.575"/>
      <point x="599.415" y="1088.8899999999999"/>
      <point x="599.415" y="1044.025" type="curve" smooth="yes"/>
      <point x="599.415" y="1040.025" type="line" smooth="yes"/>
      <point x="599.415" y="994.4250000000001"/>
      <point x="627.51" y="968.74"/>
    </contour>
  </outline>
</glyph>
<glyph name="oslash" format="2">
  <advance width="1396.505"/>
  <unicode hex="00F8"/>
  <anchor x="698.385" y="0.0" name="bottom"/>
  <anchor x="698.385" y="476.795" name="center"/>
  <anchor x="1256.9750000000001" y="10.0" name="ogonek"/>
  <anchor x="698.385" y="953.59" name="top"/>
  <anchor x="1376.505" y="953.59" name="topright"/>
  <outline>
    <contour>
      <point x="698.855" y="-26.060000000000002" type="curve" smooth="yes"/>
      <point x="1071.7450000000001" y="-26.060000000000002"/>
      <point x="1271.25" y="142.79500000000002"/>
      <point x="1271.25" y="464.325" type="curve"/>
      <point x="1271.25" y="490.735" type="line"/>
      <point x="1271.25" y="806.265"/>
      <point x="1063.7700000000002" y="979.915"/>
      <point x="698.855" y="979.915" type="curve" smooth="yes"/>
      <point x="325.76" y="979.915"/>
      <point x="125.255" y="810.795"/>
      <point x="125.255" y="491.53000000000003" type="curve"/>
      <point x="125.255" y="465.12" type="line"/>
      <point x="125.255" y="149.32500000000002"/>
      <point x="331.735" y="-26.060000000000002"/>
    </contour>
    <contour>
      <point x="137.075" y="-48.975" type="line"/>
      <point x="227.8" y="-48.975" type="line"/>
      <point x="354.005" y="80.14500000000001" type="line"/>
      <point x="371.895" y="99.095" type="line"/>
      <point x="1079.23" y="817.5350000000001" type="line"/>
      <point x="1101.71" y="841.0749999999999" type="line"/>
      <point x="1259.43" y="1002.5649999999999" type="line"/>
      <point x="1169.7050000000002" y="1002.5649999999999" type="line"/>
      <point x="1048.74" y="879.215" type="line"/>
      <point x="1027.645" y="857.0600000000001" type="line"/>
      <point x="318.865" y="137.645" type="line"/>
      <point x="296.65" y="115.37" type="line"/>
    </contour>
    <contour>
      <point x="698.855" y="41.33" type="curve" smooth="yes"/>
      <point x="385.90999999999997" y="41.33"/>
      <point x="209.10000000000002" y="192.20000000000002"/>
      <point x="209.10000000000002" y="464.325" type="curve" smooth="yes"/>
      <point x="209.10000000000002" y="491.53" type="line" smooth="yes"/>
      <point x="209.10000000000002" y="767.125"/>
      <point x="382.44" y="912.79"/>
      <point x="698.855" y="912.79" type="curve" smooth="yes"/>
      <point x="1012.3299999999999" y="912.79"/>
      <point x="1187.405" y="763.39"/>
      <point x="1187.405" y="491.53" type="curve" smooth="yes"/>
      <point x="1187.405" y="464.325" type="line" smooth="yes"/>
      <point x="1187.405" y="188.73"/>
      <point x="1013.8000000000001" y="41.33"/>
    </contour>
  </outline>
</glyph>
<glyph name="idotless" format="2">
  <advance width="474.11499999999995"/>
  <unicode hex="0131"/>
  <anchor x="237.19" y="0.0" name="bottom"/>
  <anchor x="326.715" y="1.3250000000000002" name="ogonek"/>
  <anchor x="237.19" y="953.59" name="top"/>
  <outline>
    <contour>
      <point x="194.34" y="0.0" type="line"/>
      <point x="279.775" y="0.0" type="line"/>
      <point x="279.775" y="953.59" type="line"/>
      <point x="194.34" y="953.59" type="line"/>
    </contour>
  </outline>
</glyph>
